<svg width="1440" height="1024" viewBox="0 0 1440 1024" fill="none" xmlns="http://www.w3.org/2000/svg">
<path d="M0 41C0 18.3563 18.3563 0 41 0H1399C1421.64 0 1440 18.3563 1440 41V983C1440 1005.64 1421.64 1024 1399 1024H41C18.3564 1024 0 1005.64 0 983V41Z" fill="#FBFBFB"/>
<rect x="973" y="519" width="78" height="72" rx="17" fill="#7550DD"/>
<path d="M1010.5 558.111C1010.5 557.559 1010.06 557.111 1009.5 557.111H1004C1003.45 557.111 1003 556.663 1003 556.111V554.667C1003 554.115 1003.45 553.667 1004 553.667H1009.5C1010.06 553.667 1010.5 553.219 1010.5 552.667V547C1010.5 546.448 1010.95 546 1011.5 546H1013.03C1013.58 546 1014.03 546.448 1014.03 547V552.667C1014.03 553.219 1014.48 553.667 1015.03 553.667H1020.61C1021.17 553.667 1021.61 554.115 1021.61 554.667V556.111C1021.61 556.663 1021.17 557.111 1020.61 557.111H1015.03C1014.48 557.111 1014.03 557.559 1014.03 558.111V563.86C1014.03 564.412 1013.58 564.86 1013.03 564.86H1011.5C1010.95 564.86 1010.5 564.412 1010.5 563.86V558.111Z" fill="white"/>
<rect x="388" y="519" width="78" height="72" rx="17" fill="#E1E1E6"/>
<path d="M419 554C419 553.448 419.448 553 420 553H434C434.552 553 435 553.448 435 554V556C435 556.552 434.552 557 434 557H420C419.448 557 419 556.552 419 556V554Z" fill="#3A3C55"/>
<rect x="538" y="274" width="76" height="70" rx="17" fill="#E1E1E6"/>
<path d="M568.188 322V320.125H575.062V314.5H572.25C570.521 314.5 569.047 313.891 567.828 312.672C566.609 311.453 566 309.979 566 308.25C566 307 566.344 305.849 567.031 304.797C567.719 303.745 568.646 302.979 569.813 302.5C570 300.938 570.682 299.63 571.859 298.578C573.036 297.526 574.417 297 576 297C577.583 297 578.964 297.526 580.141 298.578C581.318 299.63 582 300.938 582.188 302.5C583.354 302.979 584.281 303.745 584.969 304.797C585.656 305.849 586 307 586 308.25C586 309.979 585.391 311.453 584.172 312.672C582.953 313.891 581.479 314.5 579.75 314.5H576.938V320.125H584.125V322H568.188ZM572.25 312.625H579.75C580.958 312.625 581.99 312.198 582.844 311.344C583.698 310.49 584.125 309.458 584.125 308.25C584.125 307.375 583.875 306.578 583.375 305.859C582.875 305.141 582.229 304.604 581.438 304.25L580.438 303.812L580.312 302.719C580.167 301.615 579.688 300.698 578.875 299.969C578.062 299.24 577.104 298.875 576 298.875C574.896 298.875 573.937 299.24 573.125 299.969C572.312 300.698 571.833 301.615 571.688 302.719L571.562 303.812L570.562 304.25C569.771 304.604 569.125 305.141 568.625 305.859C568.125 306.578 567.875 307.375 567.875 308.25C567.875 309.458 568.302 310.49 569.156 311.344C570.01 312.198 571.042 312.625 572.25 312.625Z" fill="#3A3C55"/>
<rect x="634" y="274" width="76" height="70" rx="17" fill="#7550DD"/>
<path d="M664.8 317.238C664.52 317.238 664.275 317.134 664.065 316.926C663.855 316.717 663.75 316.474 663.75 316.196C663.75 315.919 663.855 315.676 664.065 315.467C664.275 315.259 664.52 315.155 664.8 315.155C665.08 315.155 665.325 315.259 665.535 315.467C665.745 315.676 665.85 315.919 665.85 316.196C665.85 316.474 665.745 316.717 665.535 316.926C665.325 317.134 665.08 317.238 664.8 317.238ZM679.2 317.238C678.92 317.238 678.675 317.134 678.465 316.926C678.255 316.717 678.15 316.474 678.15 316.196C678.15 315.919 678.255 315.676 678.465 315.467C678.675 315.259 678.92 315.155 679.2 315.155C679.48 315.155 679.725 315.259 679.935 315.467C680.145 315.676 680.25 315.919 680.25 316.196C680.25 316.474 680.145 316.717 679.935 316.926C679.725 317.134 679.48 317.238 679.2 317.238ZM668.4 322C668.12 322 667.875 321.896 667.665 321.688C667.455 321.479 667.35 321.236 667.35 320.958C667.35 320.681 667.455 320.438 667.665 320.229C667.875 320.021 668.12 319.917 668.4 319.917C668.68 319.917 668.925 320.021 669.135 320.229C669.345 320.438 669.45 320.681 669.45 320.958C669.45 321.236 669.345 321.479 669.135 321.688C668.925 321.896 668.68 322 668.4 322ZM672 317.238C671.72 317.238 671.475 317.134 671.265 316.926C671.055 316.717 670.95 316.474 670.95 316.196C670.95 315.919 671.055 315.676 671.265 315.467C671.475 315.259 671.72 315.155 672 315.155C672.28 315.155 672.525 315.259 672.735 315.467C672.945 315.676 673.05 315.919 673.05 316.196C673.05 316.474 672.945 316.717 672.735 316.926C672.525 317.134 672.28 317.238 672 317.238ZM675.6 322C675.32 322 675.075 321.896 674.865 321.688C674.655 321.479 674.55 321.236 674.55 320.958C674.55 320.681 674.655 320.438 674.865 320.229C675.075 320.021 675.32 319.917 675.6 319.917C675.88 319.917 676.125 320.021 676.335 320.229C676.545 320.438 676.65 320.681 676.65 320.958C676.65 321.236 676.545 321.479 676.335 321.688C676.125 321.896 675.88 322 675.6 322ZM666.3 313.071C664.56 313.071 663.075 312.461 661.845 311.241C660.615 310.021 660 308.548 660 306.821C660 305.254 660.565 303.855 661.695 302.625C662.825 301.395 664.23 300.72 665.91 300.601C666.55 299.49 667.395 298.612 668.445 297.967C669.495 297.322 670.68 297 672 297C673.82 297 675.345 297.57 676.575 298.711C677.805 299.852 678.56 301.266 678.84 302.952C680.42 303.032 681.675 303.562 682.605 304.545C683.535 305.527 684 306.683 684 308.012C684 309.401 683.505 310.591 682.515 311.583C681.525 312.575 680.32 313.071 678.9 313.071H666.3ZM666.3 311.286H678.9C679.82 311.286 680.6 310.963 681.24 310.318C681.88 309.674 682.2 308.895 682.2 307.982C682.2 307.089 681.88 306.325 681.24 305.69C680.6 305.056 679.82 304.738 678.9 304.738H677.1V303.845C677.1 302.437 676.605 301.241 675.615 300.259C674.625 299.277 673.42 298.786 672 298.786C670.98 298.786 670.045 299.059 669.195 299.604C668.345 300.15 667.72 300.889 667.32 301.821L667.08 302.357H666.24C665 302.397 663.95 302.848 663.09 303.711C662.23 304.574 661.8 305.611 661.8 306.821C661.8 308.052 662.24 309.103 663.12 309.976C664 310.849 665.06 311.286 666.3 311.286Z" fill="white"/>
<rect x="730" y="274" width="76" height="70" rx="17" fill="#E1E1E6"/>
<path d="M758.969 311.474C758.969 312.855 759.28 314.155 759.904 315.372C760.527 316.589 761.397 317.603 762.512 318.414C762.425 318.151 762.359 317.883 762.316 317.609C762.272 317.334 762.25 317.066 762.25 316.803C762.25 316.101 762.381 315.443 762.644 314.829C762.906 314.215 763.289 313.656 763.792 313.151L767.5 309.5L771.208 313.151C771.711 313.656 772.094 314.215 772.356 314.829C772.619 315.443 772.75 316.101 772.75 316.803C772.75 317.066 772.728 317.334 772.684 317.609C772.641 317.883 772.575 318.151 772.488 318.414C773.603 317.603 774.473 316.589 775.096 315.372C775.72 314.155 776.031 312.855 776.031 311.474C776.031 310.289 775.78 309.133 775.277 308.003C774.773 306.874 774.052 305.838 773.111 304.895C772.652 305.224 772.17 305.481 771.667 305.668C771.164 305.854 770.661 305.947 770.158 305.947C768.823 305.947 767.719 305.492 766.844 304.582C765.969 303.672 765.531 302.526 765.531 301.145V300.487C764.525 301.211 763.617 302.011 762.808 302.888C761.998 303.765 761.309 304.681 760.741 305.635C760.172 306.589 759.734 307.565 759.428 308.562C759.122 309.56 758.969 310.531 758.969 311.474ZM767.5 312.263L765.17 314.566C764.864 314.873 764.629 315.213 764.465 315.586C764.301 315.958 764.219 316.364 764.219 316.803C764.219 317.702 764.536 318.464 765.17 319.089C765.805 319.714 766.581 320.026 767.5 320.026C768.419 320.026 769.195 319.714 769.83 319.089C770.464 318.464 770.781 317.702 770.781 316.803C770.781 316.364 770.699 315.958 770.535 315.586C770.371 315.213 770.136 314.873 769.83 314.566L767.5 312.263ZM767.5 297V301.342C767.5 302.088 767.757 302.713 768.271 303.217C768.785 303.721 769.414 303.974 770.158 303.974C770.552 303.974 770.918 303.891 771.257 303.727C771.596 303.562 771.897 303.316 772.159 302.987L772.75 302.263C774.369 303.184 775.648 304.467 776.589 306.112C777.53 307.757 778 309.544 778 311.474C778 314.412 776.983 316.901 774.948 318.941C772.914 320.98 770.431 322 767.5 322C764.569 322 762.086 320.98 760.052 318.941C758.017 316.901 757 314.412 757 311.474C757 308.667 757.941 305.964 759.822 303.365C761.703 300.766 764.262 298.645 767.5 297Z" fill="#3A3C55"/>
<rect x="826" y="274" width="76" height="70" rx="17" fill="#E1E1E6"/>
<path d="M874.697 308.146V319.917C874.697 320.472 874.51 320.958 874.137 321.375C873.764 321.792 873.329 322 872.831 322H854.142C853.645 322 853.209 321.792 852.836 321.375C852.463 320.958 852.277 320.472 852.277 319.917V308.146C851.696 307.59 851.313 306.907 851.126 306.097C850.939 305.287 850.96 304.477 851.188 303.667L852.525 298.979C852.691 298.354 852.981 297.868 853.396 297.521C853.811 297.174 854.287 297 854.826 297H872.023C872.603 297 873.111 297.179 873.546 297.538C873.982 297.897 874.282 298.377 874.448 298.979L875.816 303.667C876.044 304.477 876.06 305.287 875.863 306.097C875.666 306.907 875.277 307.59 874.697 308.146ZM866.301 307.069C866.902 307.069 867.41 306.85 867.825 306.41C868.239 305.97 868.405 305.438 868.322 304.812L867.545 299.083H864.435V304.812C864.435 305.414 864.611 305.941 864.964 306.392C865.316 306.844 865.762 307.069 866.301 307.069ZM860.486 307.069C861.066 307.069 861.559 306.85 861.963 306.41C862.367 305.97 862.569 305.438 862.569 304.812V299.083H859.46L858.682 304.812C858.599 305.414 858.745 305.941 859.118 306.392C859.491 306.844 859.947 307.069 860.486 307.069ZM854.826 307.069C855.324 307.069 855.754 306.878 856.117 306.497C856.48 306.115 856.692 305.646 856.754 305.09L857.563 299.083H854.453L853.023 304.153C852.816 304.87 852.898 305.536 853.272 306.149C853.645 306.763 854.163 307.069 854.826 307.069ZM872.147 307.069C872.81 307.069 873.334 306.769 873.717 306.167C874.101 305.565 874.189 304.894 873.982 304.153L872.551 299.083H869.442L870.25 305.09C870.312 305.646 870.525 306.115 870.888 306.497C871.25 306.878 871.67 307.069 872.147 307.069ZM854.142 319.917H872.831V309.118C872.852 309.141 872.785 309.153 872.629 309.153C872.474 309.153 872.313 309.153 872.147 309.153C871.629 309.153 871.136 309.031 870.67 308.788C870.204 308.545 869.742 308.169 869.286 307.66C868.955 308.123 868.54 308.487 868.042 308.753C867.545 309.02 866.995 309.153 866.394 309.153C865.772 309.153 865.239 309.054 864.793 308.858C864.347 308.661 863.917 308.331 863.502 307.868C863.191 308.285 862.797 308.603 862.321 308.823C861.844 309.043 861.305 309.153 860.704 309.153C860.061 309.153 859.491 309.025 858.993 308.771C858.496 308.516 858.071 308.146 857.718 307.66C857.221 308.146 856.734 308.516 856.257 308.771C855.78 309.025 855.303 309.153 854.826 309.153C854.681 309.153 854.541 309.153 854.407 309.153C854.272 309.153 854.184 309.141 854.142 309.118V319.917ZM872.831 319.917H854.142C854.184 319.917 854.272 319.917 854.407 319.917C854.541 319.917 854.681 319.917 854.826 319.917C855.179 319.917 855.599 319.917 856.086 319.917C856.573 319.917 857.117 319.917 857.718 319.917C857.905 319.917 858.112 319.917 858.34 319.917C858.568 319.917 858.812 319.917 859.071 319.917C859.33 319.917 859.595 319.917 859.864 319.917C860.134 319.917 860.413 319.917 860.704 319.917C860.932 319.917 861.17 319.917 861.419 319.917C861.668 319.917 861.916 319.917 862.165 319.917C862.414 319.917 862.652 319.917 862.88 319.917C863.108 319.917 863.316 319.917 863.502 319.917C863.958 319.917 864.414 319.917 864.871 319.917C865.327 319.917 865.835 319.917 866.394 319.917C866.684 319.917 866.97 319.917 867.249 319.917C867.529 319.917 867.794 319.917 868.042 319.917C868.291 319.917 868.519 319.917 868.726 319.917C868.934 319.917 869.12 319.917 869.286 319.917C869.763 319.917 870.24 319.917 870.717 319.917C871.193 319.917 871.67 319.917 872.147 319.917C872.313 319.917 872.474 319.917 872.629 319.917C872.785 319.917 872.852 319.917 872.831 319.917Z" fill="#3A3C55"/>
<path d="M139.662 96.5215V94.0312L154.779 84.998V88.1963L143.861 95.2764L154.779 102.356V105.555L139.662 96.5215Z" fill="#3A3C55"/>
<path d="M161.091 122V82H165.141V84.75H165.841C166.408 83.7167 167.041 82.95 167.741 82.45C168.475 81.9167 169.525 81.65 170.891 81.65C172.691 81.65 174.041 82.15 174.941 83.15C175.841 84.1167 176.341 85.7167 176.441 87.95C176.475 88.9833 176.491 90.3 176.491 91.9C176.525 93.5 176.541 95.2 176.541 97C176.541 98.7667 176.525 100.467 176.491 102.1C176.491 103.7 176.475 105.017 176.441 106.05C176.341 108.283 175.808 109.9 174.841 110.9C173.875 111.867 172.491 112.35 170.691 112.35C169.558 112.35 168.608 112.117 167.841 111.65C167.108 111.15 166.441 110.35 165.841 109.25H165.141V122H161.091ZM169.341 109.35C170.341 109.35 171.091 109.117 171.591 108.65C172.091 108.183 172.358 107.417 172.391 106.35C172.491 103.583 172.541 101.2 172.541 99.2C172.575 97.1667 172.575 95.25 172.541 93.45C172.508 91.65 172.458 89.7 172.391 87.6C172.358 86.5667 172.125 85.8167 171.691 85.35C171.258 84.8833 170.541 84.65 169.541 84.65C167.308 84.65 165.841 85.6333 165.141 87.6V106.4C165.541 107.5 166.075 108.267 166.741 108.7C167.408 109.133 168.275 109.35 169.341 109.35Z" fill="#3A3C55"/>
<path d="M181.257 112V82H185.307V85H186.157C186.457 83.8333 186.957 83.0333 187.657 82.6C188.391 82.1333 189.374 81.9 190.607 81.9C190.907 81.9 191.207 81.9167 191.507 81.95C191.841 81.95 192.174 81.9667 192.507 82V85.1H190.657C189.124 85.1 187.924 85.35 187.057 85.85C186.224 86.3167 185.641 87.1667 185.307 88.4V112H181.257Z" fill="#3A3C55"/>
<path d="M202.58 112.35C199.88 112.35 197.964 111.817 196.83 110.75C195.73 109.65 195.13 107.85 195.03 105.35C194.964 103.983 194.914 102.317 194.88 100.35C194.847 98.3833 194.83 96.3667 194.83 94.3C194.864 92.2 194.93 90.3167 195.03 88.65C195.13 86.1167 195.73 84.3167 196.83 83.25C197.964 82.1833 199.88 81.65 202.58 81.65C205.314 81.65 207.23 82.2 208.33 83.3C209.43 84.3667 210.03 86.15 210.13 88.65C210.197 90.1833 210.247 91.9333 210.28 93.9C210.314 95.8333 210.314 97.8 210.28 99.8C210.28 101.8 210.23 103.65 210.13 105.35C210.03 107.85 209.43 109.65 208.33 110.75C207.23 111.817 205.314 112.35 202.58 112.35ZM202.58 109.3C203.914 109.3 204.83 109.05 205.33 108.55C205.864 108.05 206.147 107.267 206.18 106.2C206.28 103.167 206.33 100.133 206.33 97.1C206.364 94.0667 206.314 90.9667 206.18 87.8C206.147 86.7 205.864 85.9167 205.33 85.45C204.797 84.95 203.88 84.7 202.58 84.7C201.314 84.7 200.397 84.95 199.83 85.45C199.297 85.95 199.014 86.7667 198.98 87.9C198.847 90.5667 198.78 93.5 198.78 96.7C198.78 99.9 198.847 103.033 198.98 106.1C199.014 107.233 199.297 108.05 199.83 108.55C200.397 109.05 201.314 109.3 202.58 109.3Z" fill="#3A3C55"/>
<path d="M223.188 120.4C220.822 120.4 218.922 120.05 217.488 119.35C216.055 118.65 215.272 117.583 215.138 116.15C215.138 115.983 215.122 115.783 215.088 115.55C215.088 115.35 215.105 115.15 215.138 114.95C215.172 114.017 215.522 113.283 216.188 112.75C216.855 112.25 217.622 111.933 218.488 111.8V111.1C216.788 110.633 215.888 109.767 215.788 108.5C215.788 108.3 215.788 108.133 215.788 108C215.788 107.833 215.788 107.667 215.788 107.5C215.822 106.833 216.088 106.25 216.588 105.75C217.122 105.25 217.772 104.95 218.538 104.85V104.15C217.505 103.683 216.755 102.983 216.288 102.05C215.822 101.083 215.538 99.85 215.438 98.35C215.372 96.5833 215.338 94.9167 215.338 93.35C215.338 91.7833 215.372 90.0667 215.438 88.2C215.572 85.8333 216.205 84.15 217.338 83.15C218.505 82.1167 220.355 81.6 222.888 81.6C224.688 81.6 226.105 81.85 227.138 82.35C228.205 82.8167 228.988 83.5833 229.488 84.65H230.138C230.238 83.8167 230.588 83.1667 231.188 82.7C231.788 82.2333 232.572 82 233.538 82V85.15H232.988C232.188 85.15 231.538 85.4333 231.038 86C230.538 86.5667 230.288 87.45 230.288 88.65C230.355 90.4833 230.388 92.1833 230.388 93.75C230.388 95.3167 230.338 96.85 230.238 98.35C230.138 100.683 229.522 102.367 228.388 103.4C227.288 104.4 225.455 104.9 222.888 104.9C222.755 104.9 222.622 104.9 222.488 104.9C222.355 104.9 222.238 104.9 222.138 104.9C221.005 104.9 220.205 105.083 219.738 105.45C219.272 105.783 219.038 106.233 219.038 106.8V107.1C219.038 107.733 219.388 108.15 220.088 108.35C220.822 108.55 221.938 108.683 223.438 108.75C226.072 108.817 228.072 109.233 229.438 110C230.838 110.767 231.605 112.05 231.738 113.85C231.805 114.35 231.805 114.85 231.738 115.35C231.605 117.317 230.738 118.65 229.138 119.35C227.538 120.05 225.555 120.4 223.188 120.4ZM222.888 101.8C223.988 101.8 224.838 101.583 225.438 101.15C226.038 100.683 226.355 99.8667 226.388 98.7C226.455 96.9667 226.488 95.2333 226.488 93.5C226.488 91.7667 226.438 89.8667 226.338 87.8C226.305 86.6667 226.022 85.8833 225.488 85.45C224.955 84.9833 224.088 84.75 222.888 84.75C221.655 84.75 220.755 84.9833 220.188 85.45C219.622 85.9167 219.338 86.7333 219.338 87.9C219.272 89.9333 219.222 91.8 219.188 93.5C219.188 95.2 219.238 96.9333 219.338 98.7C219.372 99.8667 219.688 100.683 220.288 101.15C220.888 101.583 221.755 101.8 222.888 101.8ZM223.288 117.3C224.855 117.3 226.022 117.117 226.788 116.75C227.555 116.417 228.022 115.85 228.188 115.05C228.255 114.683 228.238 114.3 228.138 113.9C228.038 113.2 227.588 112.683 226.788 112.35C226.022 112.017 224.855 111.817 223.288 111.75C221.722 111.717 220.588 111.867 219.888 112.2C219.222 112.567 218.855 113.183 218.788 114.05C218.755 114.383 218.755 114.75 218.788 115.15C218.855 115.95 219.238 116.5 219.938 116.8C220.638 117.133 221.755 117.3 223.288 117.3Z" fill="#3A3C55"/>
<path d="M235.994 112V82H240.044V85H240.894C241.194 83.8333 241.694 83.0333 242.394 82.6C243.127 82.1333 244.11 81.9 245.344 81.9C245.644 81.9 245.944 81.9167 246.244 81.95C246.577 81.95 246.91 81.9667 247.244 82V85.1H245.394C243.86 85.1 242.66 85.35 241.794 85.85C240.96 86.3167 240.377 87.1667 240.044 88.4V112H235.994Z" fill="#3A3C55"/>
<path d="M254.712 112.3C251.079 112.3 249.129 110.35 248.862 106.45C248.829 106.017 248.795 105.6 248.762 105.2C248.762 104.767 248.779 104.333 248.812 103.9C248.912 102.133 249.379 100.633 250.212 99.4C251.045 98.1333 252.545 96.9667 254.712 95.9C255.512 95.5333 256.362 95.1667 257.262 94.8C258.162 94.4 259.062 94.05 259.962 93.75V87.8C259.962 86.7333 259.695 85.9667 259.162 85.5C258.662 85 257.829 84.75 256.662 84.75C255.662 84.75 254.862 84.95 254.262 85.35C253.662 85.75 253.345 86.4833 253.312 87.55C253.279 88.2833 253.262 89.1667 253.262 90.2C253.262 91.2 253.279 91.95 253.312 92.45H249.512C249.445 91.75 249.412 91.0167 249.412 90.25C249.412 89.4833 249.429 88.7667 249.462 88.1C249.529 85.8667 250.095 84.2333 251.162 83.2C252.262 82.1333 254.145 81.6 256.812 81.6C259.512 81.6 261.362 82.15 262.362 83.25C263.362 84.35 263.862 86.1333 263.862 88.6L263.812 112H259.862V109.25H259.312C258.879 110.217 258.329 110.967 257.662 111.5C256.995 112.033 256.012 112.3 254.712 112.3ZM255.912 109.35C257.812 109.35 259.145 108.417 259.912 106.55V96.95C259.212 97.1833 258.512 97.45 257.812 97.75C257.145 98.05 256.379 98.4667 255.512 99C254.412 99.6333 253.679 100.367 253.312 101.2C252.979 102 252.812 102.917 252.812 103.95C252.812 104.417 252.812 104.817 252.812 105.15C252.812 105.483 252.829 105.817 252.862 106.15C252.929 107.15 253.229 107.933 253.762 108.5C254.295 109.067 255.012 109.35 255.912 109.35Z" fill="#3A3C55"/>
<path d="M396.015 113.001H393.085L400.751 77.4541H403.681L396.015 113.001Z" fill="#3A3C55"/>
<path d="M408.148 105.555V102.356L419.066 95.2764L408.148 88.1963V84.998L423.266 94.0312V96.5215L408.148 105.555Z" fill="#3A3C55"/>
<path d="M269.197 112V82H273.147V84.75H273.947C274.48 83.75 275.08 82.9833 275.747 82.45C276.447 81.9167 277.464 81.65 278.797 81.65C281.43 81.65 283.08 82.7667 283.747 85H284.447C284.98 83.9667 285.647 83.15 286.447 82.55C287.247 81.95 288.314 81.65 289.647 81.65C291.38 81.65 292.68 82.15 293.547 83.15C294.414 84.1167 294.864 85.7167 294.897 87.95V112H290.897V87.65C290.897 86.5833 290.664 85.8167 290.197 85.35C289.73 84.8833 289.047 84.65 288.147 84.65C286.247 84.65 284.897 85.6 284.097 87.5V112H280.097V87.65C280.097 86.5833 279.864 85.8167 279.397 85.35C278.964 84.8833 278.28 84.65 277.347 84.65C275.28 84.65 273.88 85.6333 273.147 87.6V112H269.197Z" fill="#7550DD"/>
<path d="M307.61 112.35C304.91 112.35 302.993 111.817 301.86 110.75C300.76 109.65 300.16 107.85 300.06 105.35C299.993 103.983 299.943 102.317 299.91 100.35C299.876 98.3833 299.86 96.3667 299.86 94.3C299.893 92.2 299.96 90.3167 300.06 88.65C300.16 86.1167 300.76 84.3167 301.86 83.25C302.993 82.1833 304.91 81.65 307.61 81.65C310.343 81.65 312.26 82.2 313.36 83.3C314.46 84.3667 315.06 86.15 315.16 88.65C315.226 90.1833 315.276 91.9333 315.31 93.9C315.343 95.8333 315.343 97.8 315.31 99.8C315.31 101.8 315.26 103.65 315.16 105.35C315.06 107.85 314.46 109.65 313.36 110.75C312.26 111.817 310.343 112.35 307.61 112.35ZM307.61 109.3C308.943 109.3 309.86 109.05 310.36 108.55C310.893 108.05 311.176 107.267 311.21 106.2C311.31 103.167 311.36 100.133 311.36 97.1C311.393 94.0667 311.343 90.9667 311.21 87.8C311.176 86.7 310.893 85.9167 310.36 85.45C309.826 84.95 308.91 84.7 307.61 84.7C306.343 84.7 305.426 84.95 304.86 85.45C304.326 85.95 304.043 86.7667 304.01 87.9C303.876 90.5667 303.81 93.5 303.81 96.7C303.81 99.9 303.876 103.033 304.01 106.1C304.043 107.233 304.326 108.05 304.86 108.55C305.426 109.05 306.343 109.3 307.61 109.3Z" fill="#7550DD"/>
<path d="M331.072 72H335.122V112H331.072V109.25H330.372C329.806 110.283 329.139 111.067 328.372 111.6C327.606 112.1 326.572 112.35 325.272 112.35C323.439 112.35 322.089 111.867 321.222 110.9C320.356 109.9 319.872 108.283 319.772 106.05C319.739 104.217 319.706 102.233 319.672 100.1C319.672 97.9333 319.672 95.8 319.672 93.7C319.706 91.5667 319.739 89.65 319.772 87.95C319.839 85.65 320.356 84.0333 321.322 83.1C322.289 82.1333 323.639 81.65 325.372 81.65C326.672 81.65 327.689 81.9167 328.422 82.45C329.189 82.95 329.856 83.7167 330.422 84.75H331.072V72ZM326.672 109.35C327.706 109.35 328.606 109.117 329.372 108.65C330.139 108.183 330.706 107.433 331.072 106.4V87.6C330.706 86.5667 330.139 85.8167 329.372 85.35C328.606 84.8833 327.722 84.65 326.722 84.65C325.722 84.65 324.989 84.8833 324.522 85.35C324.089 85.8167 323.856 86.5667 323.822 87.6C323.756 89.6667 323.706 91.8167 323.672 94.05C323.672 96.2833 323.672 98.45 323.672 100.55C323.706 102.65 323.739 104.533 323.772 106.2C323.839 107.367 324.106 108.183 324.572 108.65C325.039 109.117 325.739 109.35 326.672 109.35Z" fill="#7550DD"/>
<path d="M348.137 112.35C345.437 112.35 343.52 111.817 342.387 110.75C341.287 109.65 340.687 107.85 340.587 105.35C340.52 103.983 340.47 102.317 340.437 100.35C340.404 98.3833 340.387 96.3667 340.387 94.3C340.42 92.2 340.487 90.3167 340.587 88.65C340.687 86.1167 341.287 84.3167 342.387 83.25C343.52 82.1833 345.437 81.65 348.137 81.65C350.87 81.65 352.787 82.2 353.887 83.3C354.987 84.3667 355.587 86.15 355.687 88.65C355.754 90.1833 355.804 91.9333 355.837 93.9C355.87 95.8333 355.87 97.8 355.837 99.8C355.837 101.8 355.787 103.65 355.687 105.35C355.587 107.85 354.987 109.65 353.887 110.75C352.787 111.817 350.87 112.35 348.137 112.35ZM348.137 109.3C349.47 109.3 350.387 109.05 350.887 108.55C351.42 108.05 351.704 107.267 351.737 106.2C351.837 103.167 351.887 100.133 351.887 97.1C351.92 94.0667 351.87 90.9667 351.737 87.8C351.704 86.7 351.42 85.9167 350.887 85.45C350.354 84.95 349.437 84.7 348.137 84.7C346.87 84.7 345.954 84.95 345.387 85.45C344.854 85.95 344.57 86.7667 344.537 87.9C344.404 90.5667 344.337 93.5 344.337 96.7C344.337 99.9 344.404 103.033 344.537 106.1C344.57 107.233 344.854 108.05 345.387 108.55C345.954 109.05 346.87 109.3 348.137 109.3Z" fill="#7550DD"/>
<path d="M360.603 112V82H364.653V85H365.503C365.803 83.8333 366.303 83.0333 367.003 82.6C367.736 82.1333 368.72 81.9 369.953 81.9C370.253 81.9 370.553 81.9167 370.853 81.95C371.186 81.95 371.52 81.9667 371.853 82V85.1H370.003C368.47 85.1 367.27 85.35 366.403 85.85C365.57 86.3167 364.986 87.1667 364.653 88.4V112H360.603Z" fill="#7550DD"/>
<path d="M381.926 112.35C379.226 112.35 377.31 111.817 376.176 110.75C375.076 109.65 374.476 107.85 374.376 105.35C374.31 103.983 374.259 102.317 374.226 100.35C374.193 98.3833 374.176 96.3667 374.176 94.3C374.21 92.2 374.276 90.3167 374.376 88.65C374.476 86.1167 375.076 84.3167 376.176 83.25C377.31 82.1833 379.226 81.65 381.926 81.65C384.66 81.65 386.576 82.2 387.676 83.3C388.776 84.3667 389.376 86.15 389.476 88.65C389.543 90.1833 389.593 91.9333 389.626 93.9C389.659 95.8333 389.659 97.8 389.626 99.8C389.626 101.8 389.576 103.65 389.476 105.35C389.376 107.85 388.776 109.65 387.676 110.75C386.576 111.817 384.66 112.35 381.926 112.35ZM381.926 109.3C383.26 109.3 384.176 109.05 384.676 108.55C385.21 108.05 385.493 107.267 385.526 106.2C385.626 103.167 385.676 100.133 385.676 97.1C385.71 94.0667 385.66 90.9667 385.526 87.8C385.493 86.7 385.21 85.9167 384.676 85.45C384.143 84.95 383.226 84.7 381.926 84.7C380.66 84.7 379.743 84.95 379.176 85.45C378.643 85.95 378.36 86.7667 378.326 87.9C378.193 90.5667 378.126 93.5 378.126 96.7C378.126 99.9 378.193 103.033 378.326 106.1C378.36 107.233 378.643 108.05 379.176 108.55C379.743 109.05 380.66 109.3 381.926 109.3Z" fill="#7550DD"/>
<path fill-rule="evenodd" clip-rule="evenodd" d="M42 185.5C42 185.224 42.2239 185 42.5 185H1411.5C1411.78 185 1412 185.224 1412 185.5C1412 185.776 1411.78 186 1411.5 186H42.5C42.2239 186 42 185.776 42 185.5Z" fill="#E1E1E6"/>
<g filter="url(#filter0_d_28_31)">
<path d="M897 562C897 660.307 817.307 740 719 740C620.693 740 541 660.307 541 562C541 463.693 620.693 384 719 384C817.307 384 897 463.693 897 562Z" fill="#E1E1E6"/>
</g>
<g filter="url(#filter1_d_28_31)">
<path d="M858 561C858 637.768 795.768 700 719 700C642.232 700 580 637.768 580 561C580 484.232 642.232 422 719 422C795.768 422 858 484.232 858 561Z" fill="#E1E1E6"/>
</g>
<path fill-rule="evenodd" clip-rule="evenodd" d="M796.71 689.259C768.416 706.421 735.242 713.744 702.353 710.086C669.464 706.428 638.707 691.996 614.871 669.036C612.485 666.737 612.414 662.939 614.713 660.552C617.011 658.166 620.81 658.094 623.196 660.393C645.125 681.517 673.422 694.795 703.679 698.16C733.937 701.525 764.457 694.788 790.487 678.999C816.517 663.21 836.596 639.254 847.597 610.862C858.599 582.47 859.904 551.236 851.31 522.023C842.717 492.811 824.706 467.26 800.084 449.35C775.462 431.44 745.61 422.176 715.178 423C711.865 423.09 709.107 420.477 709.018 417.165C708.928 413.852 711.541 411.094 714.853 411.005C747.932 410.109 780.38 420.179 807.143 439.646C833.906 459.113 853.482 486.885 862.822 518.637C872.163 550.388 870.744 584.337 858.787 615.198C846.829 646.058 825.004 672.097 796.71 689.259Z" fill="#754DE5"/>
<path d="M661.8 552.76L653.22 558.28L649.44 552.1L662.52 543.4H670.08V583H661.8V552.76Z" fill="#3A3C55"/>
<path d="M695.614 583.72C693.894 583.72 691.854 583.54 689.494 583.18C687.174 582.86 685.254 582.48 683.734 582.04L681.574 581.5L682.474 575.38C687.194 576.14 691.234 576.52 694.594 576.52C696.554 576.52 698.054 576 699.094 574.96C700.134 573.92 700.654 572.42 700.654 570.46C700.654 566.78 698.974 564.94 695.614 564.94C692.854 564.94 690.494 565.2 688.534 565.72L687.634 565.96L682.714 564.82L683.794 543.4H707.974V550.6H690.274L689.254 559.18C691.734 558.22 694.094 557.74 696.334 557.74C704.894 557.74 709.174 561.72 709.174 569.68C709.174 574.16 707.994 577.62 705.634 580.06C703.274 582.5 699.934 583.72 695.614 583.72Z" fill="#3A3C55"/>
<path d="M715.508 555.7H724.148V565.66H715.508V555.7ZM715.508 573.04H724.148V583H715.508V573.04Z" fill="#3A3C55"/>
<path d="M744.3 583.6C739.1 583.6 735.24 581.98 732.72 578.74C730.2 575.46 728.94 570.24 728.94 563.08C728.94 555.92 730.2 550.72 732.72 547.48C735.24 544.2 739.1 542.56 744.3 542.56C749.5 542.56 753.36 544.2 755.88 547.48C758.4 550.72 759.66 555.92 759.66 563.08C759.66 570.24 758.4 575.46 755.88 578.74C753.36 581.98 749.5 583.6 744.3 583.6ZM744.3 576.4C745.94 576.4 747.26 575.98 748.26 575.14C749.26 574.26 749.98 572.86 750.42 570.94C750.9 568.98 751.14 566.36 751.14 563.08C751.14 559.8 750.9 557.2 750.42 555.28C749.98 553.32 749.26 551.92 748.26 551.08C747.26 550.2 745.94 549.76 744.3 549.76C742.66 549.76 741.34 550.2 740.34 551.08C739.34 551.92 738.6 553.32 738.12 555.28C737.68 557.2 737.46 559.8 737.46 563.08C737.46 566.36 737.68 568.98 738.12 570.94C738.6 572.86 739.34 574.26 740.34 575.14C741.34 575.98 742.66 576.4 744.3 576.4Z" fill="#3A3C55"/>
<path d="M777.874 583.6C772.674 583.6 768.814 581.98 766.294 578.74C763.774 575.46 762.514 570.24 762.514 563.08C762.514 555.92 763.774 550.72 766.294 547.48C768.814 544.2 772.674 542.56 777.874 542.56C783.074 542.56 786.934 544.2 789.454 547.48C791.974 550.72 793.234 555.92 793.234 563.08C793.234 570.24 791.974 575.46 789.454 578.74C786.934 581.98 783.074 583.6 777.874 583.6ZM777.874 576.4C779.514 576.4 780.834 575.98 781.834 575.14C782.834 574.26 783.554 572.86 783.994 570.94C784.474 568.98 784.714 566.36 784.714 563.08C784.714 559.8 784.474 557.2 783.994 555.28C783.554 553.32 782.834 551.92 781.834 551.08C780.834 550.2 779.514 549.76 777.874 549.76C776.234 549.76 774.914 550.2 773.914 551.08C772.914 551.92 772.174 553.32 771.694 555.28C771.254 557.2 771.034 559.8 771.034 563.08C771.034 566.36 771.254 568.98 771.694 570.94C772.174 572.86 772.914 574.26 773.914 575.14C774.914 575.98 776.234 576.4 777.874 576.4Z" fill="#3A3C55"/>
<rect x="629" y="774" width="76" height="70" rx="35" fill="#754DE5"/>
<path d="M677.55 810.253L677.55 810.253C677.69 810.175 677.804 810.063 677.882 809.931C677.96 809.799 678 809.651 678 809.501C678 809.35 677.96 809.202 677.882 809.07C677.804 808.938 677.69 808.826 677.55 808.748L677.544 808.744L677.544 808.744L662.433 800.131L662.433 800.131C661.759 799.746 661 800.247 661 800.886V818.113C661 818.753 661.76 819.253 662.433 818.87L677.55 810.253ZM677.55 810.253L677.544 810.257L662.433 818.87L677.55 810.253Z" stroke="white" stroke-width="2"/>
<rect x="735" y="774" width="76" height="70" rx="35" fill="#E1E1E6"/>
<path d="M765.667 800H780.333C781.055 800 781.739 800.274 782.236 800.748C782.731 801.221 783 801.852 783 802.5V816.5C783 817.148 782.731 817.779 782.236 818.252C781.739 818.726 781.055 819 780.333 819H765.667C764.945 819 764.261 818.726 763.764 818.252C763.269 817.779 763 817.148 763 816.5V802.5C763 801.852 763.269 801.221 763.764 800.748C764.261 800.274 764.945 800 765.667 800Z" stroke="#3A3C55" stroke-width="2"/>
<rect x="1282" y="77" width="71" height="45" rx="22.5" fill="#E1E1E6"/>
<circle cx="1338.5" cy="99.5" r="23.5" fill="#754DE5"/>
<circle cx="1338.48" cy="98.7923" r="6.98919" fill="white" stroke="white" stroke-width="3"/>
<path d="M1338.82 87.9949L1338.82 84" stroke="white" stroke-width="3" stroke-linecap="round"/>
<path d="M1338.82 113.451L1338.82 109.457" stroke="white" stroke-width="3" stroke-linecap="round"/>
<path d="M1349.83 98.4482H1353.83" stroke="white" stroke-width="3" stroke-linecap="round"/>
<path d="M1323 98.4482H1326.99" stroke="white" stroke-width="3" stroke-linecap="round"/>
<path d="M1327.92 109.38L1330.78 106.585" stroke="white" stroke-width="3" stroke-linecap="round"/>
<path d="M1346.39 90.9412L1349.23 88.1281" stroke="white" stroke-width="3" stroke-linecap="round"/>
<path d="M1346.39 106.704L1349.22 109.529" stroke="white" stroke-width="3" stroke-linecap="round"/>
<path d="M1327.82 88.1281L1330.64 90.9529" stroke="white" stroke-width="3" stroke-linecap="round"/>
<defs>
<filter id="filter0_d_28_31" x="525" y="369" width="396" height="396" filterUnits="userSpaceOnUse" color-interpolation-filters="sRGB">
<feFlood flood-opacity="0" result="BackgroundImageFix"/>
<feColorMatrix in="SourceAlpha" type="matrix" values="0 0 0 0 0 0 0 0 0 0 0 0 0 0 0 0 0 0 127 0" result="hardAlpha"/>
<feOffset dx="4" dy="5"/>
<feGaussianBlur stdDeviation="10"/>
<feComposite in2="hardAlpha" operator="out"/>
<feColorMatrix type="matrix" values="0 0 0 0 0 0 0 0 0 0 0 0 0 0 0 0 0 0 0.46 0"/>
<feBlend mode="normal" in2="BackgroundImageFix" result="effect1_dropShadow_28_31"/>
<feBlend mode="normal" in="SourceGraphic" in2="effect1_dropShadow_28_31" result="shape"/>
</filter>
<filter id="filter1_d_28_31" x="564" y="407" width="318" height="318" filterUnits="userSpaceOnUse" color-interpolation-filters="sRGB">
<feFlood flood-opacity="0" result="BackgroundImageFix"/>
<feColorMatrix in="SourceAlpha" type="matrix" values="0 0 0 0 0 0 0 0 0 0 0 0 0 0 0 0 0 0 127 0" result="hardAlpha"/>
<feOffset dx="4" dy="5"/>
<feGaussianBlur stdDeviation="10"/>
<feComposite in2="hardAlpha" operator="out"/>
<feColorMatrix type="matrix" values="0 0 0 0 0 0 0 0 0 0 0 0 0 0 0 0 0 0 0.55 0"/>
<feBlend mode="normal" in2="BackgroundImageFix" result="effect1_dropShadow_28_31"/>
<feBlend mode="normal" in="SourceGraphic" in2="effect1_dropShadow_28_31" result="shape"/>
</filter>
</defs>
</svg>
