<svg width="1479" height="1105" viewBox="0 0 1479 1105" fill="none" xmlns="http://www.w3.org/2000/svg">
<g filter="url(#filter0_d_20_48)">
<path d="M60 73.4783C60 55.541 74.5405 41 92.4771 41H1168.18C1186.12 41 1200.66 55.541 1200.66 73.4783V819.687C1200.66 837.624 1186.12 852.166 1168.18 852.166H92.4772C74.5405 852.166 60 837.624 60 819.687V73.4783Z" fill="#FBFBFB"/>
</g>
<rect x="830.531" y="452.003" width="61.7692" height="57.0177" rx="17" fill="#7550DD"/>
<path d="M860.23 483.183C860.23 482.631 859.782 482.183 859.23 482.183H855.288C854.736 482.183 854.288 481.736 854.288 481.183V480.456C854.288 479.904 854.736 479.456 855.288 479.456H859.23C859.782 479.456 860.23 479.008 860.23 478.456V474.384C860.23 473.832 860.678 473.384 861.23 473.384H862.022C862.574 473.384 863.022 473.832 863.022 474.384V478.456C863.022 479.008 863.47 479.456 864.022 479.456H868.029C868.581 479.456 869.029 479.904 869.029 480.456V481.183C869.029 481.736 868.581 482.183 868.029 482.183H864.022C863.47 482.183 863.022 482.631 863.022 483.183V487.32C863.022 487.872 862.574 488.32 862.022 488.32H861.23C860.678 488.32 860.23 487.872 860.23 487.32V483.183Z" fill="white"/>
<rect x="367.262" y="452.003" width="61.7692" height="57.0177" rx="17" fill="#E1E1E6"/>
<path d="M391.811 479.928C391.811 479.375 392.259 478.928 392.811 478.928H403.482C404.034 478.928 404.482 479.375 404.482 479.928V481.095C404.482 481.648 404.034 482.095 403.482 482.095H392.811C392.259 482.095 391.811 481.648 391.811 481.095V479.928Z" fill="#3A3C55"/>
<rect x="486.049" y="257.984" width="60.1854" height="55.4339" rx="17" fill="#E1E1E6"/>
<path d="M484.645 292.51V291.045H489.783V286.651H487.681C486.389 286.651 485.287 286.176 484.377 285.224C483.466 284.272 483.01 283.12 483.01 281.77C483.01 280.793 483.267 279.894 483.781 279.073C484.295 278.251 484.988 277.653 485.86 277.278C486 276.058 486.51 275.037 487.389 274.215C488.269 273.393 489.301 272.982 490.484 272.982C491.667 272.982 492.699 273.393 493.578 274.215C494.458 275.037 494.968 276.058 495.108 277.278C495.98 277.653 496.673 278.251 497.187 279.073C497.701 279.894 497.958 280.793 497.958 281.77C497.958 283.12 497.502 284.272 496.591 285.224C495.68 286.176 494.579 286.651 493.287 286.651H491.185V291.045H496.556V292.51H484.645ZM487.681 285.187H493.287C494.19 285.187 494.96 284.853 495.599 284.186C496.237 283.519 496.556 282.714 496.556 281.77C496.556 281.086 496.369 280.464 495.996 279.902C495.622 279.341 495.139 278.922 494.548 278.645L493.8 278.304L493.707 277.449C493.598 276.587 493.24 275.871 492.633 275.301C492.025 274.732 491.309 274.447 490.484 274.447C489.659 274.447 488.942 274.732 488.335 275.301C487.728 275.871 487.37 276.587 487.261 277.449L487.167 278.304L486.42 278.645C485.828 278.922 485.346 279.341 484.972 279.902C484.598 280.464 484.412 281.086 484.412 281.77C484.412 282.714 484.731 283.519 485.369 284.186C486.008 284.853 486.778 285.187 487.681 285.187Z" fill="#3A3C55"/>
<rect x="562.073" y="257.984" width="60.1854" height="55.4339" rx="17" fill="#7550DD"/>
<path d="M556.85 288.79C556.641 288.79 556.458 288.709 556.301 288.546C556.144 288.383 556.065 288.194 556.065 287.977C556.065 287.76 556.144 287.57 556.301 287.407C556.458 287.244 556.641 287.163 556.85 287.163C557.059 287.163 557.242 287.244 557.399 287.407C557.556 287.57 557.635 287.76 557.635 287.977C557.635 288.194 557.556 288.383 557.399 288.546C557.242 288.709 557.059 288.79 556.85 288.79ZM567.612 288.79C567.403 288.79 567.22 288.709 567.063 288.546C566.906 288.383 566.827 288.194 566.827 287.977C566.827 287.76 566.906 287.57 567.063 287.407C567.22 287.244 567.403 287.163 567.612 287.163C567.821 287.163 568.004 287.244 568.161 287.407C568.318 287.57 568.397 287.76 568.397 287.977C568.397 288.194 568.318 288.383 568.161 288.546C568.004 288.709 567.821 288.79 567.612 288.79ZM559.54 292.51C559.331 292.51 559.148 292.428 558.991 292.266C558.834 292.103 558.756 291.913 558.756 291.696C558.756 291.479 558.834 291.289 558.991 291.126C559.148 290.964 559.331 290.882 559.54 290.882C559.75 290.882 559.933 290.964 560.09 291.126C560.247 291.289 560.325 291.479 560.325 291.696C560.325 291.913 560.247 292.103 560.09 292.266C559.933 292.428 559.75 292.51 559.54 292.51ZM562.231 288.79C562.022 288.79 561.839 288.709 561.682 288.546C561.525 288.383 561.446 288.194 561.446 287.977C561.446 287.76 561.525 287.57 561.682 287.407C561.839 287.244 562.022 287.163 562.231 287.163C562.44 287.163 562.623 287.244 562.78 287.407C562.937 287.57 563.016 287.76 563.016 287.977C563.016 288.194 562.937 288.383 562.78 288.546C562.623 288.709 562.44 288.79 562.231 288.79ZM564.922 292.51C564.712 292.51 564.529 292.428 564.372 292.266C564.215 292.103 564.137 291.913 564.137 291.696C564.137 291.479 564.215 291.289 564.372 291.126C564.529 290.964 564.712 290.882 564.922 290.882C565.131 290.882 565.314 290.964 565.471 291.126C565.628 291.289 565.706 291.479 565.706 291.696C565.706 291.913 565.628 292.103 565.471 292.266C565.314 292.428 565.131 292.51 564.922 292.51ZM557.971 285.536C556.671 285.536 555.561 285.059 554.641 284.106C553.722 283.153 553.263 282.002 553.263 280.654C553.263 279.43 553.685 278.337 554.529 277.376C555.374 276.415 556.424 275.888 557.68 275.795C558.158 274.927 558.789 274.242 559.574 273.738C560.359 273.234 561.244 272.982 562.231 272.982C563.591 272.982 564.731 273.428 565.65 274.319C566.569 275.21 567.134 276.314 567.343 277.632C568.524 277.694 569.462 278.108 570.157 278.875C570.852 279.643 571.199 280.545 571.199 281.584C571.199 282.669 570.829 283.598 570.09 284.373C569.35 285.148 568.449 285.536 567.388 285.536H557.971ZM557.971 284.141H567.388C568.075 284.141 568.658 283.889 569.137 283.385C569.615 282.882 569.854 282.273 569.854 281.56C569.854 280.863 569.615 280.266 569.137 279.77C568.658 279.275 568.075 279.027 567.388 279.027H566.043V278.329C566.043 277.229 565.673 276.295 564.933 275.528C564.193 274.761 563.292 274.377 562.231 274.377C561.469 274.377 560.77 274.59 560.135 275.017C559.499 275.443 559.032 276.02 558.733 276.748L558.554 277.167H557.926C556.999 277.198 556.215 277.55 555.572 278.225C554.929 278.899 554.608 279.708 554.608 280.654C554.608 281.615 554.937 282.436 555.594 283.118C556.252 283.8 557.044 284.141 557.971 284.141Z" fill="white"/>
<rect x="638.096" y="257.984" width="60.1854" height="55.4339" rx="17" fill="#E1E1E6"/>
<path d="M627.228 284.288C627.228 285.367 627.461 286.382 627.927 287.332C628.393 288.283 629.043 289.075 629.877 289.709C629.811 289.503 629.762 289.294 629.73 289.08C629.697 288.865 629.681 288.656 629.681 288.45C629.681 287.902 629.779 287.388 629.975 286.908C630.171 286.429 630.457 285.992 630.833 285.598L633.604 282.746L636.375 285.598C636.751 285.992 637.038 286.429 637.234 286.908C637.43 287.388 637.528 287.902 637.528 288.45C637.528 288.656 637.512 288.865 637.479 289.08C637.446 289.294 637.397 289.503 637.332 289.709C638.166 289.075 638.815 288.283 639.281 287.332C639.747 286.382 639.98 285.367 639.98 284.288C639.98 283.363 639.792 282.459 639.416 281.577C639.04 280.695 638.501 279.885 637.798 279.149C637.454 279.406 637.095 279.607 636.719 279.753C636.343 279.898 635.967 279.971 635.591 279.971C634.593 279.971 633.768 279.616 633.114 278.905C632.46 278.194 632.133 277.299 632.133 276.22V275.706C631.381 276.271 630.702 276.896 630.098 277.582C629.493 278.267 628.978 278.982 628.553 279.727C628.128 280.472 627.801 281.234 627.572 282.014C627.343 282.793 627.228 283.551 627.228 284.288ZM633.604 284.904L631.863 286.703C631.634 286.943 631.459 287.208 631.336 287.499C631.213 287.791 631.152 288.107 631.152 288.45C631.152 289.152 631.389 289.748 631.863 290.236C632.337 290.724 632.918 290.968 633.604 290.968C634.291 290.968 634.871 290.724 635.345 290.236C635.82 289.748 636.057 289.152 636.057 288.45C636.057 288.107 635.995 287.791 635.873 287.499C635.75 287.208 635.574 286.943 635.345 286.703L633.604 284.904ZM633.604 272.982V276.374C633.604 276.956 633.796 277.445 634.181 277.839C634.565 278.233 635.035 278.43 635.591 278.43C635.885 278.43 636.159 278.365 636.412 278.237C636.666 278.108 636.89 277.916 637.087 277.659L637.528 277.093C638.738 277.813 639.694 278.815 640.397 280.1C641.1 281.384 641.452 282.78 641.452 284.288C641.452 286.583 640.691 288.527 639.171 290.12C637.651 291.713 635.795 292.51 633.604 292.51C631.414 292.51 629.558 291.713 628.038 290.12C626.517 288.527 625.757 286.583 625.757 284.288C625.757 282.095 626.46 279.984 627.866 277.954C629.272 275.924 631.185 274.267 633.604 272.982Z" fill="#3A3C55"/>
<rect x="714.12" y="257.984" width="60.1854" height="55.4339" rx="17" fill="#E1E1E6"/>
<path d="M713.72 281.688V290.882C713.72 291.316 713.581 291.696 713.302 292.021C713.023 292.347 712.697 292.51 712.326 292.51H698.358C697.986 292.51 697.661 292.347 697.382 292.021C697.103 291.696 696.964 291.316 696.964 290.882V281.688C696.53 281.254 696.243 280.721 696.104 280.088C695.964 279.455 695.98 278.823 696.15 278.19L697.15 274.528C697.274 274.04 697.49 273.661 697.8 273.389C698.11 273.118 698.467 272.982 698.869 272.982H711.721C712.155 272.982 712.535 273.123 712.86 273.403C713.185 273.683 713.41 274.058 713.534 274.528L714.557 278.19C714.727 278.823 714.739 279.455 714.592 280.088C714.444 280.721 714.154 281.254 713.72 281.688ZM707.445 280.848C707.894 280.848 708.274 280.676 708.584 280.332C708.894 279.989 709.018 279.573 708.956 279.085L708.375 274.61H706.051V279.085C706.051 279.555 706.182 279.966 706.446 280.319C706.709 280.671 707.042 280.848 707.445 280.848ZM703.099 280.848C703.533 280.848 703.901 280.676 704.203 280.332C704.505 279.989 704.656 279.573 704.656 279.085V274.61H702.332L701.751 279.085C701.689 279.555 701.798 279.966 702.077 280.319C702.355 280.671 702.696 280.848 703.099 280.848ZM698.869 280.848C699.241 280.848 699.563 280.698 699.834 280.4C700.105 280.102 700.264 279.736 700.31 279.302L700.915 274.61H698.59L697.521 278.569C697.366 279.13 697.428 279.65 697.707 280.129C697.986 280.608 698.374 280.848 698.869 280.848ZM711.814 280.848C712.31 280.848 712.701 280.613 712.988 280.142C713.275 279.672 713.34 279.148 713.185 278.569L712.116 274.61H709.792L710.397 279.302C710.443 279.736 710.602 280.102 710.873 280.4C711.144 280.698 711.458 280.848 711.814 280.848ZM698.358 290.882H712.326V282.448C712.341 282.466 712.291 282.475 712.175 282.475C712.058 282.475 711.938 282.475 711.814 282.475C711.427 282.475 711.059 282.38 710.71 282.19C710.362 282 710.017 281.706 709.676 281.309C709.428 281.67 709.118 281.955 708.747 282.163C708.375 282.371 707.964 282.475 707.515 282.475C707.05 282.475 706.651 282.398 706.318 282.244C705.985 282.091 705.663 281.833 705.353 281.471C705.121 281.797 704.827 282.045 704.47 282.217C704.114 282.389 703.711 282.475 703.262 282.475C702.782 282.475 702.355 282.375 701.984 282.177C701.612 281.978 701.294 281.688 701.031 281.309C700.659 281.688 700.295 281.978 699.938 282.177C699.582 282.375 699.226 282.475 698.869 282.475C698.761 282.475 698.656 282.475 698.556 282.475C698.455 282.475 698.389 282.466 698.358 282.448V290.882ZM712.326 290.882H698.358C698.389 290.882 698.455 290.882 698.556 290.882C698.656 290.882 698.761 290.882 698.869 290.882C699.133 290.882 699.447 290.882 699.811 290.882C700.175 290.882 700.581 290.882 701.031 290.882C701.17 290.882 701.325 290.882 701.496 290.882C701.666 290.882 701.848 290.882 702.042 290.882C702.235 290.882 702.433 290.882 702.634 290.882C702.836 290.882 703.045 290.882 703.262 290.882C703.432 290.882 703.61 290.882 703.796 290.882C703.982 290.882 704.168 290.882 704.354 290.882C704.54 290.882 704.718 290.882 704.889 290.882C705.059 290.882 705.214 290.882 705.353 290.882C705.694 290.882 706.035 290.882 706.376 290.882C706.717 290.882 707.096 290.882 707.515 290.882C707.732 290.882 707.945 290.882 708.154 290.882C708.363 290.882 708.561 290.882 708.747 290.882C708.932 290.882 709.103 290.882 709.258 290.882C709.413 290.882 709.552 290.882 709.676 290.882C710.033 290.882 710.389 290.882 710.745 290.882C711.102 290.882 711.458 290.882 711.814 290.882C711.938 290.882 712.058 290.882 712.175 290.882C712.291 290.882 712.341 290.882 712.326 290.882Z" fill="#3A3C55"/>
<path d="M170.6 117.437V115.465L182.572 108.311V110.844L173.926 116.451L182.572 122.057V124.59L170.6 117.437Z" fill="#3A3C55"/>
<path d="M187.57 137.613V105.937H190.777V108.115H191.332C191.781 107.296 192.282 106.689 192.836 106.293C193.417 105.871 194.249 105.66 195.331 105.66C196.756 105.66 197.825 106.056 198.538 106.848C199.251 107.613 199.647 108.88 199.726 110.649C199.752 111.467 199.766 112.51 199.766 113.777C199.792 115.044 199.805 116.39 199.805 117.816C199.805 119.215 199.792 120.561 199.766 121.854C199.766 123.121 199.752 124.164 199.726 124.982C199.647 126.751 199.225 128.031 198.459 128.823C197.694 129.589 196.598 129.971 195.173 129.971C194.275 129.971 193.523 129.787 192.916 129.417C192.335 129.021 191.807 128.388 191.332 127.516H190.777V137.613H187.57ZM194.104 127.596C194.895 127.596 195.489 127.411 195.885 127.041C196.281 126.672 196.492 126.065 196.519 125.22C196.598 123.029 196.638 121.142 196.638 119.558C196.664 117.948 196.664 116.43 196.638 115.004C196.611 113.579 196.572 112.035 196.519 110.372C196.492 109.553 196.308 108.959 195.965 108.59C195.621 108.22 195.054 108.035 194.262 108.035C192.493 108.035 191.332 108.814 190.777 110.372V125.26C191.094 126.131 191.517 126.738 192.045 127.081C192.572 127.424 193.259 127.596 194.104 127.596Z" fill="#3A3C55"/>
<path d="M203.54 129.694V105.937H206.747V108.313H207.42C207.658 107.389 208.054 106.755 208.608 106.412C209.189 106.042 209.968 105.858 210.944 105.858C211.182 105.858 211.419 105.871 211.657 105.897C211.921 105.897 212.185 105.91 212.449 105.937V108.392H210.984C209.77 108.392 208.819 108.59 208.133 108.986C207.473 109.355 207.011 110.028 206.747 111.005V129.694H203.54Z" fill="#3A3C55"/>
<path d="M220.426 129.971C218.288 129.971 216.77 129.549 215.872 128.704C215.001 127.833 214.526 126.408 214.447 124.428C214.394 123.346 214.355 122.026 214.328 120.468C214.302 118.911 214.289 117.314 214.289 115.677C214.315 114.014 214.368 112.523 214.447 111.203C214.526 109.197 215.001 107.771 215.872 106.927C216.77 106.082 218.288 105.66 220.426 105.66C222.591 105.66 224.108 106.095 224.979 106.966C225.851 107.811 226.326 109.223 226.405 111.203C226.458 112.417 226.497 113.803 226.524 115.361C226.55 116.892 226.55 118.449 226.524 120.033C226.524 121.617 226.484 123.082 226.405 124.428C226.326 126.408 225.851 127.833 224.979 128.704C224.108 129.549 222.591 129.971 220.426 129.971ZM220.426 127.556C221.482 127.556 222.208 127.358 222.604 126.962C223.026 126.566 223.25 125.946 223.277 125.101C223.356 122.699 223.396 120.297 223.396 117.895C223.422 115.493 223.382 113.038 223.277 110.53C223.25 109.659 223.026 109.038 222.604 108.669C222.181 108.273 221.455 108.075 220.426 108.075C219.423 108.075 218.697 108.273 218.248 108.669C217.826 109.065 217.601 109.712 217.575 110.609C217.469 112.721 217.417 115.044 217.417 117.578C217.417 120.112 217.469 122.593 217.575 125.022C217.601 125.919 217.826 126.566 218.248 126.962C218.697 127.358 219.423 127.556 220.426 127.556Z" fill="#3A3C55"/>
<path d="M236.746 136.346C234.871 136.346 233.367 136.069 232.232 135.515C231.097 134.96 230.476 134.116 230.371 132.981C230.371 132.849 230.357 132.69 230.331 132.506C230.331 132.347 230.344 132.189 230.371 132.03C230.397 131.291 230.674 130.711 231.202 130.288C231.73 129.892 232.337 129.641 233.024 129.536V128.981C231.677 128.612 230.965 127.926 230.885 126.923C230.885 126.764 230.885 126.632 230.885 126.527C230.885 126.395 230.885 126.263 230.885 126.131C230.912 125.603 231.123 125.141 231.519 124.745C231.941 124.349 232.456 124.111 233.063 124.032V123.478C232.245 123.108 231.651 122.554 231.281 121.815C230.912 121.049 230.687 120.072 230.608 118.885C230.555 117.486 230.529 116.166 230.529 114.925C230.529 113.684 230.555 112.325 230.608 110.847C230.714 108.972 231.215 107.639 232.113 106.848C233.037 106.029 234.502 105.62 236.508 105.62C237.933 105.62 239.055 105.818 239.874 106.214C240.718 106.584 241.339 107.191 241.735 108.035H242.249C242.329 107.375 242.606 106.861 243.081 106.491C243.556 106.122 244.176 105.937 244.942 105.937V108.431H244.506C243.873 108.431 243.358 108.656 242.962 109.104C242.566 109.553 242.368 110.253 242.368 111.203C242.421 112.655 242.447 114.001 242.447 115.242C242.447 116.482 242.408 117.697 242.329 118.885C242.249 120.732 241.761 122.065 240.863 122.884C239.992 123.676 238.541 124.072 236.508 124.072C236.402 124.072 236.297 124.072 236.191 124.072C236.086 124.072 235.993 124.072 235.914 124.072C235.017 124.072 234.383 124.217 234.013 124.507C233.644 124.771 233.459 125.128 233.459 125.576V125.814C233.459 126.315 233.736 126.645 234.291 126.804C234.871 126.962 235.756 127.068 236.944 127.12C239.029 127.173 240.613 127.503 241.695 128.11C242.804 128.718 243.411 129.734 243.516 131.159C243.569 131.555 243.569 131.951 243.516 132.347C243.411 133.905 242.724 134.96 241.457 135.515C240.19 136.069 238.62 136.346 236.746 136.346ZM236.508 121.617C237.379 121.617 238.052 121.445 238.527 121.102C239.002 120.732 239.253 120.086 239.28 119.162C239.332 117.789 239.359 116.416 239.359 115.044C239.359 113.671 239.319 112.167 239.24 110.53C239.214 109.632 238.989 109.012 238.567 108.669C238.145 108.299 237.458 108.115 236.508 108.115C235.531 108.115 234.819 108.299 234.37 108.669C233.921 109.038 233.697 109.685 233.697 110.609C233.644 112.219 233.604 113.698 233.578 115.044C233.578 116.39 233.617 117.763 233.697 119.162C233.723 120.086 233.974 120.732 234.449 121.102C234.924 121.445 235.61 121.617 236.508 121.617ZM236.825 133.891C238.065 133.891 238.989 133.746 239.596 133.456C240.204 133.192 240.573 132.743 240.705 132.11C240.758 131.819 240.745 131.516 240.666 131.199C240.586 130.645 240.23 130.235 239.596 129.971C238.989 129.707 238.065 129.549 236.825 129.496C235.584 129.47 234.687 129.589 234.132 129.853C233.604 130.143 233.314 130.631 233.261 131.318C233.235 131.582 233.235 131.872 233.261 132.189C233.314 132.822 233.617 133.258 234.172 133.495C234.726 133.759 235.61 133.891 236.825 133.891Z" fill="#3A3C55"/>
<path d="M246.886 129.694V105.937H250.094V108.313H250.767C251.004 107.389 251.4 106.755 251.955 106.412C252.535 106.042 253.314 105.858 254.291 105.858C254.528 105.858 254.766 105.871 255.003 105.897C255.267 105.897 255.531 105.91 255.795 105.937V108.392H254.33C253.116 108.392 252.166 108.59 251.479 108.986C250.82 109.355 250.358 110.028 250.094 111.005V129.694H246.886Z" fill="#3A3C55"/>
<path d="M261.71 129.932C258.832 129.932 257.288 128.388 257.077 125.299C257.051 124.956 257.024 124.626 256.998 124.309C256.998 123.966 257.011 123.623 257.037 123.28C257.117 121.881 257.486 120.693 258.146 119.716C258.806 118.713 259.994 117.789 261.71 116.944C262.343 116.654 263.016 116.364 263.729 116.073C264.442 115.757 265.154 115.479 265.867 115.242V110.53C265.867 109.685 265.656 109.078 265.234 108.709C264.838 108.313 264.178 108.115 263.254 108.115C262.462 108.115 261.828 108.273 261.353 108.59C260.878 108.907 260.627 109.487 260.601 110.332C260.575 110.913 260.561 111.612 260.561 112.431C260.561 113.222 260.575 113.816 260.601 114.212H257.592C257.539 113.658 257.513 113.077 257.513 112.47C257.513 111.863 257.526 111.295 257.552 110.767C257.605 108.999 258.054 107.705 258.898 106.887C259.769 106.042 261.261 105.62 263.373 105.62C265.511 105.62 266.976 106.056 267.768 106.927C268.56 107.798 268.956 109.21 268.956 111.163L268.916 129.694H265.788V127.516H265.352C265.009 128.282 264.574 128.876 264.046 129.298C263.518 129.721 262.739 129.932 261.71 129.932ZM262.66 127.596C264.165 127.596 265.22 126.857 265.828 125.378V117.776C265.273 117.961 264.719 118.172 264.165 118.409C263.637 118.647 263.03 118.977 262.343 119.399C261.472 119.901 260.891 120.482 260.601 121.142C260.337 121.775 260.205 122.501 260.205 123.319C260.205 123.689 260.205 124.006 260.205 124.27C260.205 124.534 260.218 124.798 260.245 125.062C260.297 125.853 260.535 126.474 260.957 126.923C261.38 127.371 261.947 127.596 262.66 127.596Z" fill="#3A3C55"/>
<path d="M373.609 130.487H371.289L377.36 102.337H379.68L373.609 130.487Z" fill="#3A3C55"/>
<path d="M383.218 124.59V122.057L391.864 116.451L383.218 110.844V108.311L395.189 115.465V117.437L383.218 124.59Z" fill="#3A3C55"/>
<path d="M273.18 129.694V105.937H276.308V108.115H276.942C277.364 107.323 277.839 106.716 278.367 106.293C278.922 105.871 279.727 105.66 280.783 105.66C282.868 105.66 284.175 106.544 284.703 108.313H285.257C285.679 107.494 286.207 106.848 286.841 106.372C287.474 105.897 288.319 105.66 289.375 105.66C290.748 105.66 291.777 106.056 292.463 106.848C293.15 107.613 293.506 108.88 293.532 110.649V129.694H290.365V110.411C290.365 109.566 290.18 108.959 289.81 108.59C289.441 108.22 288.9 108.035 288.187 108.035C286.682 108.035 285.613 108.788 284.98 110.292V129.694H281.812V110.411C281.812 109.566 281.627 108.959 281.258 108.59C280.915 108.22 280.374 108.035 279.634 108.035C277.998 108.035 276.889 108.814 276.308 110.372V129.694H273.18Z" fill="#7550DD"/>
<path d="M303.6 129.971C301.462 129.971 299.944 129.549 299.046 128.704C298.175 127.833 297.7 126.408 297.621 124.428C297.568 123.346 297.529 122.026 297.502 120.468C297.476 118.911 297.463 117.314 297.463 115.677C297.489 114.014 297.542 112.523 297.621 111.203C297.7 109.197 298.175 107.771 299.046 106.927C299.944 106.082 301.462 105.66 303.6 105.66C305.765 105.66 307.282 106.095 308.153 106.966C309.025 107.811 309.5 109.223 309.579 111.203C309.632 112.417 309.671 113.803 309.698 115.361C309.724 116.892 309.724 118.449 309.698 120.033C309.698 121.617 309.658 123.082 309.579 124.428C309.5 126.408 309.025 127.833 308.153 128.704C307.282 129.549 305.765 129.971 303.6 129.971ZM303.6 127.556C304.656 127.556 305.382 127.358 305.778 126.962C306.2 126.566 306.424 125.946 306.451 125.101C306.53 122.699 306.57 120.297 306.57 117.895C306.596 115.493 306.556 113.038 306.451 110.53C306.424 109.659 306.2 109.039 305.778 108.669C305.355 108.273 304.629 108.075 303.6 108.075C302.597 108.075 301.871 108.273 301.422 108.669C301 109.065 300.775 109.712 300.749 110.609C300.643 112.721 300.591 115.044 300.591 117.578C300.591 120.112 300.643 122.593 300.749 125.022C300.775 125.919 301 126.566 301.422 126.962C301.871 127.358 302.597 127.556 303.6 127.556Z" fill="#7550DD"/>
<path d="M322.18 98.0177H325.387V129.694H322.18V127.516H321.626C321.177 128.335 320.649 128.955 320.042 129.377C319.435 129.773 318.617 129.971 317.587 129.971C316.135 129.971 315.066 129.589 314.38 128.823C313.694 128.031 313.311 126.751 313.232 124.982C313.205 123.531 313.179 121.96 313.152 120.27C313.152 118.555 313.152 116.865 313.152 115.202C313.179 113.513 313.205 111.995 313.232 110.649C313.284 108.827 313.694 107.547 314.459 106.808C315.225 106.042 316.294 105.66 317.666 105.66C318.696 105.66 319.501 105.871 320.082 106.293C320.689 106.689 321.217 107.296 321.665 108.115H322.18V98.0177ZM318.696 127.596C319.514 127.596 320.227 127.411 320.834 127.041C321.441 126.672 321.89 126.078 322.18 125.26V110.372C321.89 109.553 321.441 108.959 320.834 108.59C320.227 108.22 319.527 108.035 318.735 108.035C317.943 108.035 317.363 108.22 316.993 108.59C316.65 108.959 316.465 109.553 316.439 110.372C316.386 112.008 316.346 113.711 316.32 115.479C316.32 117.248 316.32 118.964 316.32 120.627C316.346 122.29 316.373 123.781 316.399 125.101C316.452 126.025 316.663 126.672 317.033 127.041C317.402 127.411 317.957 127.596 318.696 127.596Z" fill="#7550DD"/>
<path d="M335.694 129.971C333.556 129.971 332.038 129.549 331.141 128.704C330.269 127.833 329.794 126.408 329.715 124.428C329.662 123.346 329.623 122.026 329.596 120.468C329.57 118.911 329.557 117.314 329.557 115.677C329.583 114.014 329.636 112.523 329.715 111.203C329.794 109.197 330.269 107.771 331.141 106.927C332.038 106.082 333.556 105.66 335.694 105.66C337.859 105.66 339.376 106.095 340.248 106.966C341.119 107.811 341.594 109.223 341.673 111.203C341.726 112.417 341.765 113.803 341.792 115.361C341.818 116.892 341.818 118.449 341.792 120.033C341.792 121.617 341.752 123.082 341.673 124.428C341.594 126.408 341.119 127.833 340.248 128.704C339.376 129.549 337.859 129.971 335.694 129.971ZM335.694 127.556C336.75 127.556 337.476 127.358 337.872 126.962C338.294 126.566 338.519 125.946 338.545 125.101C338.624 122.699 338.664 120.297 338.664 117.895C338.69 115.493 338.651 113.038 338.545 110.53C338.519 109.659 338.294 109.039 337.872 108.669C337.449 108.273 336.724 108.075 335.694 108.075C334.691 108.075 333.965 108.273 333.516 108.669C333.094 109.065 332.87 109.712 332.843 110.609C332.738 112.721 332.685 115.044 332.685 117.578C332.685 120.112 332.738 122.593 332.843 125.022C332.87 125.919 333.094 126.566 333.516 126.962C333.965 127.358 334.691 127.556 335.694 127.556Z" fill="#7550DD"/>
<path d="M345.566 129.694V105.937H348.773V108.313H349.446C349.684 107.389 350.08 106.755 350.634 106.412C351.215 106.042 351.994 105.858 352.97 105.858C353.208 105.858 353.446 105.871 353.683 105.897C353.947 105.897 354.211 105.91 354.475 105.937V108.392H353.01C351.796 108.392 350.845 108.59 350.159 108.986C349.499 109.355 349.037 110.028 348.773 111.005V129.694H345.566Z" fill="#7550DD"/>
<path d="M362.452 129.971C360.314 129.971 358.796 129.549 357.899 128.704C357.027 127.833 356.552 126.408 356.473 124.428C356.42 123.346 356.381 122.026 356.354 120.468C356.328 118.911 356.315 117.314 356.315 115.677C356.341 114.014 356.394 112.523 356.473 111.203C356.552 109.197 357.027 107.771 357.899 106.927C358.796 106.082 360.314 105.66 362.452 105.66C364.617 105.66 366.134 106.095 367.006 106.966C367.877 107.811 368.352 109.223 368.431 111.203C368.484 112.417 368.523 113.803 368.55 115.361C368.576 116.892 368.576 118.449 368.55 120.033C368.55 121.617 368.51 123.082 368.431 124.428C368.352 126.408 367.877 127.833 367.006 128.704C366.134 129.549 364.617 129.971 362.452 129.971ZM362.452 127.556C363.508 127.556 364.234 127.358 364.63 126.962C365.052 126.566 365.277 125.946 365.303 125.101C365.382 122.699 365.422 120.297 365.422 117.895C365.448 115.493 365.409 113.038 365.303 110.53C365.277 109.659 365.052 109.039 364.63 108.669C364.207 108.273 363.482 108.075 362.452 108.075C361.449 108.075 360.723 108.273 360.274 108.669C359.852 109.065 359.628 109.712 359.601 110.609C359.496 112.721 359.443 115.044 359.443 117.578C359.443 120.112 359.496 122.593 359.601 125.022C359.628 125.919 359.852 126.566 360.274 126.962C360.723 127.358 361.449 127.556 362.452 127.556Z" fill="#7550DD"/>
<path fill-rule="evenodd" clip-rule="evenodd" d="M93.2604 187.9C93.2604 187.681 93.4377 187.504 93.6564 187.504H1177.78C1178 187.504 1178.18 187.681 1178.18 187.9C1178.18 188.118 1178 188.296 1177.78 188.296H93.6564C93.4377 188.296 93.2604 188.118 93.2604 187.9Z" fill="#E1E1E6"/>
<g filter="url(#filter1_d_20_48)">
<path d="M770.346 486.055C770.346 563.905 707.235 627.015 629.385 627.015C551.535 627.015 488.425 563.905 488.425 486.055C488.425 408.205 551.535 345.094 629.385 345.094C707.235 345.094 770.346 408.205 770.346 486.055Z" fill="#E1E1E6"/>
</g>
<g filter="url(#filter2_d_20_48)">
<path d="M739.461 485.263C739.461 546.056 690.178 595.339 629.385 595.339C568.592 595.339 519.309 546.056 519.309 485.263C519.309 424.47 568.592 375.187 629.385 375.187C690.178 375.187 739.461 424.47 739.461 485.263Z" fill="#E1E1E6"/>
</g>
<path fill-rule="evenodd" clip-rule="evenodd" d="M690.925 586.833C668.519 600.424 642.247 606.223 616.202 603.326C590.157 600.43 565.8 589 546.924 570.818C545.034 568.997 544.978 565.99 546.799 564.1C548.619 562.21 551.627 562.153 553.517 563.974C570.883 580.702 593.291 591.217 617.252 593.882C641.214 596.546 665.383 591.212 685.997 578.708C706.61 566.204 722.511 547.233 731.223 524.749C739.935 502.265 740.969 477.531 734.163 454.397C727.358 431.263 713.095 411.029 693.597 396.846C674.098 382.663 650.458 375.326 626.358 375.979C623.735 376.05 621.551 373.981 621.48 371.358C621.409 368.735 623.478 366.551 626.101 366.48C652.297 365.77 677.993 373.745 699.187 389.161C720.381 404.577 735.883 426.57 743.28 451.715C750.677 476.859 749.553 503.744 740.084 528.183C730.615 552.621 713.331 573.242 690.925 586.833Z" fill="#754DE5"/>
<path d="M584.088 478.738L577.293 483.109L574.3 478.215L584.658 471.325H590.645V502.685H584.088V478.738Z" fill="#3A3C55"/>
<path d="M610.866 503.255C609.504 503.255 607.888 503.113 606.019 502.828C604.182 502.574 602.662 502.273 601.458 501.925L599.747 501.497L600.46 496.651C604.198 497.253 607.397 497.554 610.058 497.554C611.61 497.554 612.798 497.142 613.622 496.318C614.445 495.495 614.857 494.307 614.857 492.755C614.857 489.84 613.527 488.383 610.866 488.383C608.68 488.383 606.811 488.589 605.259 489.001L604.546 489.191L600.65 488.288L601.505 471.325H620.654V477.027H606.637L605.829 483.822C607.793 483.062 609.662 482.681 611.436 482.681C618.215 482.681 621.604 485.833 621.604 492.137C621.604 495.685 620.67 498.425 618.801 500.357C616.932 502.289 614.287 503.255 610.866 503.255Z" fill="#3A3C55"/>
<path d="M626.62 481.066H633.462V488.953H626.62V481.066ZM626.62 494.798H633.462V502.685H626.62V494.798Z" fill="#3A3C55"/>
<path d="M649.421 503.16C645.303 503.16 642.246 501.877 640.25 499.312C638.255 496.714 637.257 492.58 637.257 486.91C637.257 481.24 638.255 477.122 640.25 474.556C642.246 471.959 645.303 470.66 649.421 470.66C653.539 470.66 656.595 471.959 658.591 474.556C660.587 477.122 661.584 481.24 661.584 486.91C661.584 492.58 660.587 496.714 658.591 499.312C656.595 501.877 653.539 503.16 649.421 503.16ZM649.421 497.458C650.719 497.458 651.765 497.126 652.557 496.461C653.349 495.764 653.919 494.655 654.267 493.135C654.647 491.582 654.837 489.508 654.837 486.91C654.837 484.313 654.647 482.254 654.267 480.733C653.919 479.181 653.349 478.072 652.557 477.407C651.765 476.71 650.719 476.362 649.421 476.362C648.122 476.362 647.077 476.71 646.285 477.407C645.493 478.072 644.907 479.181 644.527 480.733C644.178 482.254 644.004 484.313 644.004 486.91C644.004 489.508 644.178 491.582 644.527 493.135C644.907 494.655 645.493 495.764 646.285 496.461C647.077 497.126 648.122 497.458 649.421 497.458Z" fill="#3A3C55"/>
<path d="M676.008 503.16C671.891 503.16 668.834 501.877 666.838 499.312C664.843 496.714 663.845 492.58 663.845 486.91C663.845 481.24 664.843 477.122 666.838 474.556C668.834 471.959 671.891 470.66 676.008 470.66C680.126 470.66 683.183 471.959 685.179 474.556C687.174 477.122 688.172 481.24 688.172 486.91C688.172 492.58 687.174 496.714 685.179 499.312C683.183 501.877 680.126 503.16 676.008 503.16ZM676.008 497.458C677.307 497.458 678.353 497.126 679.144 496.461C679.936 495.764 680.507 494.655 680.855 493.135C681.235 491.582 681.425 489.508 681.425 486.91C681.425 484.313 681.235 482.254 680.855 480.733C680.507 479.181 679.936 478.072 679.144 477.407C678.353 476.71 677.307 476.362 676.008 476.362C674.71 476.362 673.664 476.71 672.873 477.407C672.081 478.072 671.495 479.181 671.114 480.733C670.766 482.254 670.592 484.313 670.592 486.91C670.592 489.508 670.766 491.582 671.114 493.135C671.495 494.655 672.081 495.764 672.873 496.461C673.664 497.126 674.71 497.458 676.008 497.458Z" fill="#3A3C55"/>
<rect x="558.113" y="646.94" width="60.1854" height="55.4339" rx="27.7169" fill="#754DE5"/>
<path d="M596.459 675.468L596.459 675.468L596.453 675.472L584.487 682.293C584.487 682.293 584.487 682.293 584.487 682.293C584.303 682.397 584.094 682.389 583.922 682.295C583.755 682.203 583.663 682.054 583.663 681.874V668.232C583.663 668.052 583.755 667.903 583.922 667.811C584.093 667.717 584.302 667.709 584.486 667.815L584.486 667.815L596.453 674.636L596.453 674.636L596.459 674.639C596.538 674.683 596.601 674.746 596.644 674.819C596.687 674.891 596.709 674.972 596.709 675.054C596.709 675.135 596.687 675.216 596.644 675.289C596.601 675.362 596.538 675.424 596.459 675.468Z" stroke="white" stroke-width="2"/>
<rect x="642.056" y="653.94" width="60.1854" height="55.4339" rx="27.7169" fill="#E1E1E6"/>
<path d="M666.341 674.738H677.956C678.476 674.738 678.965 674.936 679.319 675.273C679.671 675.61 679.86 676.055 679.86 676.51V687.597C679.86 688.051 679.671 688.497 679.319 688.833C678.965 689.171 678.476 689.368 677.956 689.368H666.341C665.822 689.368 665.333 689.171 664.979 688.833C664.626 688.497 664.438 688.051 664.438 687.597V676.51C664.438 676.055 664.626 675.61 664.979 675.273C665.333 674.936 665.822 674.738 666.341 674.738Z" stroke="#3A3C55" stroke-width="2"/>
<rect x="1014.4" y="60.3356" width="56.1273" height="35.4749" rx="17.7375" fill="#E1E1E6"/>
<ellipse cx="1059.06" cy="78.073" rx="18.5774" ry="18.5258" fill="#754DE5"/>
<path d="M1064.26 77.5151C1064.26 80.3788 1061.93 82.7074 1059.05 82.7074C1056.17 82.7074 1053.84 80.3788 1053.84 77.5151C1053.84 74.6514 1056.17 72.3228 1059.05 72.3228C1061.93 72.3228 1064.26 74.6514 1064.26 77.5151Z" fill="white" stroke="white" stroke-width="3"/>
<path d="M1059.32 69.0032L1059.32 65.8539" stroke="white" stroke-width="3" stroke-linecap="round"/>
<path d="M1059.32 89.0713L1059.32 85.922" stroke="white" stroke-width="3" stroke-linecap="round"/>
<path d="M1068.02 77.2439H1071.18" stroke="white" stroke-width="3" stroke-linecap="round"/>
<path d="M1046.81 77.2439H1049.97" stroke="white" stroke-width="3" stroke-linecap="round"/>
<path d="M1050.7 85.862L1052.96 83.6583" stroke="white" stroke-width="3" stroke-linecap="round"/>
<path d="M1065.3 71.3258L1067.55 69.1082" stroke="white" stroke-width="3" stroke-linecap="round"/>
<path d="M1065.3 83.7525L1067.54 85.9794" stroke="white" stroke-width="3" stroke-linecap="round"/>
<path d="M1050.62 69.1082L1052.85 71.3351" stroke="white" stroke-width="3" stroke-linecap="round"/>
<g filter="url(#filter3_d_20_48)">
<path d="M198 217.754C198 198.56 213.565 183 232.765 183H1384.24C1403.44 183 1419 198.56 1419 217.754V1016.25C1419 1035.44 1403.44 1051 1384.24 1051H232.765C213.565 1051 198 1035.44 198 1016.25V217.754Z" fill="#1A1D2C"/>
</g>
<g filter="url(#filter4_d_20_48)">
<path d="M959.429 648.363C959.429 731.694 891.856 799.246 808.5 799.246C725.144 799.246 657.571 731.694 657.571 648.363C657.571 565.033 725.144 497.48 808.5 497.48C891.856 497.48 959.429 565.033 959.429 648.363Z" fill="#24283B"/>
</g>
<g filter="url(#filter5_d_20_48)">
<path d="M926.36 647.516C926.36 712.588 873.592 765.34 808.5 765.34C743.407 765.34 690.64 712.588 690.64 647.516C690.64 582.443 743.407 529.691 808.5 529.691C873.592 529.691 926.36 582.443 926.36 647.516Z" fill="#24283B"/>
</g>
<path fill-rule="evenodd" clip-rule="evenodd" d="M874.392 756.235C850.401 770.783 822.272 776.99 794.385 773.889C766.497 770.789 740.418 758.555 720.208 739.093C718.184 737.144 718.124 733.925 720.073 731.902C722.022 729.879 725.243 729.818 727.266 731.767C745.86 749.672 769.853 760.927 795.509 763.78C821.165 766.632 847.044 760.922 869.115 747.538C891.186 734.154 908.212 713.848 917.54 689.781C926.868 665.715 927.975 639.239 920.688 614.477C913.401 589.715 898.13 568.056 877.253 552.875C856.375 537.693 831.063 529.841 805.259 530.539C802.45 530.615 800.112 528.401 800.036 525.593C799.96 522.785 802.175 520.447 804.984 520.371C833.032 519.612 860.545 528.147 883.238 544.649C905.931 561.151 922.529 584.692 930.449 611.606C938.37 638.52 937.167 667.298 927.028 693.457C916.889 719.615 898.383 741.687 874.392 756.235Z" fill="#754DE5"/>
<path fill-rule="evenodd" clip-rule="evenodd" d="M234.46 334.307C234.46 334.073 234.65 333.883 234.884 333.883H1395.68C1395.92 333.883 1396.11 334.073 1396.11 334.307C1396.11 334.541 1395.92 334.73 1395.68 334.73H234.884C234.65 334.73 234.46 334.541 234.46 334.307Z" fill="#3A3C55"/>
<path d="M316.708 257.651V255.54L329.526 247.883V250.594L320.269 256.595L329.526 262.597V265.308L316.708 257.651Z" fill="#D6D6D6"/>
<path d="M334.879 279.248V245.342H338.313V247.673H338.906C339.387 246.797 339.924 246.147 340.517 245.723C341.139 245.271 342.029 245.045 343.188 245.045C344.714 245.045 345.859 245.469 346.622 246.316C347.385 247.136 347.809 248.492 347.894 250.385C347.922 251.261 347.937 252.377 347.937 253.733C347.965 255.09 347.979 256.531 347.979 258.056C347.979 259.554 347.965 260.995 347.937 262.38C347.937 263.736 347.922 264.852 347.894 265.728C347.809 267.621 347.357 268.991 346.537 269.839C345.718 270.658 344.545 271.068 343.019 271.068C342.058 271.068 341.252 270.87 340.602 270.475C339.98 270.051 339.415 269.373 338.906 268.44H338.313V279.248H334.879ZM341.874 268.525C342.722 268.525 343.358 268.327 343.782 267.932C344.206 267.536 344.432 266.886 344.46 265.982C344.545 263.637 344.587 261.617 344.587 259.921C344.616 258.198 344.616 256.573 344.587 255.047C344.559 253.522 344.517 251.869 344.46 250.089C344.432 249.213 344.234 248.577 343.867 248.181C343.499 247.786 342.891 247.588 342.044 247.588C340.15 247.588 338.906 248.421 338.313 250.089V266.024C338.652 266.957 339.104 267.607 339.669 267.974C340.235 268.341 340.97 268.525 341.874 268.525Z" fill="#D6D6D6"/>
<path d="M351.978 270.771V245.342H355.412V247.885H356.133C356.387 246.896 356.811 246.218 357.404 245.85C358.026 245.455 358.86 245.257 359.906 245.257C360.16 245.257 360.415 245.271 360.669 245.299C360.952 245.299 361.234 245.313 361.517 245.342V247.969H359.948C358.648 247.969 357.631 248.181 356.896 248.605C356.189 249.001 355.694 249.721 355.412 250.767V270.771H351.978Z" fill="#D6D6D6"/>
<path d="M370.058 271.068C367.769 271.068 366.143 270.616 365.182 269.712C364.25 268.779 363.741 267.254 363.656 265.134C363.6 263.976 363.557 262.563 363.529 260.896C363.501 259.229 363.487 257.52 363.487 255.768C363.515 253.988 363.571 252.391 363.656 250.979C363.741 248.831 364.25 247.305 365.182 246.401C366.143 245.497 367.769 245.045 370.058 245.045C372.376 245.045 374.001 245.511 374.933 246.444C375.866 247.348 376.375 248.859 376.46 250.979C376.516 252.278 376.559 253.762 376.587 255.429C376.615 257.068 376.615 258.735 376.587 260.43C376.587 262.125 376.544 263.693 376.46 265.134C376.375 267.254 375.866 268.779 374.933 269.712C374.001 270.616 372.376 271.068 370.058 271.068ZM370.058 268.483C371.188 268.483 371.966 268.271 372.39 267.847C372.842 267.423 373.082 266.759 373.11 265.855C373.195 263.284 373.238 260.712 373.238 258.141C373.266 255.57 373.223 252.942 373.11 250.258C373.082 249.326 372.842 248.662 372.39 248.266C371.937 247.842 371.16 247.63 370.058 247.63C368.984 247.63 368.207 247.842 367.726 248.266C367.274 248.69 367.034 249.382 367.005 250.343C366.892 252.603 366.836 255.09 366.836 257.802C366.836 260.515 366.892 263.171 367.005 265.77C367.034 266.731 367.274 267.423 367.726 267.847C368.207 268.271 368.984 268.483 370.058 268.483Z" fill="#D6D6D6"/>
<path d="M387.532 277.892C385.525 277.892 383.914 277.595 382.698 277.002C381.483 276.408 380.819 275.504 380.706 274.289C380.706 274.148 380.692 273.978 380.663 273.781C380.663 273.611 380.678 273.441 380.706 273.272C380.734 272.481 381.031 271.859 381.596 271.407C382.161 270.983 382.812 270.715 383.546 270.602V270.008C382.105 269.613 381.342 268.878 381.257 267.805C381.257 267.635 381.257 267.494 381.257 267.381C381.257 267.239 381.257 267.098 381.257 266.957C381.285 266.392 381.511 265.897 381.935 265.473C382.388 265.05 382.939 264.795 383.589 264.711V264.117C382.713 263.722 382.077 263.128 381.681 262.337C381.285 261.518 381.045 260.472 380.96 259.201C380.904 257.703 380.875 256.291 380.875 254.963C380.875 253.635 380.904 252.179 380.96 250.597C381.073 248.591 381.61 247.164 382.571 246.316C383.561 245.441 385.129 245.003 387.277 245.003C388.803 245.003 390.005 245.214 390.881 245.638C391.785 246.034 392.45 246.684 392.873 247.588H393.425C393.509 246.882 393.806 246.331 394.315 245.935C394.824 245.539 395.488 245.342 396.308 245.342V248.012H395.841C395.163 248.012 394.612 248.252 394.188 248.732C393.764 249.213 393.552 249.961 393.552 250.979C393.608 252.533 393.637 253.974 393.637 255.302C393.637 256.63 393.594 257.929 393.509 259.201C393.425 261.179 392.902 262.606 391.941 263.481C391.008 264.329 389.454 264.753 387.277 264.753C387.164 264.753 387.051 264.753 386.938 264.753C386.825 264.753 386.726 264.753 386.641 264.753C385.68 264.753 385.002 264.908 384.606 265.219C384.211 265.502 384.013 265.883 384.013 266.364V266.618C384.013 267.155 384.31 267.508 384.903 267.677C385.525 267.847 386.472 267.96 387.744 268.016C389.976 268.073 391.672 268.426 392.831 269.076C394.018 269.726 394.668 270.814 394.781 272.339C394.838 272.763 394.838 273.187 394.781 273.611C394.668 275.278 393.933 276.408 392.577 277.002C391.22 277.595 389.538 277.892 387.532 277.892ZM387.277 262.125C388.21 262.125 388.931 261.942 389.439 261.574C389.948 261.179 390.217 260.486 390.245 259.498C390.301 258.028 390.33 256.559 390.33 255.09C390.33 253.62 390.287 252.01 390.203 250.258C390.174 249.297 389.934 248.633 389.482 248.266C389.03 247.87 388.295 247.673 387.277 247.673C386.231 247.673 385.468 247.87 384.988 248.266C384.507 248.662 384.267 249.354 384.267 250.343C384.211 252.066 384.168 253.649 384.14 255.09C384.14 256.531 384.182 258 384.267 259.498C384.295 260.486 384.564 261.179 385.073 261.574C385.581 261.942 386.316 262.125 387.277 262.125ZM387.616 275.264C388.945 275.264 389.934 275.109 390.584 274.798C391.234 274.515 391.63 274.035 391.771 273.357C391.828 273.046 391.814 272.721 391.729 272.382C391.644 271.789 391.262 271.351 390.584 271.068C389.934 270.785 388.945 270.616 387.616 270.559C386.288 270.531 385.327 270.658 384.733 270.941C384.168 271.252 383.857 271.774 383.801 272.509C383.773 272.792 383.773 273.102 383.801 273.441C383.857 274.12 384.182 274.586 384.776 274.84C385.369 275.123 386.316 275.264 387.616 275.264Z" fill="#D6D6D6"/>
<path d="M398.39 270.771V245.342H401.824V247.885H402.544C402.799 246.896 403.223 246.218 403.816 245.85C404.438 245.455 405.272 245.257 406.318 245.257C406.572 245.257 406.826 245.271 407.081 245.299C407.363 245.299 407.646 245.313 407.929 245.342V247.969H406.36C405.06 247.969 404.042 248.181 403.307 248.605C402.601 249.001 402.106 249.721 401.824 250.767V270.771H398.39Z" fill="#D6D6D6"/>
<path d="M414.261 271.026C411.18 271.026 409.527 269.373 409.301 266.067C409.273 265.7 409.244 265.346 409.216 265.007C409.216 264.64 409.23 264.273 409.258 263.905C409.343 262.408 409.739 261.136 410.446 260.091C411.152 259.017 412.424 258.028 414.261 257.124C414.94 256.813 415.66 256.502 416.423 256.192C417.186 255.853 417.95 255.556 418.713 255.302V250.258C418.713 249.354 418.487 248.704 418.034 248.308C417.61 247.885 416.904 247.673 415.915 247.673C415.067 247.673 414.388 247.842 413.88 248.181C413.371 248.52 413.102 249.142 413.074 250.046C413.046 250.668 413.032 251.417 413.032 252.292C413.032 253.14 413.046 253.776 413.074 254.2H409.852C409.795 253.606 409.767 252.985 409.767 252.335C409.767 251.685 409.781 251.077 409.81 250.512C409.866 248.619 410.347 247.235 411.251 246.359C412.184 245.455 413.781 245.003 416.042 245.003C418.331 245.003 419.9 245.469 420.748 246.401C421.596 247.334 422.02 248.845 422.02 250.936L421.977 270.771H418.628V268.44H418.162C417.794 269.26 417.328 269.895 416.763 270.347C416.197 270.8 415.363 271.026 414.261 271.026ZM415.279 268.525C416.89 268.525 418.02 267.734 418.67 266.152V258.014C418.077 258.212 417.483 258.438 416.89 258.692C416.324 258.947 415.674 259.3 414.94 259.752C414.007 260.289 413.385 260.91 413.074 261.617C412.791 262.295 412.65 263.072 412.65 263.948C412.65 264.343 412.65 264.682 412.65 264.965C412.65 265.247 412.664 265.53 412.693 265.813C412.749 266.66 413.003 267.324 413.456 267.805C413.908 268.285 414.516 268.525 415.279 268.525Z" fill="#D6D6D6"/>
<path d="M534.074 271.62H531.59L538.09 241.488H540.574L534.074 271.62Z" fill="#D6D6D6"/>
<path d="M544.362 265.308V262.597L553.62 256.595L544.362 250.594V247.883L557.181 255.54V257.651L544.362 265.308Z" fill="#D6D6D6"/>
<path d="M426.543 271.156V245.727H429.892V248.058H430.571C431.023 247.21 431.532 246.56 432.097 246.108C432.69 245.656 433.552 245.43 434.683 245.43C436.916 245.43 438.315 246.376 438.88 248.27H439.474C439.926 247.394 440.491 246.701 441.17 246.193C441.848 245.684 442.752 245.43 443.883 245.43C445.353 245.43 446.455 245.854 447.19 246.701C447.925 247.521 448.306 248.877 448.334 250.77V271.156H444.943V250.516C444.943 249.612 444.745 248.962 444.349 248.566C443.954 248.171 443.374 247.973 442.611 247.973C441 247.973 439.855 248.778 439.177 250.389V271.156H435.785V250.516C435.785 249.612 435.587 248.962 435.192 248.566C434.824 248.171 434.245 247.973 433.454 247.973C431.701 247.973 430.514 248.806 429.892 250.473V271.156H426.543Z" fill="#754DE5"/>
<path d="M459.114 271.453C456.825 271.453 455.199 271.001 454.238 270.097C453.306 269.164 452.797 267.638 452.712 265.519C452.656 264.361 452.613 262.948 452.585 261.281C452.557 259.614 452.543 257.905 452.543 256.153C452.571 254.373 452.627 252.776 452.712 251.363C452.797 249.216 453.306 247.69 454.238 246.786C455.199 245.882 456.825 245.43 459.114 245.43C461.432 245.43 463.057 245.896 463.989 246.829C464.922 247.733 465.431 249.244 465.516 251.363C465.572 252.663 465.615 254.147 465.643 255.814C465.671 257.452 465.671 259.12 465.643 260.815C465.643 262.51 465.601 264.078 465.516 265.519C465.431 267.638 464.922 269.164 463.989 270.097C463.057 271.001 461.432 271.453 459.114 271.453ZM459.114 268.868C460.245 268.868 461.022 268.656 461.446 268.232C461.898 267.808 462.138 267.144 462.166 266.24C462.251 263.669 462.294 261.097 462.294 258.526C462.322 255.955 462.28 253.327 462.166 250.643C462.138 249.711 461.898 249.047 461.446 248.651C460.994 248.227 460.216 248.015 459.114 248.015C458.04 248.015 457.263 248.227 456.782 248.651C456.33 249.075 456.09 249.767 456.061 250.728C455.948 252.988 455.892 255.475 455.892 258.187C455.892 260.9 455.948 263.556 456.061 266.155C456.09 267.116 456.33 267.808 456.782 268.232C457.263 268.656 458.04 268.868 459.114 268.868Z" fill="#754DE5"/>
<path d="M479.008 237.25H482.442V271.156H479.008V268.825H478.415C477.934 269.701 477.369 270.365 476.719 270.817C476.069 271.241 475.193 271.453 474.09 271.453C472.536 271.453 471.391 271.043 470.656 270.224C469.921 269.376 469.512 268.006 469.427 266.113C469.398 264.559 469.37 262.877 469.342 261.069C469.342 259.233 469.342 257.424 469.342 255.644C469.37 253.836 469.398 252.211 469.427 250.77C469.483 248.821 469.921 247.45 470.741 246.659C471.561 245.84 472.705 245.43 474.175 245.43C475.277 245.43 476.139 245.656 476.761 246.108C477.411 246.532 477.977 247.182 478.457 248.058H479.008V237.25ZM475.277 268.91C476.154 268.91 476.917 268.712 477.567 268.317C478.217 267.921 478.697 267.285 479.008 266.409V250.473C478.697 249.598 478.217 248.962 477.567 248.566C476.917 248.171 476.168 247.973 475.32 247.973C474.472 247.973 473.85 248.171 473.454 248.566C473.087 248.962 472.889 249.598 472.861 250.473C472.804 252.225 472.762 254.048 472.734 255.941C472.734 257.834 472.734 259.671 472.734 261.451C472.762 263.231 472.79 264.827 472.818 266.24C472.875 267.229 473.101 267.921 473.497 268.317C473.892 268.712 474.486 268.91 475.277 268.91Z" fill="#754DE5"/>
<path d="M493.478 271.453C491.188 271.453 489.563 271.001 488.602 270.097C487.67 269.164 487.161 267.638 487.076 265.519C487.019 264.361 486.977 262.948 486.949 261.281C486.921 259.614 486.906 257.905 486.906 256.153C486.935 254.373 486.991 252.776 487.076 251.363C487.161 249.216 487.67 247.69 488.602 246.786C489.563 245.882 491.188 245.43 493.478 245.43C495.795 245.43 497.421 245.896 498.353 246.829C499.286 247.733 499.795 249.244 499.88 251.363C499.936 252.663 499.978 254.147 500.007 255.814C500.035 257.452 500.035 259.12 500.007 260.815C500.007 262.51 499.964 264.078 499.88 265.519C499.795 267.638 499.286 269.164 498.353 270.097C497.421 271.001 495.795 271.453 493.478 271.453ZM493.478 268.868C494.608 268.868 495.386 268.656 495.81 268.232C496.262 267.808 496.502 267.144 496.53 266.24C496.615 263.669 496.657 261.097 496.657 258.526C496.686 255.955 496.643 253.327 496.53 250.643C496.502 249.711 496.262 249.047 495.81 248.651C495.357 248.227 494.58 248.015 493.478 248.015C492.404 248.015 491.626 248.227 491.146 248.651C490.694 249.075 490.454 249.767 490.425 250.728C490.312 252.988 490.256 255.475 490.256 258.187C490.256 260.9 490.312 263.556 490.425 266.155C490.454 267.116 490.694 267.808 491.146 268.232C491.626 268.656 492.404 268.868 493.478 268.868Z" fill="#754DE5"/>
<path d="M504.048 271.156V245.727H507.482V248.27H508.203C508.457 247.281 508.881 246.602 509.475 246.235C510.096 245.84 510.93 245.642 511.976 245.642C512.23 245.642 512.485 245.656 512.739 245.684C513.022 245.684 513.304 245.698 513.587 245.727V248.354H512.018C510.718 248.354 509.701 248.566 508.966 248.99C508.259 249.386 507.765 250.106 507.482 251.152V271.156H504.048Z" fill="#754DE5"/>
<path d="M522.128 271.453C519.839 271.453 518.214 271.001 517.253 270.097C516.32 269.164 515.811 267.638 515.726 265.519C515.67 264.361 515.627 262.948 515.599 261.281C515.571 259.614 515.557 257.905 515.557 256.153C515.585 254.373 515.642 252.776 515.726 251.363C515.811 249.216 516.32 247.69 517.253 246.786C518.214 245.882 519.839 245.43 522.128 245.43C524.446 245.43 526.071 245.896 527.004 246.829C527.936 247.733 528.445 249.244 528.53 251.363C528.586 252.663 528.629 254.147 528.657 255.814C528.685 257.452 528.685 259.12 528.657 260.815C528.657 262.51 528.615 264.078 528.53 265.519C528.445 267.638 527.936 269.164 527.004 270.097C526.071 271.001 524.446 271.453 522.128 271.453ZM522.128 268.868C523.259 268.868 524.036 268.656 524.46 268.232C524.912 267.808 525.152 267.144 525.181 266.24C525.265 263.669 525.308 261.097 525.308 258.526C525.336 255.955 525.294 253.327 525.181 250.643C525.152 249.711 524.912 249.047 524.46 248.651C524.008 248.227 523.23 248.015 522.128 248.015C521.054 248.015 520.277 248.227 519.796 248.651C519.344 249.075 519.104 249.767 519.076 250.728C518.963 252.988 518.906 255.475 518.906 258.187C518.906 260.9 518.963 263.556 519.076 266.155C519.104 267.116 519.344 267.808 519.796 268.232C520.277 268.656 521.054 268.868 522.128 268.868Z" fill="#754DE5"/>
<rect x="1023.02" y="617" width="66.1375" height="61.0312" rx="17" fill="#3A3C55"/>
<path d="M1054.82 650.305C1054.82 649.753 1054.37 649.305 1053.82 649.305H1049.46C1048.91 649.305 1048.46 648.857 1048.46 648.305V647.386C1048.46 646.833 1048.91 646.386 1049.46 646.386H1053.82C1054.37 646.386 1054.82 645.938 1054.82 645.386V640.887C1054.82 640.334 1055.27 639.887 1055.82 639.887H1056.81C1057.36 639.887 1057.81 640.334 1057.81 640.887V645.386C1057.81 645.938 1058.26 646.386 1058.81 646.386H1063.24C1063.8 646.386 1064.24 646.833 1064.24 647.386V648.305C1064.24 648.857 1063.8 649.305 1063.24 649.305H1058.81C1058.26 649.305 1057.81 649.753 1057.81 650.305V654.874C1057.81 655.426 1057.36 655.874 1056.81 655.874H1055.82C1055.27 655.874 1054.82 655.426 1054.82 654.874V650.305Z" fill="#1A1D2C"/>
<rect x="526.992" y="617" width="66.1375" height="61.0312" rx="17" fill="#3A3C55"/>
<path d="M553.277 646.82C553.277 646.268 553.725 645.82 554.277 645.82H565.844C566.396 645.82 566.844 646.268 566.844 646.82V648.211C566.844 648.763 566.396 649.211 565.844 649.211H554.277C553.725 649.211 553.277 648.763 553.277 648.211V646.82Z" fill="#1A1D2C"/>
<g filter="url(#filter6_d_20_48)">
<rect x="654.179" y="409.324" width="64.4417" height="59.3359" rx="17" fill="#24283B"/>
</g>
<path d="M679.617 450.012C679.617 450.012 678.769 450.012 678.769 449.164C678.769 448.316 679.617 448.316 679.617 448.316H685.605V443.654H683.22C681.754 443.654 680.504 443.138 679.471 442.105C678.438 441.072 677.921 439.822 677.921 438.356C677.921 437.297 678.212 436.321 678.795 435.429C679.378 434.538 680.164 433.889 681.154 433.482C681.313 432.158 681.891 431.05 682.889 430.158C683.887 429.266 685.058 428.82 686.4 428.82C687.743 428.82 688.913 429.266 689.911 430.158C690.909 431.05 691.488 432.158 691.647 433.482C692.636 433.889 693.422 434.538 694.005 435.429C694.588 436.321 694.879 437.297 694.879 438.356C694.879 439.822 694.363 441.072 693.329 442.105C692.296 443.138 691.046 443.654 689.58 443.654H687.195V448.316H693.183C693.183 448.316 694.031 448.316 694.031 449.164C694.031 450.012 693.183 450.012 693.183 450.012H679.617ZM683.22 442.065H689.58C690.604 442.065 691.479 441.703 692.203 440.979C692.927 440.255 693.289 439.381 693.289 438.356C693.289 437.615 693.077 436.939 692.653 436.33C692.229 435.721 691.682 435.266 691.011 434.966L690.163 434.595L690.057 433.668C689.933 432.732 689.527 431.955 688.838 431.337C688.149 430.719 687.336 430.41 686.4 430.41C685.464 430.41 684.651 430.719 683.962 431.337C683.273 431.955 682.867 432.732 682.743 433.668L682.637 434.595L681.79 434.966C681.118 435.266 680.571 435.721 680.147 436.33C679.723 436.939 679.511 437.615 679.511 438.356C679.511 439.381 679.873 440.255 680.597 440.979C681.321 441.703 682.196 442.065 683.22 442.065Z" fill="white"/>
<g filter="url(#filter7_d_20_48)">
<rect x="735.579" y="409.324" width="64.4417" height="59.3359" rx="17" fill="#754DE5"/>
</g>
<path d="M761.695 445.975C761.458 445.975 761.25 445.887 761.072 445.71C760.894 445.534 760.805 445.328 760.805 445.092C760.805 444.857 760.894 444.651 761.072 444.474C761.25 444.298 761.458 444.209 761.695 444.209C761.932 444.209 762.14 444.298 762.318 444.474C762.496 444.651 762.585 444.857 762.585 445.092C762.585 445.328 762.496 445.534 762.318 445.71C762.14 445.887 761.932 445.975 761.695 445.975ZM773.905 445.975C773.668 445.975 773.46 445.887 773.282 445.71C773.104 445.534 773.015 445.328 773.015 445.092C773.015 444.857 773.104 444.651 773.282 444.474C773.46 444.298 773.668 444.209 773.905 444.209C774.142 444.209 774.35 444.298 774.528 444.474C774.706 444.651 774.795 444.857 774.795 445.092C774.795 445.328 774.706 445.534 774.528 445.71C774.35 445.887 774.142 445.975 773.905 445.975ZM764.748 450.012C764.51 450.012 764.302 449.923 764.124 449.747C763.946 449.57 763.857 449.364 763.857 449.129C763.857 448.893 763.946 448.687 764.124 448.511C764.302 448.334 764.51 448.246 764.748 448.246C764.985 448.246 765.193 448.334 765.371 448.511C765.549 448.687 765.638 448.893 765.638 449.129C765.638 449.364 765.549 449.57 765.371 449.747C765.193 449.923 764.985 450.012 764.748 450.012ZM767.8 445.975C767.563 445.975 767.355 445.887 767.177 445.71C766.999 445.534 766.91 445.328 766.91 445.092C766.91 444.857 766.999 444.651 767.177 444.474C767.355 444.298 767.563 444.209 767.8 444.209C768.037 444.209 768.245 444.298 768.423 444.474C768.601 444.651 768.69 444.857 768.69 445.092C768.69 445.328 768.601 445.534 768.423 445.71C768.245 445.887 768.037 445.975 767.8 445.975ZM770.853 450.012C770.615 450.012 770.407 449.923 770.229 449.747C770.051 449.57 769.962 449.364 769.962 449.129C769.962 448.893 770.051 448.687 770.229 448.511C770.407 448.334 770.615 448.246 770.853 448.246C771.09 448.246 771.298 448.334 771.476 448.511C771.654 448.687 771.743 448.893 771.743 449.129C771.743 449.364 771.654 449.57 771.476 449.747C771.298 449.923 771.09 450.012 770.853 450.012ZM762.967 442.443C761.492 442.443 760.232 441.926 759.189 440.892C758.146 439.858 757.625 438.609 757.625 437.146C757.625 435.817 758.104 434.631 759.062 433.588C760.02 432.546 761.212 431.974 762.636 431.873C763.179 430.931 763.895 430.187 764.786 429.64C765.676 429.094 766.681 428.82 767.8 428.82C769.343 428.82 770.636 429.304 771.679 430.271C772.722 431.238 773.362 432.436 773.6 433.866C774.939 433.933 776.004 434.383 776.792 435.216C777.581 436.048 777.975 437.028 777.975 438.155C777.975 439.332 777.555 440.341 776.716 441.182C775.876 442.023 774.855 442.443 773.651 442.443H762.967ZM762.967 440.93H773.651C774.431 440.93 775.092 440.656 775.635 440.11C776.177 439.563 776.449 438.903 776.449 438.129C776.449 437.373 776.177 436.725 775.635 436.187C775.092 435.649 774.431 435.38 773.651 435.38H772.124V434.623C772.124 433.429 771.705 432.415 770.865 431.583C770.026 430.75 769.004 430.334 767.8 430.334C766.935 430.334 766.142 430.565 765.422 431.028C764.701 431.49 764.171 432.117 763.832 432.907L763.628 433.361H762.916C761.865 433.395 760.974 433.778 760.245 434.509C759.516 435.241 759.151 436.12 759.151 437.146C759.151 438.188 759.524 439.08 760.271 439.82C761.017 440.56 761.915 440.93 762.967 440.93Z" fill="white"/>
<g filter="url(#filter8_d_20_48)">
<rect x="816.979" y="409.324" width="64.4417" height="59.3359" rx="17" fill="#24283B"/>
</g>
<path d="M841.542 441.089C841.542 442.26 841.807 443.362 842.335 444.393C842.864 445.425 843.601 446.285 844.547 446.972C844.473 446.749 844.417 446.522 844.38 446.289C844.343 446.057 844.325 445.829 844.325 445.606C844.325 445.011 844.436 444.454 844.658 443.933C844.881 443.413 845.206 442.939 845.632 442.511C845.632 442.511 847.928 439.84 848.776 439.84C849.624 439.84 851.92 442.511 851.92 442.511C852.347 442.939 852.671 443.413 852.894 443.933C853.116 444.454 853.228 445.011 853.228 445.606C853.228 445.829 853.209 446.057 853.172 446.289C853.135 446.522 853.079 446.749 853.005 446.972C853.951 446.285 854.688 445.425 855.217 444.393C855.746 443.362 856.01 442.26 856.01 441.089C856.01 440.085 855.797 439.105 855.37 438.147C854.943 437.19 854.331 436.312 853.534 435.512C853.144 435.791 852.736 436.01 852.31 436.168C851.883 436.326 851.456 436.405 851.03 436.405C849.898 436.405 848.962 436.019 848.22 435.247C847.478 434.476 847.107 433.505 847.107 432.334V431.776C846.254 432.389 845.484 433.068 844.798 433.811C844.111 434.555 843.527 435.331 843.045 436.14C842.563 436.948 842.192 437.776 841.932 438.621C841.672 439.467 841.542 440.29 841.542 441.089ZM848.776 441.758L846.801 443.71C846.541 443.97 846.342 444.258 846.203 444.574C846.064 444.89 845.994 445.234 845.994 445.606C845.994 446.368 846.263 447.014 846.801 447.544C847.339 448.074 847.997 448.339 848.776 448.339C849.555 448.339 850.214 448.074 850.752 447.544C851.289 447.014 851.558 446.368 851.558 445.606C851.558 445.234 851.489 444.89 851.35 444.574C851.211 444.258 851.011 443.97 850.752 443.71L848.776 441.758ZM848.776 428.82V432.501C848.776 433.133 848.994 433.663 849.43 434.09C849.866 434.518 850.399 434.732 851.03 434.732C851.364 434.732 851.674 434.662 851.962 434.522C852.249 434.383 852.504 434.174 852.727 433.895L853.228 433.282C854.6 434.062 855.685 435.15 856.483 436.544C857.281 437.938 857.679 439.453 857.679 441.089C857.679 443.58 856.817 445.69 855.092 447.419C853.367 449.147 851.262 450.012 848.776 450.012C846.291 450.012 844.185 449.147 842.461 447.419C840.736 445.69 839.873 443.58 839.873 441.089C839.873 438.71 840.671 436.419 842.266 434.216C843.861 432.013 846.031 430.214 848.776 428.82Z" fill="white"/>
<g filter="url(#filter9_d_20_48)">
<rect x="898.379" y="409.324" width="64.4417" height="59.3359" rx="17" fill="#24283B"/>
</g>
<path d="M939.67 438.268V448.246C939.67 448.717 939.512 449.129 939.195 449.482C938.879 449.835 938.51 450.012 938.088 450.012H922.241C921.82 450.012 921.45 449.835 921.134 449.482C920.818 449.129 920.659 448.717 920.659 448.246V438.268C920.167 437.797 919.842 437.218 919.684 436.532C919.526 435.845 919.543 435.158 919.737 434.471L920.87 430.498C921.011 429.968 921.257 429.556 921.609 429.262C921.96 428.967 922.364 428.82 922.822 428.82H937.403C937.895 428.82 938.325 428.972 938.695 429.277C939.064 429.581 939.319 429.988 939.459 430.498L940.619 434.471C940.813 435.158 940.826 435.845 940.659 436.532C940.492 437.218 940.162 437.797 939.67 438.268ZM932.551 437.356C933.061 437.356 933.491 437.169 933.843 436.797C934.195 436.424 934.335 435.972 934.265 435.443L933.606 430.586H930.969V435.443C930.969 435.953 931.118 436.399 931.417 436.782C931.716 437.164 932.094 437.356 932.551 437.356ZM927.62 437.356C928.113 437.356 928.53 437.169 928.873 436.797C929.216 436.424 929.387 435.972 929.387 435.443V430.586H926.75L926.091 435.443C926.021 435.953 926.144 436.399 926.46 436.782C926.777 437.164 927.163 437.356 927.62 437.356ZM922.822 437.356C923.243 437.356 923.608 437.194 923.916 436.87C924.223 436.546 924.404 436.149 924.456 435.678L925.142 430.586H922.505L921.292 434.883C921.116 435.492 921.187 436.056 921.503 436.576C921.82 437.096 922.259 437.356 922.822 437.356ZM937.508 437.356C938.07 437.356 938.514 437.101 938.84 436.59C939.165 436.08 939.239 435.511 939.064 434.883L937.851 430.586H935.214L935.9 435.678C935.952 436.149 936.133 436.546 936.44 436.87C936.748 437.194 937.104 437.356 937.508 437.356ZM922.241 448.246H938.088V439.092C938.106 439.112 938.049 439.122 937.917 439.122C937.785 439.122 937.649 439.122 937.508 439.122C937.069 439.122 936.651 439.019 936.256 438.813C935.86 438.607 935.469 438.288 935.082 437.856C934.801 438.249 934.449 438.558 934.028 438.783C933.606 439.009 933.14 439.122 932.63 439.122C932.103 439.122 931.65 439.038 931.272 438.872C930.894 438.705 930.529 438.425 930.178 438.033C929.914 438.386 929.58 438.656 929.176 438.842C928.772 439.028 928.315 439.122 927.805 439.122C927.26 439.122 926.777 439.014 926.355 438.798C925.933 438.582 925.572 438.268 925.274 437.856C924.852 438.268 924.439 438.582 924.034 438.798C923.63 439.014 923.226 439.122 922.822 439.122C922.698 439.122 922.58 439.122 922.466 439.122C922.351 439.122 922.277 439.112 922.241 439.092V448.246ZM938.088 448.246H922.241C922.277 448.246 922.351 448.246 922.466 448.246C922.58 448.246 922.698 448.246 922.822 448.246C923.12 448.246 923.476 448.246 923.889 448.246C924.302 448.246 924.764 448.246 925.274 448.246C925.432 448.246 925.608 448.246 925.801 448.246C925.994 448.246 926.201 448.246 926.421 448.246C926.64 448.246 926.864 448.246 927.093 448.246C927.321 448.246 927.559 448.246 927.805 448.246C927.998 448.246 928.2 448.246 928.411 448.246C928.622 448.246 928.833 448.246 929.044 448.246C929.255 448.246 929.457 448.246 929.651 448.246C929.844 448.246 930.02 448.246 930.178 448.246C930.565 448.246 930.951 448.246 931.338 448.246C931.725 448.246 932.155 448.246 932.63 448.246C932.876 448.246 933.118 448.246 933.355 448.246C933.592 448.246 933.817 448.246 934.028 448.246C934.238 448.246 934.432 448.246 934.608 448.246C934.783 448.246 934.942 448.246 935.082 448.246C935.487 448.246 935.891 448.246 936.295 448.246C936.699 448.246 937.104 448.246 937.508 448.246C937.649 448.246 937.785 448.246 937.917 448.246C938.049 448.246 938.106 448.246 938.088 448.246Z" fill="white"/>
<rect x="731.34" y="829.762" width="64.4417" height="59.3359" rx="29.668" fill="#754DE5"/>
<path d="M772.432 860.359L772.432 860.359L772.426 860.362L759.613 867.664C759.135 867.936 758.625 867.57 758.625 867.154V852.552C758.625 852.137 759.133 851.771 759.613 852.044L759.613 852.044L772.426 859.345L772.426 859.345L772.432 859.349C772.527 859.402 772.604 859.478 772.656 859.567C772.709 859.655 772.735 859.754 772.735 859.854C772.735 859.954 772.709 860.053 772.656 860.141C772.604 860.23 772.527 860.306 772.432 860.359Z" stroke="white" stroke-width="2"/>
<rect x="821.219" y="829.762" width="64.4417" height="59.3359" rx="29.668" fill="#3A3C55"/>
<path d="M847.222 851.953H859.658C860.232 851.953 860.773 852.171 861.166 852.546C861.556 852.918 861.767 853.414 861.767 853.92V865.787C861.767 866.293 861.556 866.789 861.166 867.161C860.773 867.536 860.232 867.754 859.658 867.754H847.222C846.648 867.754 846.106 867.536 845.714 867.161C845.323 866.789 845.113 866.293 845.113 865.787V853.92C845.113 853.414 845.323 852.918 845.714 852.546C846.106 852.171 846.648 851.953 847.222 851.953Z" stroke="white" stroke-width="2"/>
<g filter="url(#filter10_d_20_48)">
<rect x="1285.88" y="238.945" width="60.2021" height="38.1445" rx="19.0723" fill="#3A3C55"/>
</g>
<ellipse cx="1300.72" cy="258.018" rx="19.926" ry="19.9199" fill="#754DE5"/>
<path d="M1298.94 246.138C1299.08 246.314 1299.17 246.529 1299.19 246.756C1299.21 246.983 1299.16 247.211 1299.05 247.411C1298.2 248.985 1297.76 250.75 1297.76 252.544C1297.76 258.509 1302.58 263.339 1308.52 263.339C1309.29 263.339 1310.05 263.257 1310.77 263.101C1310.99 263.053 1311.22 263.071 1311.44 263.155C1311.65 263.238 1311.83 263.383 1311.96 263.57C1312.1 263.765 1312.17 264.001 1312.16 264.24C1312.15 264.48 1312.07 264.71 1311.92 264.895C1310.76 266.324 1309.31 267.476 1307.66 268.266C1306.01 269.055 1304.21 269.464 1302.38 269.461C1295.6 269.461 1290.12 263.951 1290.12 257.163C1290.12 252.054 1293.22 247.672 1297.65 245.815C1297.87 245.721 1298.11 245.701 1298.34 245.76C1298.58 245.818 1298.78 245.951 1298.94 246.138Z" fill="white"/>
<path d="M762.509 629.4V657H756.429V637.44C756.429 636.933 756.443 636.44 756.469 635.96C756.496 635.453 756.563 634.947 756.669 634.44L750.109 636.12L749.389 632.16L756.429 629.4H762.509ZM785.775 629.4L785.575 634H774.095L773.775 639.2L777.815 639.64C779.495 639.8 780.895 640.12 782.015 640.6C783.162 641.08 784.068 641.707 784.735 642.48C785.402 643.253 785.882 644.147 786.175 645.16C786.468 646.173 786.615 647.307 786.615 648.56C786.615 649.76 786.468 650.907 786.175 652C785.882 653.067 785.375 654.013 784.655 654.84C783.962 655.667 782.988 656.32 781.735 656.8C780.482 657.253 778.882 657.48 776.935 657.48C775.655 657.48 774.202 657.4 772.575 657.24C770.975 657.107 769.348 656.907 767.695 656.64L768.255 651.96C769.562 652.093 770.828 652.213 772.055 652.32C773.308 652.4 774.415 652.44 775.375 652.44C776.788 652.44 777.855 652.293 778.575 652C779.295 651.707 779.788 651.267 780.055 650.68C780.348 650.067 780.522 649.307 780.575 648.4C780.602 647.52 780.495 646.827 780.255 646.32C780.042 645.787 779.668 645.373 779.135 645.08C778.628 644.787 777.948 644.587 777.095 644.48C776.268 644.347 775.242 644.24 774.015 644.16L770.575 643.76C770.015 643.68 769.562 643.453 769.215 643.08C768.868 642.68 768.708 642.2 768.735 641.64L769.415 629.4H785.775ZM793.925 638.96C794.699 638.96 795.232 639.12 795.525 639.44C795.845 639.733 796.005 640.267 796.005 641.04V642.96C796.005 643.733 795.845 644.28 795.525 644.6C795.232 644.893 794.699 645.04 793.925 645.04H792.405C791.632 645.04 791.085 644.893 790.765 644.6C790.472 644.28 790.325 643.733 790.325 642.96V641.04C790.325 640.267 790.472 639.733 790.765 639.44C791.085 639.12 791.632 638.96 792.405 638.96H793.925ZM793.925 650.88C794.699 650.88 795.232 651.04 795.525 651.36C795.845 651.653 796.005 652.187 796.005 652.96V654.88C796.005 655.653 795.845 656.2 795.525 656.52C795.232 656.813 794.699 656.96 793.925 656.96H792.405C791.632 656.96 791.085 656.813 790.765 656.52C790.472 656.2 790.325 655.653 790.325 654.88V652.96C790.325 652.187 790.472 651.653 790.765 651.36C791.085 651.04 791.632 650.88 792.405 650.88H793.925ZM811.119 628.84C813.759 628.84 815.852 629.307 817.399 630.24C818.972 631.173 820.092 632.693 820.759 634.8C821.452 636.88 821.799 639.68 821.799 643.2C821.799 646.72 821.452 649.533 820.759 651.64C820.092 653.72 818.972 655.227 817.399 656.16C815.852 657.093 813.759 657.56 811.119 657.56C808.479 657.56 806.372 657.093 804.799 656.16C803.252 655.227 802.145 653.72 801.479 651.64C800.812 649.533 800.479 646.72 800.479 643.2C800.479 639.68 800.812 636.88 801.479 634.8C802.145 632.693 803.252 631.173 804.799 630.24C806.372 629.307 808.479 628.84 811.119 628.84ZM811.079 633.64C810.199 633.64 809.465 633.787 808.879 634.08C808.292 634.373 807.825 634.867 807.479 635.56C807.132 636.253 806.879 637.227 806.719 638.48C806.585 639.707 806.519 641.28 806.519 643.2C806.519 645.093 806.585 646.667 806.719 647.92C806.879 649.173 807.132 650.147 807.479 650.84C807.825 651.533 808.292 652.027 808.879 652.32C809.465 652.613 810.199 652.76 811.079 652.76C811.985 652.76 812.732 652.613 813.319 652.32C813.932 652.027 814.412 651.533 814.759 650.84C815.132 650.147 815.385 649.173 815.519 647.92C815.679 646.667 815.759 645.093 815.759 643.2C815.759 641.28 815.679 639.707 815.519 638.48C815.385 637.227 815.132 636.253 814.759 635.56C814.412 634.867 813.932 634.373 813.319 634.08C812.732 633.787 811.985 633.64 811.079 633.64ZM836.353 628.84C838.993 628.84 841.087 629.307 842.633 630.24C844.207 631.173 845.327 632.693 845.993 634.8C846.687 636.88 847.033 639.68 847.033 643.2C847.033 646.72 846.687 649.533 845.993 651.64C845.327 653.72 844.207 655.227 842.633 656.16C841.087 657.093 838.993 657.56 836.353 657.56C833.713 657.56 831.607 657.093 830.033 656.16C828.487 655.227 827.38 653.72 826.713 651.64C826.047 649.533 825.713 646.72 825.713 643.2C825.713 639.68 826.047 636.88 826.713 634.8C827.38 632.693 828.487 631.173 830.033 630.24C831.607 629.307 833.713 628.84 836.353 628.84ZM836.313 633.64C835.433 633.64 834.7 633.787 834.113 634.08C833.527 634.373 833.06 634.867 832.713 635.56C832.367 636.253 832.113 637.227 831.953 638.48C831.82 639.707 831.753 641.28 831.753 643.2C831.753 645.093 831.82 646.667 831.953 647.92C832.113 649.173 832.367 650.147 832.713 650.84C833.06 651.533 833.527 652.027 834.113 652.32C834.7 652.613 835.433 652.76 836.313 652.76C837.22 652.76 837.967 652.613 838.553 652.32C839.167 652.027 839.647 651.533 839.993 650.84C840.367 650.147 840.62 649.173 840.753 647.92C840.913 646.667 840.993 645.093 840.993 643.2C840.993 641.28 840.913 639.707 840.753 638.48C840.62 637.227 840.367 636.253 839.993 635.56C839.647 634.867 839.167 634.373 838.553 634.08C837.967 633.787 837.22 633.64 836.313 633.64Z" fill="white"/>
<path d="M1329.97 968.777C1321.07 968.777 1313.86 975.972 1313.86 984.856C1313.86 991.97 1318.47 997.98 1324.87 1000.11C1325.68 1000.25 1325.98 999.768 1325.98 999.346C1325.98 998.964 1325.96 997.698 1325.96 996.352C1321.91 997.095 1320.87 995.367 1320.54 994.462C1320.36 994 1319.58 992.573 1318.89 992.191C1318.33 991.89 1317.52 991.146 1318.87 991.126C1320.14 991.106 1321.05 992.292 1321.35 992.774C1322.8 995.206 1325.12 994.523 1326.04 994.101C1326.18 993.056 1326.61 992.352 1327.07 991.95C1323.48 991.548 1319.74 990.161 1319.74 984.012C1319.74 982.263 1320.36 980.816 1321.39 979.69C1321.23 979.289 1320.66 977.641 1321.55 975.43C1321.55 975.43 1322.9 975.008 1325.98 977.078C1327.27 976.716 1328.64 976.535 1330.01 976.535C1331.38 976.535 1332.75 976.716 1334.04 977.078C1337.12 974.988 1338.47 975.43 1338.47 975.43C1339.35 977.641 1338.79 979.289 1338.63 979.69C1339.66 980.816 1340.28 982.243 1340.28 984.012C1340.28 990.182 1336.51 991.548 1332.93 991.95C1333.51 992.453 1334.02 993.417 1334.02 994.925C1334.02 997.075 1334 998.804 1334 999.346C1334 999.768 1334.3 1000.27 1335.1 1000.11C1338.3 999.033 1341.08 996.981 1343.05 994.245C1345.02 991.508 1346.08 988.225 1346.08 984.856C1346.08 975.972 1338.87 968.777 1329.97 968.777Z" fill="#FBFBFB"/>
<defs>
<filter id="filter0_d_20_48" x="14" y="7" width="1218.66" height="889.166" filterUnits="userSpaceOnUse" color-interpolation-filters="sRGB">
<feFlood flood-opacity="0" result="BackgroundImageFix"/>
<feColorMatrix in="SourceAlpha" type="matrix" values="0 0 0 0 0 0 0 0 0 0 0 0 0 0 0 0 0 0 127 0" result="hardAlpha"/>
<feOffset dx="-7" dy="5"/>
<feGaussianBlur stdDeviation="19.5"/>
<feComposite in2="hardAlpha" operator="out"/>
<feColorMatrix type="matrix" values="0 0 0 0 0 0 0 0 0 0 0 0 0 0 0 0 0 0 0.25 0"/>
<feBlend mode="normal" in2="BackgroundImageFix" result="effect1_dropShadow_20_48"/>
<feBlend mode="normal" in="SourceGraphic" in2="effect1_dropShadow_20_48" result="shape"/>
</filter>
<filter id="filter1_d_20_48" x="472.425" y="330.094" width="321.921" height="321.921" filterUnits="userSpaceOnUse" color-interpolation-filters="sRGB">
<feFlood flood-opacity="0" result="BackgroundImageFix"/>
<feColorMatrix in="SourceAlpha" type="matrix" values="0 0 0 0 0 0 0 0 0 0 0 0 0 0 0 0 0 0 127 0" result="hardAlpha"/>
<feOffset dx="4" dy="5"/>
<feGaussianBlur stdDeviation="10"/>
<feComposite in2="hardAlpha" operator="out"/>
<feColorMatrix type="matrix" values="0 0 0 0 0 0 0 0 0 0 0 0 0 0 0 0 0 0 0.46 0"/>
<feBlend mode="normal" in2="BackgroundImageFix" result="effect1_dropShadow_20_48"/>
<feBlend mode="normal" in="SourceGraphic" in2="effect1_dropShadow_20_48" result="shape"/>
</filter>
<filter id="filter2_d_20_48" x="503.309" y="360.187" width="260.152" height="260.152" filterUnits="userSpaceOnUse" color-interpolation-filters="sRGB">
<feFlood flood-opacity="0" result="BackgroundImageFix"/>
<feColorMatrix in="SourceAlpha" type="matrix" values="0 0 0 0 0 0 0 0 0 0 0 0 0 0 0 0 0 0 127 0" result="hardAlpha"/>
<feOffset dx="4" dy="5"/>
<feGaussianBlur stdDeviation="10"/>
<feComposite in2="hardAlpha" operator="out"/>
<feColorMatrix type="matrix" values="0 0 0 0 0 0 0 0 0 0 0 0 0 0 0 0 0 0 0.55 0"/>
<feBlend mode="normal" in2="BackgroundImageFix" result="effect1_dropShadow_20_48"/>
<feBlend mode="normal" in="SourceGraphic" in2="effect1_dropShadow_20_48" result="shape"/>
</filter>
<filter id="filter3_d_20_48" x="152" y="149" width="1299" height="946" filterUnits="userSpaceOnUse" color-interpolation-filters="sRGB">
<feFlood flood-opacity="0" result="BackgroundImageFix"/>
<feColorMatrix in="SourceAlpha" type="matrix" values="0 0 0 0 0 0 0 0 0 0 0 0 0 0 0 0 0 0 127 0" result="hardAlpha"/>
<feOffset dx="-7" dy="5"/>
<feGaussianBlur stdDeviation="19.5"/>
<feComposite in2="hardAlpha" operator="out"/>
<feColorMatrix type="matrix" values="0 0 0 0 0 0 0 0 0 0 0 0 0 0 0 0 0 0 0.25 0"/>
<feBlend mode="normal" in2="BackgroundImageFix" result="effect1_dropShadow_20_48"/>
<feBlend mode="normal" in="SourceGraphic" in2="effect1_dropShadow_20_48" result="shape"/>
</filter>
<filter id="filter4_d_20_48" x="641.571" y="482.48" width="341.858" height="341.766" filterUnits="userSpaceOnUse" color-interpolation-filters="sRGB">
<feFlood flood-opacity="0" result="BackgroundImageFix"/>
<feColorMatrix in="SourceAlpha" type="matrix" values="0 0 0 0 0 0 0 0 0 0 0 0 0 0 0 0 0 0 127 0" result="hardAlpha"/>
<feOffset dx="4" dy="5"/>
<feGaussianBlur stdDeviation="10"/>
<feComposite in2="hardAlpha" operator="out"/>
<feColorMatrix type="matrix" values="0 0 0 0 0 0 0 0 0 0 0 0 0 0 0 0 0 0 0.46 0"/>
<feBlend mode="normal" in2="BackgroundImageFix" result="effect1_dropShadow_20_48"/>
<feBlend mode="normal" in="SourceGraphic" in2="effect1_dropShadow_20_48" result="shape"/>
</filter>
<filter id="filter5_d_20_48" x="674.64" y="514.691" width="275.721" height="275.648" filterUnits="userSpaceOnUse" color-interpolation-filters="sRGB">
<feFlood flood-opacity="0" result="BackgroundImageFix"/>
<feColorMatrix in="SourceAlpha" type="matrix" values="0 0 0 0 0 0 0 0 0 0 0 0 0 0 0 0 0 0 127 0" result="hardAlpha"/>
<feOffset dx="4" dy="5"/>
<feGaussianBlur stdDeviation="10"/>
<feComposite in2="hardAlpha" operator="out"/>
<feColorMatrix type="matrix" values="0 0 0 0 0 0 0 0 0 0 0 0 0 0 0 0 0 0 0.75 0"/>
<feBlend mode="normal" in2="BackgroundImageFix" result="effect1_dropShadow_20_48"/>
<feBlend mode="normal" in="SourceGraphic" in2="effect1_dropShadow_20_48" result="shape"/>
</filter>
<filter id="filter6_d_20_48" x="650.179" y="409.324" width="72.4417" height="67.3359" filterUnits="userSpaceOnUse" color-interpolation-filters="sRGB">
<feFlood flood-opacity="0" result="BackgroundImageFix"/>
<feColorMatrix in="SourceAlpha" type="matrix" values="0 0 0 0 0 0 0 0 0 0 0 0 0 0 0 0 0 0 127 0" result="hardAlpha"/>
<feOffset dy="4"/>
<feGaussianBlur stdDeviation="2"/>
<feComposite in2="hardAlpha" operator="out"/>
<feColorMatrix type="matrix" values="0 0 0 0 0 0 0 0 0 0 0 0 0 0 0 0 0 0 0.25 0"/>
<feBlend mode="normal" in2="BackgroundImageFix" result="effect1_dropShadow_20_48"/>
<feBlend mode="normal" in="SourceGraphic" in2="effect1_dropShadow_20_48" result="shape"/>
</filter>
<filter id="filter7_d_20_48" x="731.579" y="409.324" width="72.4417" height="67.3359" filterUnits="userSpaceOnUse" color-interpolation-filters="sRGB">
<feFlood flood-opacity="0" result="BackgroundImageFix"/>
<feColorMatrix in="SourceAlpha" type="matrix" values="0 0 0 0 0 0 0 0 0 0 0 0 0 0 0 0 0 0 127 0" result="hardAlpha"/>
<feOffset dy="4"/>
<feGaussianBlur stdDeviation="2"/>
<feComposite in2="hardAlpha" operator="out"/>
<feColorMatrix type="matrix" values="0 0 0 0 0 0 0 0 0 0 0 0 0 0 0 0 0 0 0.25 0"/>
<feBlend mode="normal" in2="BackgroundImageFix" result="effect1_dropShadow_20_48"/>
<feBlend mode="normal" in="SourceGraphic" in2="effect1_dropShadow_20_48" result="shape"/>
</filter>
<filter id="filter8_d_20_48" x="812.979" y="409.324" width="72.4417" height="67.3359" filterUnits="userSpaceOnUse" color-interpolation-filters="sRGB">
<feFlood flood-opacity="0" result="BackgroundImageFix"/>
<feColorMatrix in="SourceAlpha" type="matrix" values="0 0 0 0 0 0 0 0 0 0 0 0 0 0 0 0 0 0 127 0" result="hardAlpha"/>
<feOffset dy="4"/>
<feGaussianBlur stdDeviation="2"/>
<feComposite in2="hardAlpha" operator="out"/>
<feColorMatrix type="matrix" values="0 0 0 0 0 0 0 0 0 0 0 0 0 0 0 0 0 0 0.25 0"/>
<feBlend mode="normal" in2="BackgroundImageFix" result="effect1_dropShadow_20_48"/>
<feBlend mode="normal" in="SourceGraphic" in2="effect1_dropShadow_20_48" result="shape"/>
</filter>
<filter id="filter9_d_20_48" x="894.379" y="409.324" width="72.4417" height="67.3359" filterUnits="userSpaceOnUse" color-interpolation-filters="sRGB">
<feFlood flood-opacity="0" result="BackgroundImageFix"/>
<feColorMatrix in="SourceAlpha" type="matrix" values="0 0 0 0 0 0 0 0 0 0 0 0 0 0 0 0 0 0 127 0" result="hardAlpha"/>
<feOffset dy="4"/>
<feGaussianBlur stdDeviation="2"/>
<feComposite in2="hardAlpha" operator="out"/>
<feColorMatrix type="matrix" values="0 0 0 0 0 0 0 0 0 0 0 0 0 0 0 0 0 0 0.25 0"/>
<feBlend mode="normal" in2="BackgroundImageFix" result="effect1_dropShadow_20_48"/>
<feBlend mode="normal" in="SourceGraphic" in2="effect1_dropShadow_20_48" result="shape"/>
</filter>
<filter id="filter10_d_20_48" x="1281.88" y="238.945" width="68.202" height="46.1445" filterUnits="userSpaceOnUse" color-interpolation-filters="sRGB">
<feFlood flood-opacity="0" result="BackgroundImageFix"/>
<feColorMatrix in="SourceAlpha" type="matrix" values="0 0 0 0 0 0 0 0 0 0 0 0 0 0 0 0 0 0 127 0" result="hardAlpha"/>
<feOffset dy="4"/>
<feGaussianBlur stdDeviation="2"/>
<feComposite in2="hardAlpha" operator="out"/>
<feColorMatrix type="matrix" values="0 0 0 0 0 0 0 0 0 0 0 0 0 0 0 0 0 0 0.25 0"/>
<feBlend mode="normal" in2="BackgroundImageFix" result="effect1_dropShadow_20_48"/>
<feBlend mode="normal" in="SourceGraphic" in2="effect1_dropShadow_20_48" result="shape"/>
</filter>
</defs>
</svg>
