<svg width="284" height="50" viewBox="0 0 284 50" fill="none" xmlns="http://www.w3.org/2000/svg">
<path d="M0 24.0674V21.5771L15.1172 12.5439V15.7422L4.19922 22.8223L15.1172 29.9023V33.1006L0 24.0674Z" fill="#D6D6D6"/>
<path d="M21.4293 49.5459V9.5459H25.4793V12.2959H26.1793C26.746 11.2626 27.3793 10.4959 28.0793 9.9959C28.8126 9.46256 29.8626 9.1959 31.2293 9.1959C33.0293 9.1959 34.3793 9.6959 35.2793 10.6959C36.1793 11.6626 36.6793 13.2626 36.7793 15.4959C36.8126 16.5292 36.8293 17.8459 36.8293 19.4459C36.8626 21.0459 36.8793 22.7459 36.8793 24.5459C36.8793 26.3126 36.8626 28.0126 36.8293 29.6459C36.8293 31.2459 36.8126 32.5626 36.7793 33.5959C36.6793 35.8292 36.146 37.4459 35.1793 38.4459C34.2126 39.4126 32.8293 39.8959 31.0293 39.8959C29.896 39.8959 28.946 39.6626 28.1793 39.1959C27.446 38.6959 26.7793 37.8959 26.1793 36.7959H25.4793V49.5459H21.4293ZM29.6793 36.8959C30.6793 36.8959 31.4293 36.6626 31.9293 36.1959C32.4293 35.7292 32.696 34.9626 32.7293 33.8959C32.8293 31.1292 32.8793 28.7459 32.8793 26.7459C32.9126 24.7126 32.9126 22.7959 32.8793 20.9959C32.846 19.1959 32.796 17.2459 32.7293 15.1459C32.696 14.1126 32.4626 13.3626 32.0293 12.8959C31.596 12.4292 30.8793 12.1959 29.8793 12.1959C27.646 12.1959 26.1793 13.1792 25.4793 15.1459V33.9459C25.8793 35.0459 26.4126 35.8126 27.0793 36.2459C27.746 36.6792 28.6126 36.8959 29.6793 36.8959Z" fill="#D6D6D6"/>
<path d="M41.5953 39.5459V9.5459H45.6453V12.5459H46.4953C46.7953 11.3792 47.2953 10.5792 47.9953 10.1459C48.7286 9.67923 49.712 9.4459 50.9453 9.4459C51.2453 9.4459 51.5453 9.46256 51.8453 9.4959C52.1786 9.4959 52.512 9.51256 52.8453 9.5459V12.6459H50.9953C49.462 12.6459 48.262 12.8959 47.3953 13.3959C46.562 13.8626 45.9786 14.7126 45.6453 15.9459V39.5459H41.5953Z" fill="#D6D6D6"/>
<path d="M62.9184 39.8959C60.2184 39.8959 58.3017 39.3626 57.1684 38.2959C56.0684 37.1959 55.4684 35.3959 55.3684 32.8959C55.3017 31.5292 55.2517 29.8626 55.2184 27.8959C55.185 25.9292 55.1684 23.9126 55.1684 21.8459C55.2017 19.7459 55.2684 17.8626 55.3684 16.1959C55.4684 13.6626 56.0684 11.8626 57.1684 10.7959C58.3017 9.72923 60.2184 9.1959 62.9184 9.1959C65.6517 9.1959 67.5684 9.7459 68.6684 10.8459C69.7684 11.9126 70.3684 13.6959 70.4684 16.1959C70.535 17.7292 70.585 19.4792 70.6184 21.4459C70.6517 23.3792 70.6517 25.3459 70.6184 27.3459C70.6184 29.3459 70.5684 31.1959 70.4684 32.8959C70.3684 35.3959 69.7684 37.1959 68.6684 38.2959C67.5684 39.3626 65.6517 39.8959 62.9184 39.8959ZM62.9184 36.8459C64.2517 36.8459 65.1684 36.5959 65.6684 36.0959C66.2017 35.5959 66.485 34.8126 66.5184 33.7459C66.6184 30.7126 66.6684 27.6792 66.6684 24.6459C66.7017 21.6126 66.6517 18.5126 66.5184 15.3459C66.485 14.2459 66.2017 13.4626 65.6684 12.9959C65.135 12.4959 64.2184 12.2459 62.9184 12.2459C61.6517 12.2459 60.735 12.4959 60.1684 12.9959C59.635 13.4959 59.3517 14.3126 59.3184 15.4459C59.185 18.1126 59.1184 21.0459 59.1184 24.2459C59.1184 27.4459 59.185 30.5792 59.3184 33.6459C59.3517 34.7792 59.635 35.5959 60.1684 36.0959C60.735 36.5959 61.6517 36.8459 62.9184 36.8459Z" fill="#D6D6D6"/>
<path d="M83.5262 47.9459C81.1595 47.9459 79.2595 47.5959 77.8262 46.8959C76.3928 46.1959 75.6095 45.1292 75.4762 43.6959C75.4762 43.5292 75.4595 43.3292 75.4262 43.0959C75.4262 42.8959 75.4428 42.6959 75.4762 42.4959C75.5095 41.5626 75.8595 40.8292 76.5262 40.2959C77.1928 39.7959 77.9595 39.4792 78.8262 39.3459V38.6459C77.1262 38.1792 76.2262 37.3126 76.1262 36.0459C76.1262 35.8459 76.1262 35.6792 76.1262 35.5459C76.1262 35.3792 76.1262 35.2126 76.1262 35.0459C76.1595 34.3792 76.4262 33.7959 76.9262 33.2959C77.4595 32.7959 78.1095 32.4959 78.8762 32.3959V31.6959C77.8428 31.2292 77.0928 30.5292 76.6262 29.5959C76.1595 28.6292 75.8762 27.3959 75.7762 25.8959C75.7095 24.1292 75.6762 22.4626 75.6762 20.8959C75.6762 19.3292 75.7095 17.6126 75.7762 15.7459C75.9095 13.3792 76.5428 11.6959 77.6762 10.6959C78.8428 9.66256 80.6928 9.1459 83.2262 9.1459C85.0262 9.1459 86.4428 9.3959 87.4762 9.8959C88.5428 10.3626 89.3262 11.1292 89.8262 12.1959H90.4762C90.5762 11.3626 90.9262 10.7126 91.5262 10.2459C92.1262 9.77923 92.9095 9.5459 93.8762 9.5459V12.6959H93.3262C92.5262 12.6959 91.8762 12.9792 91.3762 13.5459C90.8762 14.1126 90.6262 14.9959 90.6262 16.1959C90.6928 18.0292 90.7262 19.7292 90.7262 21.2959C90.7262 22.8626 90.6762 24.3959 90.5762 25.8959C90.4762 28.2292 89.8595 29.9126 88.7262 30.9459C87.6262 31.9459 85.7928 32.4459 83.2262 32.4459C83.0928 32.4459 82.9595 32.4459 82.8262 32.4459C82.6928 32.4459 82.5762 32.4459 82.4762 32.4459C81.3428 32.4459 80.5428 32.6292 80.0762 32.9959C79.6095 33.3292 79.3762 33.7792 79.3762 34.3459V34.6459C79.3762 35.2792 79.7262 35.6959 80.4262 35.8959C81.1595 36.0959 82.2762 36.2292 83.7762 36.2959C86.4095 36.3626 88.4095 36.7792 89.7762 37.5459C91.1762 38.3126 91.9428 39.5959 92.0762 41.3959C92.1428 41.8959 92.1428 42.3959 92.0762 42.8959C91.9428 44.8626 91.0762 46.1959 89.4762 46.8959C87.8762 47.5959 85.8928 47.9459 83.5262 47.9459ZM83.2262 29.3459C84.3262 29.3459 85.1762 29.1292 85.7762 28.6959C86.3762 28.2292 86.6928 27.4126 86.7262 26.2459C86.7928 24.5126 86.8262 22.7792 86.8262 21.0459C86.8262 19.3126 86.7762 17.4126 86.6762 15.3459C86.6428 14.2126 86.3595 13.4292 85.8262 12.9959C85.2928 12.5292 84.4262 12.2959 83.2262 12.2959C81.9928 12.2959 81.0928 12.5292 80.5262 12.9959C79.9595 13.4626 79.6762 14.2792 79.6762 15.4459C79.6095 17.4792 79.5595 19.3459 79.5262 21.0459C79.5262 22.7459 79.5762 24.4792 79.6762 26.2459C79.7095 27.4126 80.0262 28.2292 80.6262 28.6959C81.2262 29.1292 82.0928 29.3459 83.2262 29.3459ZM83.6262 44.8459C85.1928 44.8459 86.3595 44.6626 87.1262 44.2959C87.8928 43.9626 88.3595 43.3959 88.5262 42.5959C88.5928 42.2292 88.5762 41.8459 88.4762 41.4459C88.3762 40.7459 87.9262 40.2292 87.1262 39.8959C86.3595 39.5626 85.1928 39.3626 83.6262 39.2959C82.0595 39.2626 80.9262 39.4126 80.2262 39.7459C79.5595 40.1126 79.1928 40.7292 79.1262 41.5959C79.0928 41.9292 79.0928 42.2959 79.1262 42.6959C79.1928 43.4959 79.5762 44.0459 80.2762 44.3459C80.9762 44.6792 82.0928 44.8459 83.6262 44.8459Z" fill="#D6D6D6"/>
<path d="M96.3316 39.5459V9.5459H100.382V12.5459H101.232C101.532 11.3792 102.032 10.5792 102.732 10.1459C103.465 9.67923 104.448 9.4459 105.682 9.4459C105.982 9.4459 106.282 9.46256 106.582 9.4959C106.915 9.4959 107.248 9.51256 107.582 9.5459V12.6459H105.732C104.198 12.6459 102.998 12.8959 102.132 13.3959C101.298 13.8626 100.715 14.7126 100.382 15.9459V39.5459H96.3316Z" fill="#D6D6D6"/>
<path d="M115.05 39.8459C111.417 39.8459 109.467 37.8959 109.2 33.9959C109.167 33.5626 109.133 33.1459 109.1 32.7459C109.1 32.3126 109.117 31.8792 109.15 31.4459C109.25 29.6792 109.717 28.1792 110.55 26.9459C111.383 25.6792 112.883 24.5126 115.05 23.4459C115.85 23.0792 116.7 22.7126 117.6 22.3459C118.5 21.9459 119.4 21.5959 120.3 21.2959V15.3459C120.3 14.2792 120.033 13.5126 119.5 13.0459C119 12.5459 118.167 12.2959 117 12.2959C116 12.2959 115.2 12.4959 114.6 12.8959C114 13.2959 113.683 14.0292 113.65 15.0959C113.617 15.8292 113.6 16.7126 113.6 17.7459C113.6 18.7459 113.617 19.4959 113.65 19.9959H109.85C109.783 19.2959 109.75 18.5626 109.75 17.7959C109.75 17.0292 109.767 16.3126 109.8 15.6459C109.867 13.4126 110.433 11.7792 111.5 10.7459C112.6 9.67923 114.483 9.1459 117.15 9.1459C119.85 9.1459 121.7 9.6959 122.7 10.7959C123.7 11.8959 124.2 13.6792 124.2 16.1459L124.15 39.5459H120.2V36.7959H119.65C119.217 37.7626 118.667 38.5126 118 39.0459C117.333 39.5792 116.35 39.8459 115.05 39.8459ZM116.25 36.8959C118.15 36.8959 119.483 35.9626 120.25 34.0959V24.4959C119.55 24.7292 118.85 24.9959 118.15 25.2959C117.483 25.5959 116.717 26.0126 115.85 26.5459C114.75 27.1792 114.017 27.9126 113.65 28.7459C113.317 29.5459 113.15 30.4626 113.15 31.4959C113.15 31.9626 113.15 32.3626 113.15 32.6959C113.15 33.0292 113.167 33.3626 113.2 33.6959C113.267 34.6959 113.567 35.4792 114.1 36.0459C114.633 36.6126 115.35 36.8959 116.25 36.8959Z" fill="#D6D6D6"/>
<path d="M256.353 40.5469H253.423L261.089 5H264.019L256.353 40.5469Z" fill="#D6D6D6"/>
<path d="M268.486 33.1006V29.9023L279.404 22.8223L268.486 15.7422V12.5439L283.604 21.5771V24.0674L268.486 33.1006Z" fill="#D6D6D6"/>
<path d="M129.535 40V10H133.485V12.75H134.285C134.818 11.75 135.418 10.9833 136.085 10.45C136.785 9.91667 137.801 9.65 139.135 9.65C141.768 9.65 143.418 10.7667 144.085 13H144.785C145.318 11.9667 145.985 11.15 146.785 10.55C147.585 9.95 148.651 9.65 149.985 9.65C151.718 9.65 153.018 10.15 153.885 11.15C154.751 12.1167 155.201 13.7167 155.235 15.95V40H151.235V15.65C151.235 14.5833 151.001 13.8167 150.535 13.35C150.068 12.8833 149.385 12.65 148.485 12.65C146.585 12.65 145.235 13.6 144.435 15.5V40H140.435V15.65C140.435 14.5833 140.201 13.8167 139.735 13.35C139.301 12.8833 138.618 12.65 137.685 12.65C135.618 12.65 134.218 13.6333 133.485 15.6V40H129.535Z" fill="#754DE5"/>
<path d="M167.948 40.35C165.248 40.35 163.331 39.8167 162.198 38.75C161.098 37.65 160.498 35.85 160.398 33.35C160.331 31.9833 160.281 30.3167 160.248 28.35C160.214 26.3833 160.198 24.3667 160.198 22.3C160.231 20.2 160.298 18.3167 160.398 16.65C160.498 14.1167 161.098 12.3167 162.198 11.25C163.331 10.1833 165.248 9.65 167.948 9.65C170.681 9.65 172.598 10.2 173.698 11.3C174.798 12.3667 175.398 14.15 175.498 16.65C175.564 18.1833 175.614 19.9333 175.648 21.9C175.681 23.8333 175.681 25.8 175.648 27.8C175.648 29.8 175.598 31.65 175.498 33.35C175.398 35.85 174.798 37.65 173.698 38.75C172.598 39.8167 170.681 40.35 167.948 40.35ZM167.948 37.3C169.281 37.3 170.198 37.05 170.698 36.55C171.231 36.05 171.514 35.2667 171.548 34.2C171.648 31.1667 171.698 28.1333 171.698 25.1C171.731 22.0667 171.681 18.9667 171.548 15.8C171.514 14.7 171.231 13.9167 170.698 13.45C170.164 12.95 169.248 12.7 167.948 12.7C166.681 12.7 165.764 12.95 165.198 13.45C164.664 13.95 164.381 14.7667 164.348 15.9C164.214 18.5667 164.148 21.5 164.148 24.7C164.148 27.9 164.214 31.0333 164.348 34.1C164.381 35.2333 164.664 36.05 165.198 36.55C165.764 37.05 166.681 37.3 167.948 37.3Z" fill="#754DE5"/>
<path d="M191.41 0H195.46V40H191.41V37.25H190.71C190.143 38.2833 189.477 39.0667 188.71 39.6C187.943 40.1 186.91 40.35 185.61 40.35C183.777 40.35 182.427 39.8667 181.56 38.9C180.693 37.9 180.21 36.2833 180.11 34.05C180.077 32.2167 180.043 30.2333 180.01 28.1C180.01 25.9333 180.01 23.8 180.01 21.7C180.043 19.5667 180.077 17.65 180.11 15.95C180.177 13.65 180.693 12.0333 181.66 11.1C182.627 10.1333 183.977 9.65 185.71 9.65C187.01 9.65 188.027 9.91667 188.76 10.45C189.527 10.95 190.193 11.7167 190.76 12.75H191.41V0ZM187.01 37.35C188.043 37.35 188.943 37.1167 189.71 36.65C190.477 36.1833 191.043 35.4333 191.41 34.4V15.6C191.043 14.5667 190.477 13.8167 189.71 13.35C188.943 12.8833 188.06 12.65 187.06 12.65C186.06 12.65 185.327 12.8833 184.86 13.35C184.427 13.8167 184.193 14.5667 184.16 15.6C184.093 17.6667 184.043 19.8167 184.01 22.05C184.01 24.2833 184.01 26.45 184.01 28.55C184.043 30.65 184.077 32.5333 184.11 34.2C184.177 35.3667 184.443 36.1833 184.91 36.65C185.377 37.1167 186.077 37.35 187.01 37.35Z" fill="#754DE5"/>
<path d="M208.475 40.35C205.775 40.35 203.858 39.8167 202.725 38.75C201.625 37.65 201.025 35.85 200.925 33.35C200.858 31.9833 200.808 30.3167 200.775 28.35C200.742 26.3833 200.725 24.3667 200.725 22.3C200.758 20.2 200.825 18.3167 200.925 16.65C201.025 14.1167 201.625 12.3167 202.725 11.25C203.858 10.1833 205.775 9.65 208.475 9.65C211.208 9.65 213.125 10.2 214.225 11.3C215.325 12.3667 215.925 14.15 216.025 16.65C216.092 18.1833 216.142 19.9333 216.175 21.9C216.208 23.8333 216.208 25.8 216.175 27.8C216.175 29.8 216.125 31.65 216.025 33.35C215.925 35.85 215.325 37.65 214.225 38.75C213.125 39.8167 211.208 40.35 208.475 40.35ZM208.475 37.3C209.808 37.3 210.725 37.05 211.225 36.55C211.758 36.05 212.042 35.2667 212.075 34.2C212.175 31.1667 212.225 28.1333 212.225 25.1C212.258 22.0667 212.208 18.9667 212.075 15.8C212.042 14.7 211.758 13.9167 211.225 13.45C210.692 12.95 209.775 12.7 208.475 12.7C207.208 12.7 206.292 12.95 205.725 13.45C205.192 13.95 204.908 14.7667 204.875 15.9C204.742 18.5667 204.675 21.5 204.675 24.7C204.675 27.9 204.742 31.0333 204.875 34.1C204.908 35.2333 205.192 36.05 205.725 36.55C206.292 37.05 207.208 37.3 208.475 37.3Z" fill="#754DE5"/>
<path d="M220.941 40V10H224.991V13H225.841C226.141 11.8333 226.641 11.0333 227.341 10.6C228.074 10.1333 229.058 9.9 230.291 9.9C230.591 9.9 230.891 9.91667 231.191 9.95C231.524 9.95 231.858 9.96667 232.191 10V13.1H230.341C228.808 13.1 227.608 13.35 226.741 13.85C225.908 14.3167 225.324 15.1667 224.991 16.4V40H220.941Z" fill="#754DE5"/>
<path d="M242.264 40.35C239.564 40.35 237.647 39.8167 236.514 38.75C235.414 37.65 234.814 35.85 234.714 33.35C234.647 31.9833 234.597 30.3167 234.564 28.35C234.531 26.3833 234.514 24.3667 234.514 22.3C234.547 20.2 234.614 18.3167 234.714 16.65C234.814 14.1167 235.414 12.3167 236.514 11.25C237.647 10.1833 239.564 9.65 242.264 9.65C244.997 9.65 246.914 10.2 248.014 11.3C249.114 12.3667 249.714 14.15 249.814 16.65C249.881 18.1833 249.931 19.9333 249.964 21.9C249.997 23.8333 249.997 25.8 249.964 27.8C249.964 29.8 249.914 31.65 249.814 33.35C249.714 35.85 249.114 37.65 248.014 38.75C246.914 39.8167 244.997 40.35 242.264 40.35ZM242.264 37.3C243.597 37.3 244.514 37.05 245.014 36.55C245.547 36.05 245.831 35.2667 245.864 34.2C245.964 31.1667 246.014 28.1333 246.014 25.1C246.047 22.0667 245.997 18.9667 245.864 15.8C245.831 14.7 245.547 13.9167 245.014 13.45C244.481 12.95 243.564 12.7 242.264 12.7C240.997 12.7 240.081 12.95 239.514 13.45C238.981 13.95 238.697 14.7667 238.664 15.9C238.531 18.5667 238.464 21.5 238.464 24.7C238.464 27.9 238.531 31.0333 238.664 34.1C238.697 35.2333 238.981 36.05 239.514 36.55C240.081 37.05 240.997 37.3 242.264 37.3Z" fill="#754DE5"/>
</svg>
