<svg width="1359" height="1010" viewBox="0 0 1359 1010" fill="none" xmlns="http://www.w3.org/2000/svg">
<g clip-path="url(#clip0_20_48)">
<path d="M0 32.4783C0 14.541 14.5405 0 32.4771 0H1108.18C1126.12 0 1140.66 14.541 1140.66 32.4783V778.687C1140.66 796.624 1126.12 811.166 1108.18 811.166H32.4772C14.5405 811.166 0 796.624 0 778.687V32.4783Z" fill="#FBFBFB"/>
<rect x="770.531" y="411.003" width="61.7692" height="57.0177" rx="17" fill="#7550DD"/>
<path d="M800.23 442.183C800.23 441.631 799.782 441.183 799.23 441.183H795.288C794.736 441.183 794.288 440.736 794.288 440.183V439.456C794.288 438.904 794.736 438.456 795.288 438.456H799.23C799.782 438.456 800.23 438.008 800.23 437.456V433.384C800.23 432.832 800.678 432.384 801.23 432.384H802.022C802.574 432.384 803.022 432.832 803.022 433.384V437.456C803.022 438.008 803.47 438.456 804.022 438.456H808.029C808.581 438.456 809.029 438.904 809.029 439.456V440.183C809.029 440.736 808.581 441.183 808.029 441.183H804.022C803.47 441.183 803.022 441.631 803.022 442.183V446.32C803.022 446.872 802.574 447.32 802.022 447.32H801.23C800.678 447.32 800.23 446.872 800.23 446.32V442.183Z" fill="white"/>
<rect x="307.262" y="411.003" width="61.7692" height="57.0177" rx="17" fill="#E1E1E6"/>
<path d="M331.811 438.928C331.811 438.375 332.259 437.928 332.811 437.928H343.482C344.034 437.928 344.482 438.375 344.482 438.928V440.095C344.482 440.648 344.034 441.095 343.482 441.095H332.811C332.259 441.095 331.811 440.648 331.811 440.095V438.928Z" fill="#3A3C55"/>
<rect x="426.049" y="216.984" width="60.1854" height="55.4339" rx="17" fill="#E1E1E6"/>
<path d="M424.645 251.51V250.045H429.783V245.651H427.681C426.389 245.651 425.287 245.176 424.377 244.224C423.466 243.272 423.01 242.12 423.01 240.77C423.01 239.793 423.267 238.894 423.781 238.073C424.295 237.251 424.988 236.653 425.86 236.278C426 235.058 426.51 234.037 427.389 233.215C428.269 232.393 429.301 231.982 430.484 231.982C431.667 231.982 432.699 232.393 433.578 233.215C434.458 234.037 434.968 235.058 435.108 236.278C435.98 236.653 436.673 237.251 437.187 238.073C437.701 238.894 437.958 239.793 437.958 240.77C437.958 242.12 437.502 243.272 436.591 244.224C435.68 245.176 434.579 245.651 433.287 245.651H431.185V250.045H436.556V251.51H424.645ZM427.681 244.187H433.287C434.19 244.187 434.96 243.853 435.599 243.186C436.237 242.519 436.556 241.714 436.556 240.77C436.556 240.086 436.369 239.464 435.996 238.902C435.622 238.341 435.139 237.922 434.548 237.645L433.8 237.304L433.707 236.449C433.598 235.587 433.24 234.871 432.633 234.301C432.025 233.732 431.309 233.447 430.484 233.447C429.659 233.447 428.942 233.732 428.335 234.301C427.728 234.871 427.37 235.587 427.261 236.449L427.167 237.304L426.42 237.645C425.828 237.922 425.346 238.341 424.972 238.902C424.598 239.464 424.412 240.086 424.412 240.77C424.412 241.714 424.731 242.519 425.369 243.186C426.008 243.853 426.778 244.187 427.681 244.187Z" fill="#3A3C55"/>
<rect x="502.073" y="216.984" width="60.1854" height="55.4339" rx="17" fill="#7550DD"/>
<path d="M496.85 247.79C496.641 247.79 496.458 247.709 496.301 247.546C496.144 247.383 496.065 247.194 496.065 246.977C496.065 246.76 496.144 246.57 496.301 246.407C496.458 246.244 496.641 246.163 496.85 246.163C497.059 246.163 497.242 246.244 497.399 246.407C497.556 246.57 497.635 246.76 497.635 246.977C497.635 247.194 497.556 247.383 497.399 247.546C497.242 247.709 497.059 247.79 496.85 247.79ZM507.612 247.79C507.403 247.79 507.22 247.709 507.063 247.546C506.906 247.383 506.827 247.194 506.827 246.977C506.827 246.76 506.906 246.57 507.063 246.407C507.22 246.244 507.403 246.163 507.612 246.163C507.821 246.163 508.004 246.244 508.161 246.407C508.318 246.57 508.397 246.76 508.397 246.977C508.397 247.194 508.318 247.383 508.161 247.546C508.004 247.709 507.821 247.79 507.612 247.79ZM499.54 251.51C499.331 251.51 499.148 251.428 498.991 251.266C498.834 251.103 498.756 250.913 498.756 250.696C498.756 250.479 498.834 250.289 498.991 250.126C499.148 249.964 499.331 249.882 499.54 249.882C499.75 249.882 499.933 249.964 500.09 250.126C500.247 250.289 500.325 250.479 500.325 250.696C500.325 250.913 500.247 251.103 500.09 251.266C499.933 251.428 499.75 251.51 499.54 251.51ZM502.231 247.79C502.022 247.79 501.839 247.709 501.682 247.546C501.525 247.383 501.446 247.194 501.446 246.977C501.446 246.76 501.525 246.57 501.682 246.407C501.839 246.244 502.022 246.163 502.231 246.163C502.44 246.163 502.623 246.244 502.78 246.407C502.937 246.57 503.016 246.76 503.016 246.977C503.016 247.194 502.937 247.383 502.78 247.546C502.623 247.709 502.44 247.79 502.231 247.79ZM504.922 251.51C504.712 251.51 504.529 251.428 504.372 251.266C504.215 251.103 504.137 250.913 504.137 250.696C504.137 250.479 504.215 250.289 504.372 250.126C504.529 249.964 504.712 249.882 504.922 249.882C505.131 249.882 505.314 249.964 505.471 250.126C505.628 250.289 505.706 250.479 505.706 250.696C505.706 250.913 505.628 251.103 505.471 251.266C505.314 251.428 505.131 251.51 504.922 251.51ZM497.971 244.536C496.671 244.536 495.561 244.059 494.641 243.106C493.722 242.153 493.263 241.002 493.263 239.654C493.263 238.43 493.685 237.337 494.529 236.376C495.374 235.415 496.424 234.888 497.68 234.795C498.158 233.927 498.789 233.242 499.574 232.738C500.359 232.234 501.244 231.982 502.231 231.982C503.591 231.982 504.731 232.428 505.65 233.319C506.569 234.21 507.134 235.314 507.343 236.632C508.524 236.694 509.462 237.108 510.157 237.875C510.852 238.643 511.199 239.545 511.199 240.584C511.199 241.669 510.829 242.598 510.09 243.373C509.35 244.148 508.449 244.536 507.388 244.536H497.971ZM497.971 243.141H507.388C508.075 243.141 508.658 242.889 509.137 242.385C509.615 241.882 509.854 241.273 509.854 240.56C509.854 239.863 509.615 239.266 509.137 238.77C508.658 238.275 508.075 238.027 507.388 238.027H506.043V237.329C506.043 236.229 505.673 235.295 504.933 234.528C504.193 233.761 503.292 233.377 502.231 233.377C501.469 233.377 500.77 233.59 500.135 234.017C499.499 234.443 499.032 235.02 498.733 235.748L498.554 236.167H497.926C496.999 236.198 496.215 236.55 495.572 237.225C494.929 237.899 494.608 238.708 494.608 239.654C494.608 240.615 494.937 241.436 495.594 242.118C496.252 242.8 497.044 243.141 497.971 243.141Z" fill="white"/>
<rect x="578.096" y="216.984" width="60.1854" height="55.4339" rx="17" fill="#E1E1E6"/>
<path d="M567.228 243.288C567.228 244.367 567.461 245.382 567.927 246.332C568.393 247.283 569.043 248.075 569.877 248.709C569.811 248.503 569.762 248.294 569.73 248.08C569.697 247.865 569.681 247.656 569.681 247.45C569.681 246.902 569.779 246.388 569.975 245.908C570.171 245.429 570.457 244.992 570.833 244.598L573.604 241.746L576.375 244.598C576.751 244.992 577.038 245.429 577.234 245.908C577.43 246.388 577.528 246.902 577.528 247.45C577.528 247.656 577.512 247.865 577.479 248.08C577.446 248.294 577.397 248.503 577.332 248.709C578.166 248.075 578.815 247.283 579.281 246.332C579.747 245.382 579.98 244.367 579.98 243.288C579.98 242.363 579.792 241.459 579.416 240.577C579.04 239.695 578.501 238.885 577.798 238.149C577.454 238.406 577.095 238.607 576.719 238.753C576.343 238.898 575.967 238.971 575.591 238.971C574.593 238.971 573.768 238.616 573.114 237.905C572.46 237.194 572.133 236.299 572.133 235.22V234.706C571.381 235.271 570.702 235.896 570.098 236.582C569.493 237.267 568.978 237.982 568.553 238.727C568.128 239.472 567.801 240.234 567.572 241.014C567.343 241.793 567.228 242.551 567.228 243.288ZM573.604 243.904L571.863 245.703C571.634 245.943 571.459 246.208 571.336 246.499C571.213 246.791 571.152 247.107 571.152 247.45C571.152 248.152 571.389 248.748 571.863 249.236C572.337 249.724 572.918 249.968 573.604 249.968C574.291 249.968 574.871 249.724 575.345 249.236C575.82 248.748 576.057 248.152 576.057 247.45C576.057 247.107 575.995 246.791 575.873 246.499C575.75 246.208 575.574 245.943 575.345 245.703L573.604 243.904ZM573.604 231.982V235.374C573.604 235.956 573.796 236.445 574.181 236.839C574.565 237.233 575.035 237.43 575.591 237.43C575.885 237.43 576.159 237.365 576.412 237.237C576.666 237.108 576.89 236.916 577.087 236.659L577.528 236.093C578.738 236.813 579.694 237.815 580.397 239.1C581.1 240.384 581.452 241.78 581.452 243.288C581.452 245.583 580.691 247.527 579.171 249.12C577.651 250.713 575.795 251.51 573.604 251.51C571.414 251.51 569.558 250.713 568.038 249.12C566.517 247.527 565.757 245.583 565.757 243.288C565.757 241.095 566.46 238.984 567.866 236.954C569.272 234.924 571.185 233.267 573.604 231.982Z" fill="#3A3C55"/>
<rect x="654.12" y="216.984" width="60.1854" height="55.4339" rx="17" fill="#E1E1E6"/>
<path d="M653.72 240.688V249.882C653.72 250.316 653.581 250.696 653.302 251.021C653.023 251.347 652.697 251.51 652.326 251.51H638.358C637.986 251.51 637.661 251.347 637.382 251.021C637.103 250.696 636.964 250.316 636.964 249.882V240.688C636.53 240.254 636.243 239.721 636.104 239.088C635.964 238.455 635.98 237.823 636.15 237.19L637.15 233.528C637.274 233.04 637.49 232.661 637.8 232.389C638.11 232.118 638.467 231.982 638.869 231.982H651.721C652.155 231.982 652.535 232.123 652.86 232.403C653.185 232.683 653.41 233.058 653.534 233.528L654.557 237.19C654.727 237.823 654.739 238.455 654.592 239.088C654.444 239.721 654.154 240.254 653.72 240.688ZM647.445 239.848C647.894 239.848 648.274 239.676 648.584 239.332C648.894 238.989 649.018 238.573 648.956 238.085L648.375 233.61H646.051V238.085C646.051 238.555 646.182 238.966 646.446 239.319C646.709 239.671 647.042 239.848 647.445 239.848ZM643.099 239.848C643.533 239.848 643.901 239.676 644.203 239.332C644.505 238.989 644.656 238.573 644.656 238.085V233.61H642.332L641.751 238.085C641.689 238.555 641.798 238.966 642.077 239.319C642.355 239.671 642.696 239.848 643.099 239.848ZM638.869 239.848C639.241 239.848 639.563 239.698 639.834 239.4C640.105 239.102 640.264 238.736 640.31 238.302L640.915 233.61H638.59L637.521 237.569C637.366 238.13 637.428 238.65 637.707 239.129C637.986 239.608 638.374 239.848 638.869 239.848ZM651.814 239.848C652.31 239.848 652.701 239.613 652.988 239.142C653.275 238.672 653.34 238.148 653.185 237.569L652.116 233.61H649.792L650.397 238.302C650.443 238.736 650.602 239.102 650.873 239.4C651.144 239.698 651.458 239.848 651.814 239.848ZM638.358 249.882H652.326V241.448C652.341 241.466 652.291 241.475 652.175 241.475C652.058 241.475 651.938 241.475 651.814 241.475C651.427 241.475 651.059 241.38 650.71 241.19C650.362 241 650.017 240.706 649.676 240.309C649.428 240.67 649.118 240.955 648.747 241.163C648.375 241.371 647.964 241.475 647.515 241.475C647.05 241.475 646.651 241.398 646.318 241.244C645.985 241.091 645.663 240.833 645.353 240.471C645.121 240.797 644.827 241.045 644.47 241.217C644.114 241.389 643.711 241.475 643.262 241.475C642.782 241.475 642.355 241.375 641.984 241.177C641.612 240.978 641.294 240.688 641.031 240.309C640.659 240.688 640.295 240.978 639.938 241.177C639.582 241.375 639.226 241.475 638.869 241.475C638.761 241.475 638.656 241.475 638.556 241.475C638.455 241.475 638.389 241.466 638.358 241.448V249.882ZM652.326 249.882H638.358C638.389 249.882 638.455 249.882 638.556 249.882C638.656 249.882 638.761 249.882 638.869 249.882C639.133 249.882 639.447 249.882 639.811 249.882C640.175 249.882 640.581 249.882 641.031 249.882C641.17 249.882 641.325 249.882 641.496 249.882C641.666 249.882 641.848 249.882 642.042 249.882C642.235 249.882 642.433 249.882 642.634 249.882C642.836 249.882 643.045 249.882 643.262 249.882C643.432 249.882 643.61 249.882 643.796 249.882C643.982 249.882 644.168 249.882 644.354 249.882C644.54 249.882 644.718 249.882 644.889 249.882C645.059 249.882 645.214 249.882 645.353 249.882C645.694 249.882 646.035 249.882 646.376 249.882C646.717 249.882 647.096 249.882 647.515 249.882C647.732 249.882 647.945 249.882 648.154 249.882C648.363 249.882 648.561 249.882 648.747 249.882C648.932 249.882 649.103 249.882 649.258 249.882C649.413 249.882 649.552 249.882 649.676 249.882C650.033 249.882 650.389 249.882 650.745 249.882C651.102 249.882 651.458 249.882 651.814 249.882C651.938 249.882 652.058 249.882 652.175 249.882C652.291 249.882 652.341 249.882 652.326 249.882Z" fill="#3A3C55"/>
<path d="M110.6 76.4366V74.4645L122.572 67.311V69.8438L113.926 75.4506L122.572 81.0574V83.5901L110.6 76.4366Z" fill="#3A3C55"/>
<path d="M127.57 96.6133V64.9368H130.777V67.1146H131.332C131.781 66.2963 132.282 65.6892 132.836 65.2932C133.417 64.8708 134.249 64.6597 135.331 64.6597C136.756 64.6597 137.825 65.0556 138.538 65.8475C139.251 66.6131 139.647 67.8801 139.726 69.6487C139.752 70.467 139.766 71.5097 139.766 72.7768C139.792 74.0438 139.805 75.3901 139.805 76.8155C139.805 78.2146 139.792 79.5608 139.766 80.8543C139.766 82.1213 139.752 83.164 139.726 83.9823C139.647 85.7509 139.225 87.0312 138.459 87.8231C137.694 88.5886 136.598 88.9714 135.173 88.9714C134.275 88.9714 133.523 88.7866 132.916 88.4171C132.335 88.0211 131.807 87.3876 131.332 86.5165H130.777V96.6133H127.57ZM134.104 86.5956C134.895 86.5956 135.489 86.4109 135.885 86.0413C136.281 85.6718 136.492 85.0646 136.519 84.2199C136.598 82.029 136.638 80.1416 136.638 78.5577C136.664 76.9475 136.664 75.4297 136.638 74.0042C136.611 72.5788 136.572 71.0346 136.519 69.3715C136.492 68.5532 136.308 67.9593 135.965 67.5897C135.621 67.2202 135.054 67.0354 134.262 67.0354C132.493 67.0354 131.332 67.8141 130.777 69.3715V84.2595C131.094 85.1306 131.517 85.7377 132.045 86.0809C132.572 86.4241 133.259 86.5956 134.104 86.5956Z" fill="#3A3C55"/>
<path d="M143.54 88.6942V64.9368H146.747V67.3126H147.42C147.658 66.3887 148.054 65.7551 148.608 65.412C149.189 65.0424 149.968 64.8576 150.944 64.8576C151.182 64.8576 151.419 64.8708 151.657 64.8972C151.921 64.8972 152.185 64.9104 152.449 64.9368V67.3918H150.984C149.77 67.3918 148.819 67.5897 148.133 67.9857C147.473 68.3553 147.011 69.0284 146.747 70.0051V88.6942H143.54Z" fill="#3A3C55"/>
<path d="M160.426 88.9714C158.288 88.9714 156.77 88.549 155.872 87.7043C155.001 86.8332 154.526 85.4078 154.447 83.428C154.394 82.3457 154.355 81.0259 154.328 79.4684C154.302 77.911 154.289 76.314 154.289 74.6774C154.315 73.0143 154.368 71.5229 154.447 70.2031C154.526 68.1969 155.001 66.7714 155.872 65.9267C156.77 65.082 158.288 64.6597 160.426 64.6597C162.591 64.6597 164.108 65.0952 164.979 65.9663C165.851 66.811 166.326 68.2233 166.405 70.2031C166.458 71.4173 166.497 72.8032 166.524 74.3606C166.55 75.8916 166.55 77.4491 166.524 79.0329C166.524 80.6167 166.484 82.0817 166.405 83.428C166.326 85.4078 165.851 86.8332 164.979 87.7043C164.108 88.549 162.591 88.9714 160.426 88.9714ZM160.426 86.5561C161.482 86.5561 162.208 86.3581 162.604 85.9621C163.026 85.5662 163.25 84.9458 163.277 84.1011C163.356 81.699 163.396 79.2969 163.396 76.8947C163.422 74.4926 163.382 72.0377 163.277 69.5299C163.25 68.6588 163.026 68.0385 162.604 67.6689C162.181 67.273 161.455 67.075 160.426 67.075C159.423 67.075 158.697 67.273 158.248 67.6689C157.826 68.0649 157.601 68.7116 157.575 69.6091C157.469 71.7209 157.417 74.0438 157.417 76.578C157.417 79.1121 157.469 81.5934 157.575 84.0219C157.601 84.9194 157.826 85.5662 158.248 85.9621C158.697 86.3581 159.423 86.5561 160.426 86.5561Z" fill="#3A3C55"/>
<path d="M176.746 95.3463C174.871 95.3463 173.367 95.0691 172.232 94.5148C171.097 93.9604 170.476 93.1157 170.371 91.9807C170.371 91.8487 170.357 91.6903 170.331 91.5055C170.331 91.3471 170.344 91.1887 170.371 91.0304C170.397 90.2912 170.674 89.7105 171.202 89.2882C171.73 88.8922 172.337 88.6414 173.024 88.5358V87.9815C171.677 87.6119 170.965 86.9256 170.885 85.9225C170.885 85.7641 170.885 85.6322 170.885 85.5266C170.885 85.3946 170.885 85.2626 170.885 85.1306C170.912 84.6027 171.123 84.1407 171.519 83.7448C171.941 83.3488 172.456 83.1112 173.063 83.032V82.4777C172.245 82.1081 171.651 81.5538 171.281 80.8147C170.912 80.0492 170.687 79.0725 170.608 77.8846C170.555 76.4856 170.529 75.1657 170.529 73.925C170.529 72.6844 170.555 71.3249 170.608 69.8467C170.714 67.9725 171.215 66.6394 172.113 65.8475C173.037 65.0292 174.502 64.6201 176.508 64.6201C177.933 64.6201 179.055 64.818 179.874 65.214C180.718 65.5836 181.339 66.1907 181.735 67.0354H182.249C182.329 66.3755 182.606 65.8607 183.081 65.4912C183.556 65.1216 184.176 64.9368 184.942 64.9368V67.4314H184.506C183.873 67.4314 183.358 67.6557 182.962 68.1045C182.566 68.5532 182.368 69.2528 182.368 70.2031C182.421 71.6549 182.447 73.0011 182.447 74.2418C182.447 75.4825 182.408 76.6967 182.329 77.8846C182.249 79.7324 181.761 81.0655 180.863 81.8838C179.992 82.6757 178.541 83.0716 176.508 83.0716C176.402 83.0716 176.297 83.0716 176.191 83.0716C176.086 83.0716 175.993 83.0716 175.914 83.0716C175.017 83.0716 174.383 83.2168 174.013 83.5072C173.644 83.7712 173.459 84.1275 173.459 84.5763V84.8138C173.459 85.3154 173.736 85.6454 174.291 85.8037C174.871 85.9621 175.756 86.0677 176.944 86.1205C179.029 86.1733 180.613 86.5033 181.695 87.1104C182.804 87.7175 183.411 88.7338 183.516 90.1593C183.569 90.5552 183.569 90.9512 183.516 91.3471C183.411 92.9046 182.724 93.9604 181.457 94.5148C180.19 95.0691 178.62 95.3463 176.746 95.3463ZM176.508 80.6167C177.379 80.6167 178.052 80.4451 178.527 80.102C179.002 79.7324 179.253 79.0857 179.28 78.1618C179.332 76.7891 179.359 75.4165 179.359 74.0438C179.359 72.6712 179.319 71.1666 179.24 69.5299C179.214 68.6324 178.989 68.0121 178.567 67.6689C178.145 67.2994 177.458 67.1146 176.508 67.1146C175.531 67.1146 174.819 67.2994 174.37 67.6689C173.921 68.0385 173.697 68.6852 173.697 69.6091C173.644 71.2193 173.604 72.6976 173.578 74.0438C173.578 75.3901 173.617 76.7627 173.697 78.1618C173.723 79.0857 173.974 79.7324 174.449 80.102C174.924 80.4451 175.61 80.6167 176.508 80.6167ZM176.825 92.8914C178.065 92.8914 178.989 92.7462 179.596 92.4558C180.204 92.1918 180.573 91.7431 180.705 91.1096C180.758 90.8192 180.745 90.5156 180.666 90.1989C180.586 89.6445 180.23 89.2354 179.596 88.9714C178.989 88.7074 178.065 88.549 176.825 88.4962C175.584 88.4698 174.687 88.5886 174.132 88.8526C173.604 89.143 173.314 89.6313 173.261 90.3176C173.235 90.5816 173.235 90.872 173.261 91.1887C173.314 91.8223 173.617 92.2578 174.172 92.4954C174.726 92.7594 175.61 92.8914 176.825 92.8914Z" fill="#3A3C55"/>
<path d="M186.886 88.6942V64.9368H190.094V67.3126H190.767C191.004 66.3887 191.4 65.7551 191.955 65.412C192.535 65.0424 193.314 64.8576 194.291 64.8576C194.528 64.8576 194.766 64.8708 195.003 64.8972C195.267 64.8972 195.531 64.9104 195.795 64.9368V67.3918H194.33C193.116 67.3918 192.166 67.5897 191.479 67.9857C190.82 68.3553 190.358 69.0284 190.094 70.0051V88.6942H186.886Z" fill="#3A3C55"/>
<path d="M201.71 88.9318C198.832 88.9318 197.288 87.3876 197.077 84.2991C197.051 83.9559 197.024 83.626 196.998 83.3092C196.998 82.9661 197.011 82.6229 197.037 82.2797C197.117 80.8807 197.486 79.6928 198.146 78.7161C198.806 77.713 199.994 76.7891 201.71 75.9444C202.343 75.6541 203.016 75.3637 203.729 75.0733C204.442 74.7566 205.154 74.4794 205.867 74.2418V69.5299C205.867 68.6852 205.656 68.0781 205.234 67.7085C204.838 67.3126 204.178 67.1146 203.254 67.1146C202.462 67.1146 201.828 67.273 201.353 67.5897C200.878 67.9065 200.627 68.4872 200.601 69.332C200.575 69.9127 200.561 70.6122 200.561 71.4305C200.561 72.2224 200.575 72.8164 200.601 73.2123H197.592C197.539 72.658 197.513 72.0773 197.513 71.4701C197.513 70.863 197.526 70.2954 197.552 69.7675C197.605 67.9989 198.054 66.7054 198.898 65.8871C199.769 65.0424 201.261 64.6201 203.373 64.6201C205.511 64.6201 206.976 65.0556 207.768 65.9267C208.56 66.7978 208.956 68.2101 208.956 70.1635L208.916 88.6942H205.788V86.5165H205.352C205.009 87.282 204.574 87.8759 204.046 88.2983C203.518 88.7206 202.739 88.9318 201.71 88.9318ZM202.66 86.5956C204.165 86.5956 205.22 85.8565 205.828 84.3783V76.7759C205.273 76.9607 204.719 77.1719 204.165 77.4095C203.637 77.647 203.03 77.977 202.343 78.3994C201.472 78.9009 200.891 79.4816 200.601 80.1416C200.337 80.7751 200.205 81.501 200.205 82.3193C200.205 82.6889 200.205 83.0056 200.205 83.2696C200.205 83.5336 200.218 83.7976 200.245 84.0615C200.297 84.8534 200.535 85.4738 200.957 85.9225C201.38 86.3713 201.947 86.5956 202.66 86.5956Z" fill="#3A3C55"/>
<path d="M313.609 89.4869H311.289L317.36 61.3369H319.68L313.609 89.4869Z" fill="#3A3C55"/>
<path d="M323.218 83.5901V81.0574L331.864 75.4506L323.218 69.8438V67.311L335.189 74.4645V76.4366L323.218 83.5901Z" fill="#3A3C55"/>
<path d="M213.18 88.6942V64.9368H216.308V67.1146H216.942C217.364 66.3227 217.839 65.7156 218.367 65.2932C218.922 64.8709 219.727 64.6597 220.783 64.6597C222.868 64.6597 224.175 65.544 224.703 67.3126H225.257C225.679 66.4943 226.207 65.8475 226.841 65.3724C227.474 64.8973 228.319 64.6597 229.375 64.6597C230.748 64.6597 231.777 65.0556 232.463 65.8475C233.15 66.6131 233.506 67.8801 233.532 69.6487V88.6942H230.365V69.4112C230.365 68.5664 230.18 67.9593 229.81 67.5898C229.441 67.2202 228.9 67.0354 228.187 67.0354C226.682 67.0354 225.613 67.7877 224.98 69.2924V88.6942H221.812V69.4112C221.812 68.5664 221.627 67.9593 221.258 67.5898C220.915 67.2202 220.374 67.0354 219.634 67.0354C217.998 67.0354 216.889 67.8141 216.308 69.3716V88.6942H213.18Z" fill="#7550DD"/>
<path d="M243.6 88.9714C241.462 88.9714 239.944 88.549 239.046 87.7043C238.175 86.8332 237.7 85.4078 237.621 83.428C237.568 82.3457 237.529 81.0259 237.502 79.4684C237.476 77.911 237.463 76.314 237.463 74.6774C237.489 73.0144 237.542 71.5229 237.621 70.2031C237.7 68.1969 238.175 66.7714 239.046 65.9267C239.944 65.082 241.462 64.6597 243.6 64.6597C245.765 64.6597 247.282 65.0952 248.153 65.9663C249.025 66.811 249.5 68.2233 249.579 70.2031C249.632 71.4173 249.671 72.8032 249.698 74.3606C249.724 75.8916 249.724 77.4491 249.698 79.0329C249.698 80.6167 249.658 82.0818 249.579 83.428C249.5 85.4078 249.025 86.8332 248.153 87.7043C247.282 88.549 245.765 88.9714 243.6 88.9714ZM243.6 86.5561C244.656 86.5561 245.382 86.3581 245.778 85.9621C246.2 85.5662 246.424 84.9458 246.451 84.1011C246.53 81.699 246.57 79.2969 246.57 76.8947C246.596 74.4926 246.556 72.0377 246.451 69.5299C246.424 68.6588 246.2 68.0385 245.778 67.6689C245.355 67.273 244.629 67.075 243.6 67.075C242.597 67.075 241.871 67.273 241.422 67.6689C241 68.0649 240.775 68.7116 240.749 69.6091C240.643 71.7209 240.591 74.0438 240.591 76.578C240.591 79.1121 240.643 81.5934 240.749 84.0219C240.775 84.9194 241 85.5662 241.422 85.9621C241.871 86.3581 242.597 86.5561 243.6 86.5561Z" fill="#7550DD"/>
<path d="M262.18 57.0177H265.387V88.6942H262.18V86.5165H261.626C261.177 87.3348 260.649 87.9551 260.042 88.3775C259.435 88.7734 258.617 88.9714 257.587 88.9714C256.135 88.9714 255.066 88.5886 254.38 87.8231C253.694 87.0312 253.311 85.751 253.232 83.9823C253.205 82.5305 253.179 80.9599 253.152 79.2705C253.152 77.5547 253.152 75.8652 253.152 74.2022C253.179 72.5128 253.205 70.995 253.232 69.6487C253.284 67.8273 253.694 66.5471 254.459 65.808C255.225 65.0424 256.294 64.6597 257.666 64.6597C258.696 64.6597 259.501 64.8709 260.082 65.2932C260.689 65.6892 261.217 66.2963 261.665 67.1146H262.18V57.0177ZM258.696 86.5957C259.514 86.5957 260.227 86.4109 260.834 86.0413C261.441 85.6718 261.89 85.0778 262.18 84.2595V69.3716C261.89 68.5533 261.441 67.9593 260.834 67.5898C260.227 67.2202 259.527 67.0354 258.735 67.0354C257.943 67.0354 257.363 67.2202 256.993 67.5898C256.65 67.9593 256.465 68.5533 256.439 69.3716C256.386 71.0082 256.346 72.7108 256.32 74.4794C256.32 76.248 256.32 77.9638 256.32 79.6268C256.346 81.2898 256.373 82.7813 256.399 84.1011C256.452 85.025 256.663 85.6718 257.033 86.0413C257.402 86.4109 257.957 86.5957 258.696 86.5957Z" fill="#7550DD"/>
<path d="M275.694 88.9714C273.556 88.9714 272.038 88.549 271.141 87.7043C270.269 86.8332 269.794 85.4078 269.715 83.428C269.662 82.3457 269.623 81.0259 269.596 79.4684C269.57 77.911 269.557 76.314 269.557 74.6774C269.583 73.0144 269.636 71.5229 269.715 70.2031C269.794 68.1969 270.269 66.7714 271.141 65.9267C272.038 65.082 273.556 64.6597 275.694 64.6597C277.859 64.6597 279.376 65.0952 280.248 65.9663C281.119 66.811 281.594 68.2233 281.673 70.2031C281.726 71.4173 281.765 72.8032 281.792 74.3606C281.818 75.8916 281.818 77.4491 281.792 79.0329C281.792 80.6167 281.752 82.0818 281.673 83.428C281.594 85.4078 281.119 86.8332 280.248 87.7043C279.376 88.549 277.859 88.9714 275.694 88.9714ZM275.694 86.5561C276.75 86.5561 277.476 86.3581 277.872 85.9621C278.294 85.5662 278.519 84.9458 278.545 84.1011C278.624 81.699 278.664 79.2969 278.664 76.8947C278.69 74.4926 278.651 72.0377 278.545 69.5299C278.519 68.6588 278.294 68.0385 277.872 67.6689C277.449 67.273 276.724 67.075 275.694 67.075C274.691 67.075 273.965 67.273 273.516 67.6689C273.094 68.0649 272.87 68.7116 272.843 69.6091C272.738 71.7209 272.685 74.0438 272.685 76.578C272.685 79.1121 272.738 81.5934 272.843 84.0219C272.87 84.9194 273.094 85.5662 273.516 85.9621C273.965 86.3581 274.691 86.5561 275.694 86.5561Z" fill="#7550DD"/>
<path d="M285.566 88.6942V64.9368H288.773V67.3126H289.446C289.684 66.3887 290.08 65.7552 290.634 65.412C291.215 65.0424 291.994 64.8577 292.97 64.8577C293.208 64.8577 293.446 64.8709 293.683 64.8973C293.947 64.8973 294.211 64.9105 294.475 64.9368V67.3918H293.01C291.796 67.3918 290.845 67.5898 290.159 67.9857C289.499 68.3553 289.037 69.0284 288.773 70.0051V88.6942H285.566Z" fill="#7550DD"/>
<path d="M302.452 88.9714C300.314 88.9714 298.796 88.549 297.899 87.7043C297.027 86.8332 296.552 85.4078 296.473 83.428C296.42 82.3457 296.381 81.0259 296.354 79.4684C296.328 77.911 296.315 76.314 296.315 74.6774C296.341 73.0144 296.394 71.5229 296.473 70.2031C296.552 68.1969 297.027 66.7714 297.899 65.9267C298.796 65.082 300.314 64.6597 302.452 64.6597C304.617 64.6597 306.134 65.0952 307.006 65.9663C307.877 66.811 308.352 68.2233 308.431 70.2031C308.484 71.4173 308.523 72.8032 308.55 74.3606C308.576 75.8916 308.576 77.4491 308.55 79.0329C308.55 80.6167 308.51 82.0818 308.431 83.428C308.352 85.4078 307.877 86.8332 307.006 87.7043C306.134 88.549 304.617 88.9714 302.452 88.9714ZM302.452 86.5561C303.508 86.5561 304.234 86.3581 304.63 85.9621C305.052 85.5662 305.277 84.9458 305.303 84.1011C305.382 81.699 305.422 79.2969 305.422 76.8947C305.448 74.4926 305.409 72.0377 305.303 69.5299C305.277 68.6588 305.052 68.0385 304.63 67.6689C304.207 67.273 303.482 67.075 302.452 67.075C301.449 67.075 300.723 67.273 300.274 67.6689C299.852 68.0649 299.628 68.7116 299.601 69.6091C299.496 71.7209 299.443 74.0438 299.443 76.578C299.443 79.1121 299.496 81.5934 299.601 84.0219C299.628 84.9194 299.852 85.5662 300.274 85.9621C300.723 86.3581 301.449 86.5561 302.452 86.5561Z" fill="#7550DD"/>
<path fill-rule="evenodd" clip-rule="evenodd" d="M33.2604 146.9C33.2604 146.681 33.4377 146.504 33.6564 146.504H1117.78C1118 146.504 1118.18 146.681 1118.18 146.9C1118.18 147.118 1118 147.296 1117.78 147.296H33.6564C33.4377 147.296 33.2604 147.118 33.2604 146.9Z" fill="#E1E1E6"/>
<g filter="url(#filter0_d_20_48)">
<path d="M710.346 445.055C710.346 522.905 647.235 586.015 569.385 586.015C491.535 586.015 428.425 522.905 428.425 445.055C428.425 367.205 491.535 304.094 569.385 304.094C647.235 304.094 710.346 367.205 710.346 445.055Z" fill="#E1E1E6"/>
</g>
<g filter="url(#filter1_d_20_48)">
<path d="M679.461 444.263C679.461 505.056 630.178 554.339 569.385 554.339C508.592 554.339 459.309 505.056 459.309 444.263C459.309 383.47 508.592 334.187 569.385 334.187C630.178 334.187 679.461 383.47 679.461 444.263Z" fill="#E1E1E6"/>
</g>
<path fill-rule="evenodd" clip-rule="evenodd" d="M630.925 545.833C608.519 559.424 582.247 565.223 556.202 562.326C530.157 559.43 505.8 548 486.924 529.818C485.034 527.997 484.978 524.99 486.799 523.1C488.619 521.21 491.627 521.153 493.517 522.974C510.883 539.702 533.291 550.217 557.252 552.882C581.214 555.546 605.383 550.212 625.997 537.708C646.61 525.204 662.511 506.233 671.223 483.749C679.935 461.265 680.969 436.531 674.163 413.397C667.358 390.263 653.095 370.029 633.597 355.846C614.098 341.663 590.458 334.326 566.358 334.979C563.735 335.05 561.551 332.981 561.48 330.358C561.409 327.735 563.478 325.551 566.101 325.48C592.297 324.77 617.993 332.745 639.187 348.161C660.381 363.577 675.883 385.57 683.28 410.715C690.677 435.859 689.553 462.744 680.084 487.183C670.615 511.621 653.331 532.242 630.925 545.833Z" fill="#754DE5"/>
<path d="M524.088 437.738L517.293 442.109L514.3 437.215L524.658 430.325H530.645V461.685H524.088V437.738Z" fill="#3A3C55"/>
<path d="M550.866 462.255C549.504 462.255 547.888 462.113 546.019 461.828C544.182 461.574 542.662 461.273 541.458 460.925L539.747 460.497L540.46 455.651C544.198 456.253 547.397 456.554 550.058 456.554C551.61 456.554 552.798 456.142 553.622 455.318C554.445 454.495 554.857 453.307 554.857 451.755C554.857 448.84 553.527 447.383 550.866 447.383C548.68 447.383 546.811 447.589 545.259 448.001L544.546 448.191L540.65 447.288L541.505 430.325H560.654V436.027H546.637L545.829 442.822C547.793 442.062 549.662 441.681 551.436 441.681C558.215 441.681 561.604 444.833 561.604 451.137C561.604 454.685 560.67 457.425 558.801 459.357C556.932 461.289 554.287 462.255 550.866 462.255Z" fill="#3A3C55"/>
<path d="M566.62 440.066H573.462V447.953H566.62V440.066ZM566.62 453.798H573.462V461.685H566.62V453.798Z" fill="#3A3C55"/>
<path d="M589.421 462.16C585.303 462.16 582.246 460.877 580.25 458.312C578.255 455.714 577.257 451.58 577.257 445.91C577.257 440.24 578.255 436.122 580.25 433.556C582.246 430.959 585.303 429.66 589.421 429.66C593.539 429.66 596.595 430.959 598.591 433.556C600.587 436.122 601.584 440.24 601.584 445.91C601.584 451.58 600.587 455.714 598.591 458.312C596.595 460.877 593.539 462.16 589.421 462.16ZM589.421 456.458C590.719 456.458 591.765 456.126 592.557 455.461C593.349 454.764 593.919 453.655 594.267 452.135C594.647 450.582 594.837 448.508 594.837 445.91C594.837 443.313 594.647 441.254 594.267 439.733C593.919 438.181 593.349 437.072 592.557 436.407C591.765 435.71 590.719 435.362 589.421 435.362C588.122 435.362 587.077 435.71 586.285 436.407C585.493 437.072 584.907 438.181 584.527 439.733C584.178 441.254 584.004 443.313 584.004 445.91C584.004 448.508 584.178 450.582 584.527 452.135C584.907 453.655 585.493 454.764 586.285 455.461C587.077 456.126 588.122 456.458 589.421 456.458Z" fill="#3A3C55"/>
<path d="M616.008 462.16C611.891 462.16 608.834 460.877 606.838 458.312C604.843 455.714 603.845 451.58 603.845 445.91C603.845 440.24 604.843 436.122 606.838 433.556C608.834 430.959 611.891 429.66 616.008 429.66C620.126 429.66 623.183 430.959 625.179 433.556C627.174 436.122 628.172 440.24 628.172 445.91C628.172 451.58 627.174 455.714 625.179 458.312C623.183 460.877 620.126 462.16 616.008 462.16ZM616.008 456.458C617.307 456.458 618.353 456.126 619.144 455.461C619.936 454.764 620.507 453.655 620.855 452.135C621.235 450.582 621.425 448.508 621.425 445.91C621.425 443.313 621.235 441.254 620.855 439.733C620.507 438.181 619.936 437.072 619.144 436.407C618.353 435.71 617.307 435.362 616.008 435.362C614.71 435.362 613.664 435.71 612.873 436.407C612.081 437.072 611.495 438.181 611.114 439.733C610.766 441.254 610.592 443.313 610.592 445.91C610.592 448.508 610.766 450.582 611.114 452.135C611.495 453.655 612.081 454.764 612.873 455.461C613.664 456.126 614.71 456.458 616.008 456.458Z" fill="#3A3C55"/>
<rect x="498.113" y="605.94" width="60.1854" height="55.4339" rx="27.7169" fill="#754DE5"/>
<path d="M536.459 634.468L536.459 634.468L536.453 634.472L524.487 641.293C524.487 641.293 524.487 641.293 524.487 641.293C524.303 641.397 524.094 641.389 523.922 641.295C523.755 641.203 523.663 641.054 523.663 640.874V627.232C523.663 627.052 523.755 626.903 523.922 626.811C524.093 626.717 524.302 626.709 524.486 626.815L524.486 626.815L536.453 633.636L536.453 633.636L536.459 633.639C536.538 633.683 536.601 633.746 536.644 633.819C536.687 633.891 536.709 633.972 536.709 634.054C536.709 634.135 536.687 634.216 536.644 634.289C536.601 634.362 536.538 634.424 536.459 634.468Z" stroke="white" stroke-width="2"/>
<rect x="582.056" y="612.94" width="60.1854" height="55.4339" rx="27.7169" fill="#E1E1E6"/>
<path d="M606.341 633.738H617.956C618.476 633.738 618.965 633.936 619.319 634.273C619.671 634.61 619.86 635.055 619.86 635.51V646.597C619.86 647.051 619.671 647.497 619.319 647.833C618.965 648.171 618.476 648.368 617.956 648.368H606.341C605.822 648.368 605.333 648.171 604.979 647.833C604.626 647.497 604.438 647.051 604.438 646.597V635.51C604.438 635.055 604.626 634.61 604.979 634.273C605.333 633.936 605.822 633.738 606.341 633.738Z" stroke="#3A3C55" stroke-width="2"/>
<rect x="1014.4" y="60.3356" width="56.1273" height="35.4749" rx="17.7375" fill="#E1E1E6"/>
<ellipse cx="1059.06" cy="78.073" rx="18.5774" ry="18.5258" fill="#754DE5"/>
<path d="M1064.26 77.5151C1064.26 80.3788 1061.93 82.7074 1059.05 82.7074C1056.17 82.7074 1053.84 80.3788 1053.84 77.5151C1053.84 74.6514 1056.17 72.3228 1059.05 72.3228C1061.93 72.3228 1064.26 74.6514 1064.26 77.5151Z" fill="white" stroke="white" stroke-width="3"/>
<path d="M1059.32 69.0032L1059.32 65.8539" stroke="white" stroke-width="3" stroke-linecap="round"/>
<path d="M1059.32 89.0713L1059.32 85.922" stroke="white" stroke-width="3" stroke-linecap="round"/>
<path d="M1068.02 77.2439H1071.18" stroke="white" stroke-width="3" stroke-linecap="round"/>
<path d="M1046.81 77.2439H1049.97" stroke="white" stroke-width="3" stroke-linecap="round"/>
<path d="M1050.7 85.862L1052.96 83.6583" stroke="white" stroke-width="3" stroke-linecap="round"/>
<path d="M1065.3 71.3258L1067.55 69.1082" stroke="white" stroke-width="3" stroke-linecap="round"/>
<path d="M1065.3 83.7525L1067.54 85.9794" stroke="white" stroke-width="3" stroke-linecap="round"/>
<path d="M1050.62 69.1082L1052.85 71.3351" stroke="white" stroke-width="3" stroke-linecap="round"/>
<path d="M138 176.754C138 157.56 153.565 142 172.765 142H1324.24C1343.44 142 1359 157.56 1359 176.754V975.246C1359 994.44 1343.44 1010 1324.24 1010H172.765C153.565 1010 138 994.44 138 975.246V176.754Z" fill="#1A1D2C"/>
<g filter="url(#filter2_d_20_48)">
<path d="M899.429 607.363C899.429 690.694 831.856 758.246 748.5 758.246C665.144 758.246 597.571 690.694 597.571 607.363C597.571 524.033 665.144 456.48 748.5 456.48C831.856 456.48 899.429 524.033 899.429 607.363Z" fill="#24283B"/>
</g>
<g filter="url(#filter3_d_20_48)">
<path d="M866.36 606.516C866.36 671.588 813.592 724.34 748.5 724.34C683.407 724.34 630.64 671.588 630.64 606.516C630.64 541.443 683.407 488.691 748.5 488.691C813.592 488.691 866.36 541.443 866.36 606.516Z" fill="#24283B"/>
</g>
<path fill-rule="evenodd" clip-rule="evenodd" d="M814.392 715.235C790.401 729.783 762.272 735.99 734.385 732.889C706.497 729.789 680.418 717.555 660.208 698.093C658.184 696.144 658.124 692.925 660.073 690.902C662.022 688.879 665.243 688.818 667.266 690.767C685.86 708.672 709.853 719.927 735.509 722.78C761.165 725.632 787.044 719.922 809.115 706.538C831.186 693.154 848.212 672.848 857.54 648.781C866.868 624.715 867.975 598.239 860.688 573.477C853.401 548.715 838.13 527.056 817.253 511.875C796.375 496.693 771.063 488.841 745.259 489.539C742.45 489.615 740.112 487.401 740.036 484.593C739.96 481.785 742.175 479.447 744.984 479.371C773.032 478.612 800.545 487.147 823.238 503.649C845.931 520.151 862.529 543.692 870.449 570.606C878.37 597.52 877.167 626.298 867.028 652.457C856.889 678.615 838.383 700.687 814.392 715.235Z" fill="#754DE5"/>
<path fill-rule="evenodd" clip-rule="evenodd" d="M174.46 293.307C174.46 293.073 174.65 292.883 174.884 292.883H1335.68C1335.92 292.883 1336.11 293.073 1336.11 293.307C1336.11 293.541 1335.92 293.73 1335.68 293.73H174.884C174.65 293.73 174.46 293.541 174.46 293.307Z" fill="#3A3C55"/>
<path d="M256.708 216.651V214.54L269.526 206.883V209.594L260.269 215.595L269.526 221.597V224.308L256.708 216.651Z" fill="#D6D6D6"/>
<path d="M274.879 238.248V204.342H278.313V206.673H278.906C279.387 205.797 279.924 205.147 280.517 204.723C281.139 204.271 282.029 204.045 283.188 204.045C284.714 204.045 285.859 204.469 286.622 205.316C287.385 206.136 287.809 207.492 287.894 209.385C287.922 210.261 287.937 211.377 287.937 212.733C287.965 214.09 287.979 215.531 287.979 217.056C287.979 218.554 287.965 219.995 287.937 221.38C287.937 222.736 287.922 223.852 287.894 224.728C287.809 226.621 287.357 227.991 286.537 228.839C285.718 229.658 284.545 230.068 283.019 230.068C282.058 230.068 281.252 229.87 280.602 229.475C279.98 229.051 279.415 228.373 278.906 227.44H278.313V238.248H274.879ZM281.874 227.525C282.722 227.525 283.358 227.327 283.782 226.932C284.206 226.536 284.432 225.886 284.46 224.982C284.545 222.637 284.587 220.617 284.587 218.921C284.616 217.198 284.616 215.573 284.587 214.047C284.559 212.522 284.517 210.869 284.46 209.089C284.432 208.213 284.234 207.577 283.867 207.181C283.499 206.786 282.891 206.588 282.044 206.588C280.15 206.588 278.906 207.421 278.313 209.089V225.024C278.652 225.957 279.104 226.607 279.669 226.974C280.235 227.341 280.97 227.525 281.874 227.525Z" fill="#D6D6D6"/>
<path d="M291.978 229.771V204.342H295.412V206.885H296.133C296.387 205.896 296.811 205.218 297.404 204.85C298.026 204.455 298.86 204.257 299.906 204.257C300.16 204.257 300.415 204.271 300.669 204.299C300.952 204.299 301.234 204.313 301.517 204.342V206.969H299.948C298.648 206.969 297.631 207.181 296.896 207.605C296.189 208.001 295.694 208.721 295.412 209.767V229.771H291.978Z" fill="#D6D6D6"/>
<path d="M310.058 230.068C307.769 230.068 306.143 229.616 305.182 228.712C304.25 227.779 303.741 226.254 303.656 224.134C303.6 222.976 303.557 221.563 303.529 219.896C303.501 218.229 303.487 216.52 303.487 214.768C303.515 212.988 303.571 211.391 303.656 209.979C303.741 207.831 304.25 206.305 305.182 205.401C306.143 204.497 307.769 204.045 310.058 204.045C312.376 204.045 314.001 204.511 314.933 205.444C315.866 206.348 316.375 207.859 316.46 209.979C316.516 211.278 316.559 212.762 316.587 214.429C316.615 216.068 316.615 217.735 316.587 219.43C316.587 221.125 316.544 222.693 316.46 224.134C316.375 226.254 315.866 227.779 314.933 228.712C314.001 229.616 312.376 230.068 310.058 230.068ZM310.058 227.483C311.188 227.483 311.966 227.271 312.39 226.847C312.842 226.423 313.082 225.759 313.11 224.855C313.195 222.284 313.238 219.712 313.238 217.141C313.266 214.57 313.223 211.942 313.11 209.258C313.082 208.326 312.842 207.662 312.39 207.266C311.937 206.842 311.16 206.63 310.058 206.63C308.984 206.63 308.207 206.842 307.726 207.266C307.274 207.69 307.034 208.382 307.005 209.343C306.892 211.603 306.836 214.09 306.836 216.802C306.836 219.515 306.892 222.171 307.005 224.77C307.034 225.731 307.274 226.423 307.726 226.847C308.207 227.271 308.984 227.483 310.058 227.483Z" fill="#D6D6D6"/>
<path d="M327.532 236.892C325.525 236.892 323.914 236.595 322.698 236.002C321.483 235.408 320.819 234.504 320.706 233.289C320.706 233.148 320.692 232.978 320.663 232.781C320.663 232.611 320.678 232.441 320.706 232.272C320.734 231.481 321.031 230.859 321.596 230.407C322.161 229.983 322.812 229.715 323.546 229.602V229.008C322.105 228.613 321.342 227.878 321.257 226.805C321.257 226.635 321.257 226.494 321.257 226.381C321.257 226.239 321.257 226.098 321.257 225.957C321.285 225.392 321.511 224.897 321.935 224.473C322.388 224.05 322.939 223.795 323.589 223.711V223.117C322.713 222.722 322.077 222.128 321.681 221.337C321.285 220.518 321.045 219.472 320.96 218.201C320.904 216.703 320.875 215.291 320.875 213.963C320.875 212.635 320.904 211.179 320.96 209.597C321.073 207.591 321.61 206.164 322.571 205.316C323.561 204.441 325.129 204.003 327.277 204.003C328.803 204.003 330.005 204.214 330.881 204.638C331.785 205.034 332.45 205.684 332.873 206.588H333.425C333.509 205.882 333.806 205.331 334.315 204.935C334.824 204.539 335.488 204.342 336.308 204.342V207.012H335.841C335.163 207.012 334.612 207.252 334.188 207.732C333.764 208.213 333.552 208.961 333.552 209.979C333.608 211.533 333.637 212.974 333.637 214.302C333.637 215.63 333.594 216.929 333.509 218.201C333.425 220.179 332.902 221.606 331.941 222.481C331.008 223.329 329.454 223.753 327.277 223.753C327.164 223.753 327.051 223.753 326.938 223.753C326.825 223.753 326.726 223.753 326.641 223.753C325.68 223.753 325.002 223.908 324.606 224.219C324.211 224.502 324.013 224.883 324.013 225.364V225.618C324.013 226.155 324.31 226.508 324.903 226.677C325.525 226.847 326.472 226.96 327.744 227.016C329.976 227.073 331.672 227.426 332.831 228.076C334.018 228.726 334.668 229.814 334.781 231.339C334.838 231.763 334.838 232.187 334.781 232.611C334.668 234.278 333.933 235.408 332.577 236.002C331.22 236.595 329.538 236.892 327.532 236.892ZM327.277 221.125C328.21 221.125 328.931 220.942 329.439 220.574C329.948 220.179 330.217 219.486 330.245 218.498C330.301 217.028 330.33 215.559 330.33 214.09C330.33 212.62 330.287 211.01 330.203 209.258C330.174 208.297 329.934 207.633 329.482 207.266C329.03 206.87 328.295 206.673 327.277 206.673C326.231 206.673 325.468 206.87 324.988 207.266C324.507 207.662 324.267 208.354 324.267 209.343C324.211 211.066 324.168 212.649 324.14 214.09C324.14 215.531 324.182 217 324.267 218.498C324.295 219.486 324.564 220.179 325.073 220.574C325.581 220.942 326.316 221.125 327.277 221.125ZM327.616 234.264C328.945 234.264 329.934 234.109 330.584 233.798C331.234 233.515 331.63 233.035 331.771 232.357C331.828 232.046 331.814 231.721 331.729 231.382C331.644 230.789 331.262 230.351 330.584 230.068C329.934 229.785 328.945 229.616 327.616 229.559C326.288 229.531 325.327 229.658 324.733 229.941C324.168 230.252 323.857 230.774 323.801 231.509C323.773 231.792 323.773 232.102 323.801 232.441C323.857 233.12 324.182 233.586 324.776 233.84C325.369 234.123 326.316 234.264 327.616 234.264Z" fill="#D6D6D6"/>
<path d="M338.39 229.771V204.342H341.824V206.885H342.544C342.799 205.896 343.223 205.218 343.816 204.85C344.438 204.455 345.272 204.257 346.318 204.257C346.572 204.257 346.826 204.271 347.081 204.299C347.363 204.299 347.646 204.313 347.929 204.342V206.969H346.36C345.06 206.969 344.042 207.181 343.307 207.605C342.601 208.001 342.106 208.721 341.824 209.767V229.771H338.39Z" fill="#D6D6D6"/>
<path d="M354.261 230.026C351.18 230.026 349.527 228.373 349.301 225.067C349.273 224.7 349.244 224.346 349.216 224.007C349.216 223.64 349.23 223.273 349.258 222.905C349.343 221.408 349.739 220.136 350.446 219.091C351.152 218.017 352.424 217.028 354.261 216.124C354.94 215.813 355.66 215.502 356.423 215.192C357.186 214.853 357.95 214.556 358.713 214.302V209.258C358.713 208.354 358.487 207.704 358.034 207.308C357.61 206.885 356.904 206.673 355.915 206.673C355.067 206.673 354.388 206.842 353.88 207.181C353.371 207.52 353.102 208.142 353.074 209.046C353.046 209.668 353.032 210.417 353.032 211.292C353.032 212.14 353.046 212.776 353.074 213.2H349.852C349.795 212.606 349.767 211.985 349.767 211.335C349.767 210.685 349.781 210.077 349.81 209.512C349.866 207.619 350.347 206.235 351.251 205.359C352.184 204.455 353.781 204.003 356.042 204.003C358.331 204.003 359.9 204.469 360.748 205.401C361.596 206.334 362.02 207.845 362.02 209.936L361.977 229.771H358.628V227.44H358.162C357.794 228.26 357.328 228.895 356.763 229.347C356.197 229.8 355.363 230.026 354.261 230.026ZM355.279 227.525C356.89 227.525 358.02 226.734 358.67 225.152V217.014C358.077 217.212 357.483 217.438 356.89 217.692C356.324 217.947 355.674 218.3 354.94 218.752C354.007 219.289 353.385 219.91 353.074 220.617C352.791 221.295 352.65 222.072 352.65 222.948C352.65 223.343 352.65 223.682 352.65 223.965C352.65 224.247 352.664 224.53 352.693 224.813C352.749 225.66 353.003 226.324 353.456 226.805C353.908 227.285 354.516 227.525 355.279 227.525Z" fill="#D6D6D6"/>
<path d="M474.074 230.62H471.59L478.09 200.488H480.574L474.074 230.62Z" fill="#D6D6D6"/>
<path d="M484.362 224.308V221.597L493.62 215.595L484.362 209.594V206.883L497.181 214.54V216.651L484.362 224.308Z" fill="#D6D6D6"/>
<path d="M366.543 230.156V204.727H369.892V207.058H370.571C371.023 206.21 371.532 205.56 372.097 205.108C372.69 204.656 373.553 204.43 374.683 204.43C376.916 204.43 378.315 205.376 378.88 207.27H379.474C379.926 206.394 380.491 205.701 381.17 205.193C381.848 204.684 382.752 204.43 383.883 204.43C385.353 204.43 386.455 204.854 387.19 205.701C387.925 206.521 388.306 207.877 388.335 209.77V230.156H384.943V209.516C384.943 208.612 384.745 207.962 384.349 207.566C383.954 207.171 383.374 206.973 382.611 206.973C381 206.973 379.855 207.778 379.177 209.389V230.156H375.785V209.516C375.785 208.612 375.588 207.962 375.192 207.566C374.824 207.171 374.245 206.973 373.454 206.973C371.701 206.973 370.514 207.806 369.892 209.473V230.156H366.543Z" fill="#754DE5"/>
<path d="M399.114 230.453C396.825 230.453 395.199 230.001 394.239 229.097C393.306 228.164 392.797 226.638 392.712 224.519C392.656 223.361 392.613 221.948 392.585 220.281C392.557 218.614 392.543 216.905 392.543 215.153C392.571 213.373 392.627 211.776 392.712 210.363C392.797 208.216 393.306 206.69 394.239 205.786C395.199 204.882 396.825 204.43 399.114 204.43C401.432 204.43 403.057 204.896 403.99 205.829C404.922 206.733 405.431 208.244 405.516 210.363C405.572 211.663 405.615 213.147 405.643 214.814C405.671 216.452 405.671 218.12 405.643 219.815C405.643 221.51 405.601 223.078 405.516 224.519C405.431 226.638 404.922 228.164 403.99 229.097C403.057 230.001 401.432 230.453 399.114 230.453ZM399.114 227.868C400.245 227.868 401.022 227.656 401.446 227.232C401.898 226.808 402.138 226.144 402.167 225.24C402.251 222.669 402.294 220.097 402.294 217.526C402.322 214.955 402.28 212.327 402.167 209.643C402.138 208.711 401.898 208.047 401.446 207.651C400.994 207.227 400.216 207.015 399.114 207.015C398.04 207.015 397.263 207.227 396.782 207.651C396.33 208.075 396.09 208.767 396.062 209.728C395.948 211.988 395.892 214.475 395.892 217.187C395.892 219.9 395.948 222.556 396.062 225.155C396.09 226.116 396.33 226.808 396.782 227.232C397.263 227.656 398.04 227.868 399.114 227.868Z" fill="#754DE5"/>
<path d="M419.008 196.25H422.442V230.156H419.008V227.825H418.415C417.934 228.701 417.369 229.365 416.719 229.817C416.069 230.241 415.193 230.453 414.09 230.453C412.536 230.453 411.391 230.043 410.656 229.224C409.921 228.376 409.512 227.006 409.427 225.113C409.399 223.559 409.37 221.877 409.342 220.069C409.342 218.233 409.342 216.424 409.342 214.644C409.37 212.836 409.399 211.211 409.427 209.77C409.483 207.821 409.921 206.45 410.741 205.659C411.561 204.84 412.705 204.43 414.175 204.43C415.277 204.43 416.139 204.656 416.761 205.108C417.411 205.532 417.977 206.182 418.457 207.058H419.008V196.25ZM415.277 227.91C416.154 227.91 416.917 227.712 417.567 227.317C418.217 226.921 418.697 226.285 419.008 225.409V209.473C418.697 208.598 418.217 207.962 417.567 207.566C416.917 207.171 416.168 206.973 415.32 206.973C414.472 206.973 413.85 207.171 413.454 207.566C413.087 207.962 412.889 208.598 412.861 209.473C412.804 211.225 412.762 213.048 412.734 214.941C412.734 216.834 412.734 218.671 412.734 220.451C412.762 222.231 412.79 223.827 412.818 225.24C412.875 226.229 413.101 226.921 413.497 227.317C413.893 227.712 414.486 227.91 415.277 227.91Z" fill="#754DE5"/>
<path d="M433.478 230.453C431.188 230.453 429.563 230.001 428.602 229.097C427.67 228.164 427.161 226.638 427.076 224.519C427.02 223.361 426.977 221.948 426.949 220.281C426.921 218.614 426.906 216.905 426.906 215.153C426.935 213.373 426.991 211.776 427.076 210.363C427.161 208.216 427.67 206.69 428.602 205.786C429.563 204.882 431.188 204.43 433.478 204.43C435.795 204.43 437.421 204.896 438.353 205.829C439.286 206.733 439.795 208.244 439.88 210.363C439.936 211.663 439.979 213.147 440.007 214.814C440.035 216.452 440.035 218.12 440.007 219.815C440.007 221.51 439.964 223.078 439.88 224.519C439.795 226.638 439.286 228.164 438.353 229.097C437.421 230.001 435.795 230.453 433.478 230.453ZM433.478 227.868C434.608 227.868 435.386 227.656 435.81 227.232C436.262 226.808 436.502 226.144 436.53 225.24C436.615 222.669 436.658 220.097 436.658 217.526C436.686 214.955 436.643 212.327 436.53 209.643C436.502 208.711 436.262 208.047 435.81 207.651C435.357 207.227 434.58 207.015 433.478 207.015C432.404 207.015 431.627 207.227 431.146 207.651C430.694 208.075 430.454 208.767 430.425 209.728C430.312 211.988 430.256 214.475 430.256 217.187C430.256 219.9 430.312 222.556 430.425 225.155C430.454 226.116 430.694 226.808 431.146 227.232C431.627 227.656 432.404 227.868 433.478 227.868Z" fill="#754DE5"/>
<path d="M444.048 230.156V204.727H447.482V207.27H448.203C448.457 206.281 448.881 205.602 449.475 205.235C450.096 204.84 450.93 204.642 451.976 204.642C452.23 204.642 452.485 204.656 452.739 204.684C453.022 204.684 453.304 204.698 453.587 204.727V207.354H452.018C450.718 207.354 449.701 207.566 448.966 207.99C448.259 208.386 447.765 209.106 447.482 210.152V230.156H444.048Z" fill="#754DE5"/>
<path d="M462.128 230.453C459.839 230.453 458.214 230.001 457.253 229.097C456.32 228.164 455.811 226.638 455.726 224.519C455.67 223.361 455.627 221.948 455.599 220.281C455.571 218.614 455.557 216.905 455.557 215.153C455.585 213.373 455.642 211.776 455.726 210.363C455.811 208.216 456.32 206.69 457.253 205.786C458.214 204.882 459.839 204.43 462.128 204.43C464.446 204.43 466.071 204.896 467.004 205.829C467.936 206.733 468.445 208.244 468.53 210.363C468.586 211.663 468.629 213.147 468.657 214.814C468.685 216.452 468.685 218.12 468.657 219.815C468.657 221.51 468.615 223.078 468.53 224.519C468.445 226.638 467.936 228.164 467.004 229.097C466.071 230.001 464.446 230.453 462.128 230.453ZM462.128 227.868C463.259 227.868 464.036 227.656 464.46 227.232C464.912 226.808 465.152 226.144 465.181 225.24C465.265 222.669 465.308 220.097 465.308 217.526C465.336 214.955 465.294 212.327 465.181 209.643C465.152 208.711 464.912 208.047 464.46 207.651C464.008 207.227 463.23 207.015 462.128 207.015C461.054 207.015 460.277 207.227 459.796 207.651C459.344 208.075 459.104 208.767 459.076 209.728C458.963 211.988 458.906 214.475 458.906 217.187C458.906 219.9 458.963 222.556 459.076 225.155C459.104 226.116 459.344 226.808 459.796 227.232C460.277 227.656 461.054 227.868 462.128 227.868Z" fill="#754DE5"/>
<rect x="963.023" y="576" width="66.1375" height="61.0312" rx="17" fill="#3A3C55"/>
<path d="M994.822 609.305C994.822 608.753 994.375 608.305 993.822 608.305H989.46C988.908 608.305 988.46 607.857 988.46 607.305V606.386C988.46 605.833 988.908 605.386 989.46 605.386H993.822C994.375 605.386 994.822 604.938 994.822 604.386V599.887C994.822 599.334 995.27 598.887 995.822 598.887H996.812C997.364 598.887 997.812 599.334 997.812 599.887V604.386C997.812 604.938 998.26 605.386 998.812 605.386H1003.24C1003.8 605.386 1004.24 605.833 1004.24 606.386V607.305C1004.24 607.857 1003.8 608.305 1003.24 608.305H998.812C998.26 608.305 997.812 608.753 997.812 609.305V613.874C997.812 614.426 997.364 614.874 996.812 614.874H995.822C995.27 614.874 994.822 614.426 994.822 613.874V609.305Z" fill="#1A1D2C"/>
<rect x="466.992" y="576" width="66.1375" height="61.0312" rx="17" fill="#3A3C55"/>
<path d="M493.277 605.82C493.277 605.268 493.725 604.82 494.277 604.82H505.844C506.396 604.82 506.844 605.268 506.844 605.82V607.211C506.844 607.763 506.396 608.211 505.844 608.211H494.277C493.725 608.211 493.277 607.763 493.277 607.211V605.82Z" fill="#1A1D2C"/>
<g filter="url(#filter4_d_20_48)">
<rect x="594.179" y="368.324" width="64.4417" height="59.3359" rx="17" fill="#24283B"/>
</g>
<path d="M619.617 409.012C619.617 409.012 618.769 409.012 618.769 408.164C618.769 407.316 619.617 407.316 619.617 407.316H625.605V402.654H623.22C621.754 402.654 620.504 402.138 619.471 401.105C618.438 400.072 617.921 398.822 617.921 397.356C617.921 396.297 618.212 395.321 618.795 394.429C619.378 393.538 620.164 392.889 621.154 392.482C621.313 391.158 621.891 390.05 622.889 389.158C623.887 388.266 625.058 387.82 626.4 387.82C627.743 387.82 628.913 388.266 629.911 389.158C630.909 390.05 631.488 391.158 631.647 392.482C632.636 392.889 633.422 393.538 634.005 394.429C634.588 395.321 634.879 396.297 634.879 397.356C634.879 398.822 634.363 400.072 633.329 401.105C632.296 402.138 631.046 402.654 629.58 402.654H627.195V407.316H633.183C633.183 407.316 634.031 407.316 634.031 408.164C634.031 409.012 633.183 409.012 633.183 409.012H619.617ZM623.22 401.065H629.58C630.604 401.065 631.479 400.703 632.203 399.979C632.927 399.255 633.289 398.381 633.289 397.356C633.289 396.615 633.077 395.939 632.653 395.33C632.229 394.721 631.682 394.266 631.011 393.966L630.163 393.595L630.057 392.668C629.933 391.732 629.527 390.955 628.838 390.337C628.149 389.719 627.336 389.41 626.4 389.41C625.464 389.41 624.651 389.719 623.962 390.337C623.273 390.955 622.867 391.732 622.743 392.668L622.637 393.595L621.79 393.966C621.118 394.266 620.571 394.721 620.147 395.33C619.723 395.939 619.511 396.615 619.511 397.356C619.511 398.381 619.873 399.255 620.597 399.979C621.321 400.703 622.196 401.065 623.22 401.065Z" fill="white"/>
<g filter="url(#filter5_d_20_48)">
<rect x="675.579" y="368.324" width="64.4417" height="59.3359" rx="17" fill="#754DE5"/>
</g>
<path d="M701.695 404.975C701.458 404.975 701.25 404.887 701.072 404.71C700.894 404.534 700.805 404.328 700.805 404.092C700.805 403.857 700.894 403.651 701.072 403.474C701.25 403.298 701.458 403.209 701.695 403.209C701.932 403.209 702.14 403.298 702.318 403.474C702.496 403.651 702.585 403.857 702.585 404.092C702.585 404.328 702.496 404.534 702.318 404.71C702.14 404.887 701.932 404.975 701.695 404.975ZM713.905 404.975C713.668 404.975 713.46 404.887 713.282 404.71C713.104 404.534 713.015 404.328 713.015 404.092C713.015 403.857 713.104 403.651 713.282 403.474C713.46 403.298 713.668 403.209 713.905 403.209C714.142 403.209 714.35 403.298 714.528 403.474C714.706 403.651 714.795 403.857 714.795 404.092C714.795 404.328 714.706 404.534 714.528 404.71C714.35 404.887 714.142 404.975 713.905 404.975ZM704.748 409.012C704.51 409.012 704.302 408.923 704.124 408.747C703.946 408.57 703.857 408.364 703.857 408.129C703.857 407.893 703.946 407.687 704.124 407.511C704.302 407.334 704.51 407.246 704.748 407.246C704.985 407.246 705.193 407.334 705.371 407.511C705.549 407.687 705.638 407.893 705.638 408.129C705.638 408.364 705.549 408.57 705.371 408.747C705.193 408.923 704.985 409.012 704.748 409.012ZM707.8 404.975C707.563 404.975 707.355 404.887 707.177 404.71C706.999 404.534 706.91 404.328 706.91 404.092C706.91 403.857 706.999 403.651 707.177 403.474C707.355 403.298 707.563 403.209 707.8 403.209C708.037 403.209 708.245 403.298 708.423 403.474C708.601 403.651 708.69 403.857 708.69 404.092C708.69 404.328 708.601 404.534 708.423 404.71C708.245 404.887 708.037 404.975 707.8 404.975ZM710.853 409.012C710.615 409.012 710.407 408.923 710.229 408.747C710.051 408.57 709.962 408.364 709.962 408.129C709.962 407.893 710.051 407.687 710.229 407.511C710.407 407.334 710.615 407.246 710.853 407.246C711.09 407.246 711.298 407.334 711.476 407.511C711.654 407.687 711.743 407.893 711.743 408.129C711.743 408.364 711.654 408.57 711.476 408.747C711.298 408.923 711.09 409.012 710.853 409.012ZM702.967 401.443C701.492 401.443 700.232 400.926 699.189 399.892C698.146 398.858 697.625 397.609 697.625 396.146C697.625 394.817 698.104 393.631 699.062 392.588C700.02 391.546 701.212 390.974 702.636 390.873C703.179 389.931 703.895 389.187 704.786 388.64C705.676 388.094 706.681 387.82 707.8 387.82C709.343 387.82 710.636 388.304 711.679 389.271C712.722 390.238 713.362 391.436 713.6 392.866C714.939 392.933 716.004 393.383 716.792 394.216C717.581 395.048 717.975 396.028 717.975 397.155C717.975 398.332 717.555 399.341 716.716 400.182C715.876 401.023 714.855 401.443 713.651 401.443H702.967ZM702.967 399.93H713.651C714.431 399.93 715.092 399.656 715.635 399.11C716.177 398.563 716.449 397.903 716.449 397.129C716.449 396.373 716.177 395.725 715.635 395.187C715.092 394.649 714.431 394.38 713.651 394.38H712.124V393.623C712.124 392.429 711.705 391.415 710.865 390.583C710.026 389.75 709.004 389.334 707.8 389.334C706.935 389.334 706.142 389.565 705.422 390.028C704.701 390.49 704.171 391.117 703.832 391.907L703.628 392.361H702.916C701.865 392.395 700.974 392.778 700.245 393.509C699.516 394.241 699.151 395.12 699.151 396.146C699.151 397.188 699.524 398.08 700.271 398.82C701.017 399.56 701.915 399.93 702.967 399.93Z" fill="white"/>
<g filter="url(#filter6_d_20_48)">
<rect x="756.979" y="368.324" width="64.4417" height="59.3359" rx="17" fill="#24283B"/>
</g>
<path d="M781.542 400.089C781.542 401.26 781.807 402.362 782.335 403.393C782.864 404.425 783.601 405.285 784.547 405.972C784.473 405.749 784.417 405.522 784.38 405.289C784.343 405.057 784.325 404.829 784.325 404.606C784.325 404.011 784.436 403.454 784.658 402.933C784.881 402.413 785.206 401.939 785.632 401.511C785.632 401.511 787.928 398.84 788.776 398.84C789.624 398.84 791.92 401.511 791.92 401.511C792.347 401.939 792.671 402.413 792.894 402.933C793.116 403.454 793.228 404.011 793.228 404.606C793.228 404.829 793.209 405.057 793.172 405.289C793.135 405.522 793.079 405.749 793.005 405.972C793.951 405.285 794.688 404.425 795.217 403.393C795.746 402.362 796.01 401.26 796.01 400.089C796.01 399.085 795.797 398.105 795.37 397.147C794.943 396.19 794.331 395.312 793.534 394.512C793.144 394.791 792.736 395.01 792.31 395.168C791.883 395.326 791.456 395.405 791.03 395.405C789.898 395.405 788.962 395.019 788.22 394.247C787.478 393.476 787.107 392.505 787.107 391.334V390.776C786.254 391.389 785.484 392.068 784.798 392.811C784.111 393.555 783.527 394.331 783.045 395.14C782.563 395.948 782.192 396.776 781.932 397.621C781.672 398.467 781.542 399.29 781.542 400.089ZM788.776 400.758L786.801 402.71C786.541 402.97 786.342 403.258 786.203 403.574C786.064 403.89 785.994 404.234 785.994 404.606C785.994 405.368 786.263 406.014 786.801 406.544C787.339 407.074 787.997 407.339 788.776 407.339C789.555 407.339 790.214 407.074 790.752 406.544C791.289 406.014 791.558 405.368 791.558 404.606C791.558 404.234 791.489 403.89 791.35 403.574C791.211 403.258 791.011 402.97 790.752 402.71L788.776 400.758ZM788.776 387.82V391.501C788.776 392.133 788.994 392.663 789.43 393.09C789.866 393.518 790.399 393.732 791.03 393.732C791.364 393.732 791.674 393.662 791.962 393.522C792.249 393.383 792.504 393.174 792.727 392.895L793.228 392.282C794.6 393.062 795.685 394.15 796.483 395.544C797.281 396.938 797.679 398.453 797.679 400.089C797.679 402.58 796.817 404.69 795.092 406.419C793.367 408.147 791.262 409.012 788.776 409.012C786.291 409.012 784.185 408.147 782.461 406.419C780.736 404.69 779.873 402.58 779.873 400.089C779.873 397.71 780.671 395.419 782.266 393.216C783.861 391.013 786.031 389.214 788.776 387.82Z" fill="white"/>
<g filter="url(#filter7_d_20_48)">
<rect x="838.379" y="368.324" width="64.4417" height="59.3359" rx="17" fill="#24283B"/>
</g>
<path d="M879.67 397.268V407.246C879.67 407.717 879.512 408.129 879.195 408.482C878.879 408.835 878.51 409.012 878.088 409.012H862.241C861.82 409.012 861.45 408.835 861.134 408.482C860.818 408.129 860.659 407.717 860.659 407.246V397.268C860.167 396.797 859.842 396.218 859.684 395.532C859.526 394.845 859.543 394.158 859.737 393.471L860.87 389.498C861.011 388.968 861.257 388.556 861.609 388.262C861.96 387.967 862.364 387.82 862.822 387.82H877.403C877.895 387.82 878.325 387.972 878.695 388.277C879.064 388.581 879.319 388.988 879.459 389.498L880.619 393.471C880.813 394.158 880.826 394.845 880.659 395.532C880.492 396.218 880.162 396.797 879.67 397.268ZM872.551 396.356C873.061 396.356 873.491 396.169 873.843 395.797C874.195 395.424 874.335 394.972 874.265 394.443L873.606 389.586H870.969V394.443C870.969 394.953 871.118 395.399 871.417 395.782C871.716 396.164 872.094 396.356 872.551 396.356ZM867.62 396.356C868.113 396.356 868.53 396.169 868.873 395.797C869.216 395.424 869.387 394.972 869.387 394.443V389.586H866.75L866.091 394.443C866.021 394.953 866.144 395.399 866.46 395.782C866.777 396.164 867.163 396.356 867.62 396.356ZM862.822 396.356C863.243 396.356 863.608 396.194 863.916 395.87C864.223 395.546 864.404 395.149 864.456 394.678L865.142 389.586H862.505L861.292 393.883C861.116 394.492 861.187 395.056 861.503 395.576C861.82 396.096 862.259 396.356 862.822 396.356ZM877.508 396.356C878.07 396.356 878.514 396.101 878.84 395.59C879.165 395.08 879.239 394.511 879.064 393.883L877.851 389.586H875.214L875.9 394.678C875.952 395.149 876.133 395.546 876.44 395.87C876.748 396.194 877.104 396.356 877.508 396.356ZM862.241 407.246H878.088V398.092C878.106 398.112 878.049 398.122 877.917 398.122C877.785 398.122 877.649 398.122 877.508 398.122C877.069 398.122 876.651 398.019 876.256 397.813C875.86 397.607 875.469 397.288 875.082 396.856C874.801 397.249 874.449 397.558 874.028 397.783C873.606 398.009 873.14 398.122 872.63 398.122C872.103 398.122 871.65 398.038 871.272 397.872C870.894 397.705 870.529 397.425 870.178 397.033C869.914 397.386 869.58 397.656 869.176 397.842C868.772 398.028 868.315 398.122 867.805 398.122C867.26 398.122 866.777 398.014 866.355 397.798C865.933 397.582 865.572 397.268 865.274 396.856C864.852 397.268 864.439 397.582 864.034 397.798C863.63 398.014 863.226 398.122 862.822 398.122C862.698 398.122 862.58 398.122 862.466 398.122C862.351 398.122 862.277 398.112 862.241 398.092V407.246ZM878.088 407.246H862.241C862.277 407.246 862.351 407.246 862.466 407.246C862.58 407.246 862.698 407.246 862.822 407.246C863.12 407.246 863.476 407.246 863.889 407.246C864.302 407.246 864.764 407.246 865.274 407.246C865.432 407.246 865.608 407.246 865.801 407.246C865.994 407.246 866.201 407.246 866.421 407.246C866.64 407.246 866.864 407.246 867.093 407.246C867.321 407.246 867.559 407.246 867.805 407.246C867.998 407.246 868.2 407.246 868.411 407.246C868.622 407.246 868.833 407.246 869.044 407.246C869.255 407.246 869.457 407.246 869.651 407.246C869.844 407.246 870.02 407.246 870.178 407.246C870.565 407.246 870.951 407.246 871.338 407.246C871.725 407.246 872.155 407.246 872.63 407.246C872.876 407.246 873.118 407.246 873.355 407.246C873.592 407.246 873.817 407.246 874.028 407.246C874.238 407.246 874.432 407.246 874.608 407.246C874.783 407.246 874.942 407.246 875.082 407.246C875.487 407.246 875.891 407.246 876.295 407.246C876.699 407.246 877.104 407.246 877.508 407.246C877.649 407.246 877.785 407.246 877.917 407.246C878.049 407.246 878.106 407.246 878.088 407.246Z" fill="white"/>
<rect x="671.34" y="788.762" width="64.4417" height="59.3359" rx="29.668" fill="#754DE5"/>
<path d="M712.432 819.359L712.432 819.359L712.426 819.362L699.613 826.664C699.135 826.936 698.625 826.57 698.625 826.154V811.552C698.625 811.137 699.133 810.771 699.613 811.044L699.613 811.044L712.426 818.345L712.426 818.345L712.432 818.349C712.527 818.402 712.604 818.478 712.656 818.567C712.709 818.655 712.735 818.754 712.735 818.854C712.735 818.954 712.709 819.053 712.656 819.141C712.604 819.23 712.527 819.306 712.432 819.359Z" stroke="white" stroke-width="2"/>
<rect x="761.219" y="788.762" width="64.4417" height="59.3359" rx="29.668" fill="#3A3C55"/>
<path d="M787.222 810.953H799.658C800.232 810.953 800.773 811.171 801.166 811.546C801.556 811.918 801.767 812.414 801.767 812.92V824.787C801.767 825.293 801.556 825.789 801.166 826.161C800.773 826.536 800.232 826.754 799.658 826.754H787.222C786.648 826.754 786.106 826.536 785.714 826.161C785.323 825.789 785.113 825.293 785.113 824.787V812.92C785.113 812.414 785.323 811.918 785.714 811.546C786.106 811.171 786.648 810.953 787.222 810.953Z" stroke="white" stroke-width="2"/>
<g filter="url(#filter8_d_20_48)">
<rect x="1225.88" y="197.945" width="60.2021" height="38.1445" rx="19.0723" fill="#3A3C55"/>
</g>
<ellipse cx="1240.72" cy="217.018" rx="19.926" ry="19.9199" fill="#754DE5"/>
<path d="M1238.94 205.138C1239.08 205.314 1239.17 205.529 1239.19 205.756C1239.21 205.983 1239.16 206.211 1239.05 206.411C1238.2 207.985 1237.76 209.75 1237.76 211.544C1237.76 217.509 1242.58 222.339 1248.52 222.339C1249.29 222.339 1250.05 222.257 1250.77 222.101C1250.99 222.053 1251.22 222.071 1251.44 222.155C1251.65 222.238 1251.83 222.383 1251.96 222.57C1252.1 222.765 1252.17 223.001 1252.16 223.24C1252.15 223.48 1252.07 223.71 1251.92 223.895C1250.76 225.324 1249.31 226.476 1247.66 227.266C1246.01 228.055 1244.21 228.464 1242.38 228.461C1235.6 228.461 1230.12 222.951 1230.12 216.163C1230.12 211.054 1233.22 206.672 1237.65 204.815C1237.87 204.721 1238.11 204.701 1238.34 204.76C1238.58 204.818 1238.78 204.951 1238.94 205.138Z" fill="white"/>
<path d="M702.509 588.4V616H696.429V596.44C696.429 595.933 696.443 595.44 696.469 594.96C696.496 594.453 696.563 593.947 696.669 593.44L690.109 595.12L689.389 591.16L696.429 588.4H702.509ZM725.775 588.4L725.575 593H714.095L713.775 598.2L717.815 598.64C719.495 598.8 720.895 599.12 722.015 599.6C723.162 600.08 724.068 600.707 724.735 601.48C725.402 602.253 725.882 603.147 726.175 604.16C726.468 605.173 726.615 606.307 726.615 607.56C726.615 608.76 726.468 609.907 726.175 611C725.882 612.067 725.375 613.013 724.655 613.84C723.962 614.667 722.988 615.32 721.735 615.8C720.482 616.253 718.882 616.48 716.935 616.48C715.655 616.48 714.202 616.4 712.575 616.24C710.975 616.107 709.348 615.907 707.695 615.64L708.255 610.96C709.562 611.093 710.828 611.213 712.055 611.32C713.308 611.4 714.415 611.44 715.375 611.44C716.788 611.44 717.855 611.293 718.575 611C719.295 610.707 719.788 610.267 720.055 609.68C720.348 609.067 720.522 608.307 720.575 607.4C720.602 606.52 720.495 605.827 720.255 605.32C720.042 604.787 719.668 604.373 719.135 604.08C718.628 603.787 717.948 603.587 717.095 603.48C716.268 603.347 715.242 603.24 714.015 603.16L710.575 602.76C710.015 602.68 709.562 602.453 709.215 602.08C708.868 601.68 708.708 601.2 708.735 600.64L709.415 588.4H725.775ZM733.925 597.96C734.699 597.96 735.232 598.12 735.525 598.44C735.845 598.733 736.005 599.267 736.005 600.04V601.96C736.005 602.733 735.845 603.28 735.525 603.6C735.232 603.893 734.699 604.04 733.925 604.04H732.405C731.632 604.04 731.085 603.893 730.765 603.6C730.472 603.28 730.325 602.733 730.325 601.96V600.04C730.325 599.267 730.472 598.733 730.765 598.44C731.085 598.12 731.632 597.96 732.405 597.96H733.925ZM733.925 609.88C734.699 609.88 735.232 610.04 735.525 610.36C735.845 610.653 736.005 611.187 736.005 611.96V613.88C736.005 614.653 735.845 615.2 735.525 615.52C735.232 615.813 734.699 615.96 733.925 615.96H732.405C731.632 615.96 731.085 615.813 730.765 615.52C730.472 615.2 730.325 614.653 730.325 613.88V611.96C730.325 611.187 730.472 610.653 730.765 610.36C731.085 610.04 731.632 609.88 732.405 609.88H733.925ZM751.119 587.84C753.759 587.84 755.852 588.307 757.399 589.24C758.972 590.173 760.092 591.693 760.759 593.8C761.452 595.88 761.799 598.68 761.799 602.2C761.799 605.72 761.452 608.533 760.759 610.64C760.092 612.72 758.972 614.227 757.399 615.16C755.852 616.093 753.759 616.56 751.119 616.56C748.479 616.56 746.372 616.093 744.799 615.16C743.252 614.227 742.145 612.72 741.479 610.64C740.812 608.533 740.479 605.72 740.479 602.2C740.479 598.68 740.812 595.88 741.479 593.8C742.145 591.693 743.252 590.173 744.799 589.24C746.372 588.307 748.479 587.84 751.119 587.84ZM751.079 592.64C750.199 592.64 749.465 592.787 748.879 593.08C748.292 593.373 747.825 593.867 747.479 594.56C747.132 595.253 746.879 596.227 746.719 597.48C746.585 598.707 746.519 600.28 746.519 602.2C746.519 604.093 746.585 605.667 746.719 606.92C746.879 608.173 747.132 609.147 747.479 609.84C747.825 610.533 748.292 611.027 748.879 611.32C749.465 611.613 750.199 611.76 751.079 611.76C751.985 611.76 752.732 611.613 753.319 611.32C753.932 611.027 754.412 610.533 754.759 609.84C755.132 609.147 755.385 608.173 755.519 606.92C755.679 605.667 755.759 604.093 755.759 602.2C755.759 600.28 755.679 598.707 755.519 597.48C755.385 596.227 755.132 595.253 754.759 594.56C754.412 593.867 753.932 593.373 753.319 593.08C752.732 592.787 751.985 592.64 751.079 592.64ZM776.353 587.84C778.993 587.84 781.087 588.307 782.633 589.24C784.207 590.173 785.327 591.693 785.993 593.8C786.687 595.88 787.033 598.68 787.033 602.2C787.033 605.72 786.687 608.533 785.993 610.64C785.327 612.72 784.207 614.227 782.633 615.16C781.087 616.093 778.993 616.56 776.353 616.56C773.713 616.56 771.607 616.093 770.033 615.16C768.487 614.227 767.38 612.72 766.713 610.64C766.047 608.533 765.713 605.72 765.713 602.2C765.713 598.68 766.047 595.88 766.713 593.8C767.38 591.693 768.487 590.173 770.033 589.24C771.607 588.307 773.713 587.84 776.353 587.84ZM776.313 592.64C775.433 592.64 774.7 592.787 774.113 593.08C773.527 593.373 773.06 593.867 772.713 594.56C772.367 595.253 772.113 596.227 771.953 597.48C771.82 598.707 771.753 600.28 771.753 602.2C771.753 604.093 771.82 605.667 771.953 606.92C772.113 608.173 772.367 609.147 772.713 609.84C773.06 610.533 773.527 611.027 774.113 611.32C774.7 611.613 775.433 611.76 776.313 611.76C777.22 611.76 777.967 611.613 778.553 611.32C779.167 611.027 779.647 610.533 779.993 609.84C780.367 609.147 780.62 608.173 780.753 606.92C780.913 605.667 780.993 604.093 780.993 602.2C780.993 600.28 780.913 598.707 780.753 597.48C780.62 596.227 780.367 595.253 779.993 594.56C779.647 593.867 779.167 593.373 778.553 593.08C777.967 592.787 777.22 592.64 776.313 592.64Z" fill="white"/>
<path d="M1269.97 927.777C1261.07 927.777 1253.86 934.972 1253.86 943.856C1253.86 950.97 1258.47 956.98 1264.87 959.11C1265.68 959.251 1265.98 958.768 1265.98 958.346C1265.98 957.964 1265.96 956.698 1265.96 955.352C1261.91 956.095 1260.87 954.367 1260.54 953.462C1260.36 953 1259.58 951.573 1258.89 951.191C1258.33 950.89 1257.52 950.146 1258.87 950.126C1260.14 950.106 1261.05 951.292 1261.35 951.774C1262.8 954.206 1265.12 953.523 1266.04 953.101C1266.18 952.056 1266.61 951.352 1267.07 950.95C1263.48 950.548 1259.74 949.161 1259.74 943.012C1259.74 941.263 1260.36 939.816 1261.39 938.69C1261.23 938.289 1260.66 936.641 1261.55 934.43C1261.55 934.43 1262.9 934.008 1265.98 936.078C1267.27 935.716 1268.64 935.535 1270.01 935.535C1271.38 935.535 1272.75 935.716 1274.04 936.078C1277.12 933.988 1278.47 934.43 1278.47 934.43C1279.35 936.641 1278.79 938.289 1278.63 938.69C1279.66 939.816 1280.28 941.243 1280.28 943.012C1280.28 949.182 1276.51 950.548 1272.93 950.95C1273.51 951.453 1274.02 952.417 1274.02 953.925C1274.02 956.075 1274 957.804 1274 958.346C1274 958.768 1274.3 959.271 1275.1 959.11C1278.3 958.033 1281.08 955.981 1283.05 953.245C1285.02 950.508 1286.08 947.225 1286.08 943.856C1286.08 934.972 1278.87 927.777 1269.97 927.777Z" fill="#FBFBFB"/>
</g>
<defs>
<filter id="filter0_d_20_48" x="412.425" y="289.094" width="321.921" height="321.921" filterUnits="userSpaceOnUse" color-interpolation-filters="sRGB">
<feFlood flood-opacity="0" result="BackgroundImageFix"/>
<feColorMatrix in="SourceAlpha" type="matrix" values="0 0 0 0 0 0 0 0 0 0 0 0 0 0 0 0 0 0 127 0" result="hardAlpha"/>
<feOffset dx="4" dy="5"/>
<feGaussianBlur stdDeviation="10"/>
<feComposite in2="hardAlpha" operator="out"/>
<feColorMatrix type="matrix" values="0 0 0 0 0 0 0 0 0 0 0 0 0 0 0 0 0 0 0.46 0"/>
<feBlend mode="normal" in2="BackgroundImageFix" result="effect1_dropShadow_20_48"/>
<feBlend mode="normal" in="SourceGraphic" in2="effect1_dropShadow_20_48" result="shape"/>
</filter>
<filter id="filter1_d_20_48" x="443.309" y="319.187" width="260.152" height="260.152" filterUnits="userSpaceOnUse" color-interpolation-filters="sRGB">
<feFlood flood-opacity="0" result="BackgroundImageFix"/>
<feColorMatrix in="SourceAlpha" type="matrix" values="0 0 0 0 0 0 0 0 0 0 0 0 0 0 0 0 0 0 127 0" result="hardAlpha"/>
<feOffset dx="4" dy="5"/>
<feGaussianBlur stdDeviation="10"/>
<feComposite in2="hardAlpha" operator="out"/>
<feColorMatrix type="matrix" values="0 0 0 0 0 0 0 0 0 0 0 0 0 0 0 0 0 0 0.55 0"/>
<feBlend mode="normal" in2="BackgroundImageFix" result="effect1_dropShadow_20_48"/>
<feBlend mode="normal" in="SourceGraphic" in2="effect1_dropShadow_20_48" result="shape"/>
</filter>
<filter id="filter2_d_20_48" x="581.571" y="441.48" width="341.858" height="341.766" filterUnits="userSpaceOnUse" color-interpolation-filters="sRGB">
<feFlood flood-opacity="0" result="BackgroundImageFix"/>
<feColorMatrix in="SourceAlpha" type="matrix" values="0 0 0 0 0 0 0 0 0 0 0 0 0 0 0 0 0 0 127 0" result="hardAlpha"/>
<feOffset dx="4" dy="5"/>
<feGaussianBlur stdDeviation="10"/>
<feComposite in2="hardAlpha" operator="out"/>
<feColorMatrix type="matrix" values="0 0 0 0 0 0 0 0 0 0 0 0 0 0 0 0 0 0 0.46 0"/>
<feBlend mode="normal" in2="BackgroundImageFix" result="effect1_dropShadow_20_48"/>
<feBlend mode="normal" in="SourceGraphic" in2="effect1_dropShadow_20_48" result="shape"/>
</filter>
<filter id="filter3_d_20_48" x="614.64" y="473.691" width="275.721" height="275.648" filterUnits="userSpaceOnUse" color-interpolation-filters="sRGB">
<feFlood flood-opacity="0" result="BackgroundImageFix"/>
<feColorMatrix in="SourceAlpha" type="matrix" values="0 0 0 0 0 0 0 0 0 0 0 0 0 0 0 0 0 0 127 0" result="hardAlpha"/>
<feOffset dx="4" dy="5"/>
<feGaussianBlur stdDeviation="10"/>
<feComposite in2="hardAlpha" operator="out"/>
<feColorMatrix type="matrix" values="0 0 0 0 0 0 0 0 0 0 0 0 0 0 0 0 0 0 0.75 0"/>
<feBlend mode="normal" in2="BackgroundImageFix" result="effect1_dropShadow_20_48"/>
<feBlend mode="normal" in="SourceGraphic" in2="effect1_dropShadow_20_48" result="shape"/>
</filter>
<filter id="filter4_d_20_48" x="590.179" y="368.324" width="72.4417" height="67.3359" filterUnits="userSpaceOnUse" color-interpolation-filters="sRGB">
<feFlood flood-opacity="0" result="BackgroundImageFix"/>
<feColorMatrix in="SourceAlpha" type="matrix" values="0 0 0 0 0 0 0 0 0 0 0 0 0 0 0 0 0 0 127 0" result="hardAlpha"/>
<feOffset dy="4"/>
<feGaussianBlur stdDeviation="2"/>
<feComposite in2="hardAlpha" operator="out"/>
<feColorMatrix type="matrix" values="0 0 0 0 0 0 0 0 0 0 0 0 0 0 0 0 0 0 0.25 0"/>
<feBlend mode="normal" in2="BackgroundImageFix" result="effect1_dropShadow_20_48"/>
<feBlend mode="normal" in="SourceGraphic" in2="effect1_dropShadow_20_48" result="shape"/>
</filter>
<filter id="filter5_d_20_48" x="671.579" y="368.324" width="72.4417" height="67.3359" filterUnits="userSpaceOnUse" color-interpolation-filters="sRGB">
<feFlood flood-opacity="0" result="BackgroundImageFix"/>
<feColorMatrix in="SourceAlpha" type="matrix" values="0 0 0 0 0 0 0 0 0 0 0 0 0 0 0 0 0 0 127 0" result="hardAlpha"/>
<feOffset dy="4"/>
<feGaussianBlur stdDeviation="2"/>
<feComposite in2="hardAlpha" operator="out"/>
<feColorMatrix type="matrix" values="0 0 0 0 0 0 0 0 0 0 0 0 0 0 0 0 0 0 0.25 0"/>
<feBlend mode="normal" in2="BackgroundImageFix" result="effect1_dropShadow_20_48"/>
<feBlend mode="normal" in="SourceGraphic" in2="effect1_dropShadow_20_48" result="shape"/>
</filter>
<filter id="filter6_d_20_48" x="752.979" y="368.324" width="72.4417" height="67.3359" filterUnits="userSpaceOnUse" color-interpolation-filters="sRGB">
<feFlood flood-opacity="0" result="BackgroundImageFix"/>
<feColorMatrix in="SourceAlpha" type="matrix" values="0 0 0 0 0 0 0 0 0 0 0 0 0 0 0 0 0 0 127 0" result="hardAlpha"/>
<feOffset dy="4"/>
<feGaussianBlur stdDeviation="2"/>
<feComposite in2="hardAlpha" operator="out"/>
<feColorMatrix type="matrix" values="0 0 0 0 0 0 0 0 0 0 0 0 0 0 0 0 0 0 0.25 0"/>
<feBlend mode="normal" in2="BackgroundImageFix" result="effect1_dropShadow_20_48"/>
<feBlend mode="normal" in="SourceGraphic" in2="effect1_dropShadow_20_48" result="shape"/>
</filter>
<filter id="filter7_d_20_48" x="834.379" y="368.324" width="72.4417" height="67.3359" filterUnits="userSpaceOnUse" color-interpolation-filters="sRGB">
<feFlood flood-opacity="0" result="BackgroundImageFix"/>
<feColorMatrix in="SourceAlpha" type="matrix" values="0 0 0 0 0 0 0 0 0 0 0 0 0 0 0 0 0 0 127 0" result="hardAlpha"/>
<feOffset dy="4"/>
<feGaussianBlur stdDeviation="2"/>
<feComposite in2="hardAlpha" operator="out"/>
<feColorMatrix type="matrix" values="0 0 0 0 0 0 0 0 0 0 0 0 0 0 0 0 0 0 0.25 0"/>
<feBlend mode="normal" in2="BackgroundImageFix" result="effect1_dropShadow_20_48"/>
<feBlend mode="normal" in="SourceGraphic" in2="effect1_dropShadow_20_48" result="shape"/>
</filter>
<filter id="filter8_d_20_48" x="1221.88" y="197.945" width="68.202" height="46.1445" filterUnits="userSpaceOnUse" color-interpolation-filters="sRGB">
<feFlood flood-opacity="0" result="BackgroundImageFix"/>
<feColorMatrix in="SourceAlpha" type="matrix" values="0 0 0 0 0 0 0 0 0 0 0 0 0 0 0 0 0 0 127 0" result="hardAlpha"/>
<feOffset dy="4"/>
<feGaussianBlur stdDeviation="2"/>
<feComposite in2="hardAlpha" operator="out"/>
<feColorMatrix type="matrix" values="0 0 0 0 0 0 0 0 0 0 0 0 0 0 0 0 0 0 0.25 0"/>
<feBlend mode="normal" in2="BackgroundImageFix" result="effect1_dropShadow_20_48"/>
<feBlend mode="normal" in="SourceGraphic" in2="effect1_dropShadow_20_48" result="shape"/>
</filter>
<clipPath id="clip0_20_48">
<rect width="1359" height="1010" fill="white"/>
</clipPath>
</defs>
</svg>
