<svg width="1440" height="1024" viewBox="0 0 1440 1024" fill="none" xmlns="http://www.w3.org/2000/svg">
<path d="M0 41C0 18.3563 18.3563 0 41 0H1399C1421.64 0 1440 18.3563 1440 41V983C1440 1005.64 1421.64 1024 1399 1024H41C18.3564 1024 0 1005.64 0 983V41Z" fill="#1A1D2C"/>
<g filter="url(#filter0_d_4_7)">
<path d="M898 549C898 647.307 818.307 727 720 727C621.693 727 542 647.307 542 549C542 450.693 621.693 371 720 371C818.307 371 898 450.693 898 549Z" fill="#24283B"/>
</g>
<g filter="url(#filter1_d_4_7)">
<path d="M859 548C859 624.768 796.768 687 720 687C643.232 687 581 624.768 581 548C581 471.232 643.232 409 720 409C796.768 409 859 471.232 859 548Z" fill="#24283B"/>
</g>
<path fill-rule="evenodd" clip-rule="evenodd" d="M797.71 676.259C769.416 693.421 736.242 700.744 703.353 697.086C670.464 693.428 639.707 678.996 615.871 656.036C613.485 653.737 613.414 649.939 615.713 647.552C618.011 645.165 621.81 645.094 624.196 647.393C646.125 668.517 674.422 681.795 704.679 685.16C734.937 688.525 765.457 681.788 791.487 665.999C817.517 650.21 837.596 626.254 848.597 597.862C859.599 569.47 860.904 538.236 852.31 509.023C843.717 479.811 825.706 454.26 801.084 436.35C776.462 418.44 746.61 409.176 716.178 410C712.865 410.09 710.107 407.477 710.018 404.165C709.928 400.852 712.541 398.094 715.853 398.005C748.932 397.109 781.38 407.178 808.143 426.646C834.906 446.113 854.482 473.885 863.822 505.637C873.163 537.388 871.744 571.337 859.787 602.198C847.829 633.058 826.004 659.097 797.71 676.259Z" fill="#754DE5"/>
<path fill-rule="evenodd" clip-rule="evenodd" d="M43 178.5C43 178.224 43.2239 178 43.5 178H1412.5C1412.78 178 1413 178.224 1413 178.5C1413 178.776 1412.78 179 1412.5 179H43.5C43.2239 179 43 178.776 43 178.5Z" fill="#3A3C55"/>
<path d="M140 88.0674V85.5771L155.117 76.5439V79.7422L144.199 86.8223L155.117 93.9023V97.1006L140 88.0674Z" fill="#D6D6D6"/>
<path d="M161.429 113.546V73.5459H165.479V76.2959H166.179C166.746 75.2626 167.379 74.4959 168.079 73.9959C168.813 73.4626 169.863 73.1959 171.229 73.1959C173.029 73.1959 174.379 73.6959 175.279 74.6959C176.179 75.6626 176.679 77.2626 176.779 79.4959C176.813 80.5292 176.829 81.8459 176.829 83.4459C176.863 85.0459 176.879 86.7459 176.879 88.5459C176.879 90.3126 176.863 92.0126 176.829 93.6459C176.829 95.2459 176.813 96.5626 176.779 97.5959C176.679 99.8292 176.146 101.446 175.179 102.446C174.213 103.413 172.829 103.896 171.029 103.896C169.896 103.896 168.946 103.663 168.179 103.196C167.446 102.696 166.779 101.896 166.179 100.796H165.479V113.546H161.429ZM169.679 100.896C170.679 100.896 171.429 100.663 171.929 100.196C172.429 99.7292 172.696 98.9626 172.729 97.8959C172.829 95.1292 172.879 92.7459 172.879 90.7459C172.913 88.7126 172.913 86.7959 172.879 84.9959C172.846 83.1959 172.796 81.2459 172.729 79.1459C172.696 78.1126 172.463 77.3626 172.029 76.8959C171.596 76.4292 170.879 76.1959 169.879 76.1959C167.646 76.1959 166.179 77.1792 165.479 79.1459V97.9459C165.879 99.0459 166.413 99.8126 167.079 100.246C167.746 100.679 168.613 100.896 169.679 100.896Z" fill="#D6D6D6"/>
<path d="M181.595 103.546V73.5459H185.645V76.5459H186.495C186.795 75.3792 187.295 74.5792 187.995 74.1459C188.729 73.6792 189.712 73.4459 190.945 73.4459C191.245 73.4459 191.545 73.4626 191.845 73.4959C192.179 73.4959 192.512 73.5126 192.845 73.5459V76.6459H190.995C189.462 76.6459 188.262 76.8959 187.395 77.3959C186.562 77.8626 185.979 78.7126 185.645 79.9459V103.546H181.595Z" fill="#D6D6D6"/>
<path d="M202.918 103.896C200.218 103.896 198.302 103.363 197.168 102.296C196.068 101.196 195.468 99.3959 195.368 96.8959C195.302 95.5292 195.252 93.8626 195.218 91.8959C195.185 89.9292 195.168 87.9126 195.168 85.8459C195.202 83.7459 195.268 81.8626 195.368 80.1959C195.468 77.6626 196.068 75.8626 197.168 74.7959C198.302 73.7292 200.218 73.1959 202.918 73.1959C205.652 73.1959 207.568 73.7459 208.668 74.8459C209.768 75.9126 210.368 77.6959 210.468 80.1959C210.535 81.7292 210.585 83.4792 210.618 85.4459C210.652 87.3792 210.652 89.3459 210.618 91.3459C210.618 93.3459 210.568 95.1959 210.468 96.8959C210.368 99.3959 209.768 101.196 208.668 102.296C207.568 103.363 205.652 103.896 202.918 103.896ZM202.918 100.846C204.252 100.846 205.168 100.596 205.668 100.096C206.202 99.5959 206.485 98.8126 206.518 97.7459C206.618 94.7126 206.668 91.6792 206.668 88.6459C206.702 85.6126 206.652 82.5126 206.518 79.3459C206.485 78.2459 206.202 77.4626 205.668 76.9959C205.135 76.4959 204.218 76.2459 202.918 76.2459C201.652 76.2459 200.735 76.4959 200.168 76.9959C199.635 77.4959 199.352 78.3126 199.318 79.4459C199.185 82.1126 199.118 85.0459 199.118 88.2459C199.118 91.4459 199.185 94.5792 199.318 97.6459C199.352 98.7792 199.635 99.5959 200.168 100.096C200.735 100.596 201.652 100.846 202.918 100.846Z" fill="#D6D6D6"/>
<path d="M223.526 111.946C221.16 111.946 219.26 111.596 217.826 110.896C216.393 110.196 215.61 109.129 215.476 107.696C215.476 107.529 215.46 107.329 215.426 107.096C215.426 106.896 215.443 106.696 215.476 106.496C215.51 105.563 215.86 104.829 216.526 104.296C217.193 103.796 217.96 103.479 218.826 103.346V102.646C217.126 102.179 216.226 101.313 216.126 100.046C216.126 99.8459 216.126 99.6792 216.126 99.5459C216.126 99.3792 216.126 99.2126 216.126 99.0459C216.16 98.3792 216.426 97.7959 216.926 97.2959C217.46 96.7959 218.11 96.4959 218.876 96.3959V95.6959C217.843 95.2292 217.093 94.5292 216.626 93.5959C216.16 92.6292 215.876 91.3959 215.776 89.8959C215.71 88.1292 215.676 86.4626 215.676 84.8959C215.676 83.3292 215.71 81.6126 215.776 79.7459C215.91 77.3792 216.543 75.6959 217.676 74.6959C218.843 73.6626 220.693 73.1459 223.226 73.1459C225.026 73.1459 226.443 73.3959 227.476 73.8959C228.543 74.3626 229.326 75.1292 229.826 76.1959H230.476C230.576 75.3626 230.926 74.7126 231.526 74.2459C232.126 73.7792 232.91 73.5459 233.876 73.5459V76.6959H233.326C232.526 76.6959 231.876 76.9792 231.376 77.5459C230.876 78.1126 230.626 78.9959 230.626 80.1959C230.693 82.0292 230.726 83.7292 230.726 85.2959C230.726 86.8626 230.676 88.3959 230.576 89.8959C230.476 92.2292 229.86 93.9126 228.726 94.9459C227.626 95.9459 225.793 96.4459 223.226 96.4459C223.093 96.4459 222.96 96.4459 222.826 96.4459C222.693 96.4459 222.576 96.4459 222.476 96.4459C221.343 96.4459 220.543 96.6292 220.076 96.9959C219.61 97.3292 219.376 97.7792 219.376 98.3459V98.6459C219.376 99.2792 219.726 99.6959 220.426 99.8959C221.16 100.096 222.276 100.229 223.776 100.296C226.41 100.363 228.41 100.779 229.776 101.546C231.176 102.313 231.943 103.596 232.076 105.396C232.143 105.896 232.143 106.396 232.076 106.896C231.943 108.863 231.076 110.196 229.476 110.896C227.876 111.596 225.893 111.946 223.526 111.946ZM223.226 93.3459C224.326 93.3459 225.176 93.1292 225.776 92.6959C226.376 92.2292 226.693 91.4126 226.726 90.2459C226.793 88.5126 226.826 86.7792 226.826 85.0459C226.826 83.3126 226.776 81.4126 226.676 79.3459C226.643 78.2126 226.36 77.4292 225.826 76.9959C225.293 76.5292 224.426 76.2959 223.226 76.2959C221.993 76.2959 221.093 76.5292 220.526 76.9959C219.96 77.4626 219.676 78.2792 219.676 79.4459C219.61 81.4792 219.56 83.3459 219.526 85.0459C219.526 86.7459 219.576 88.4792 219.676 90.2459C219.71 91.4126 220.026 92.2292 220.626 92.6959C221.226 93.1292 222.093 93.3459 223.226 93.3459ZM223.626 108.846C225.193 108.846 226.36 108.663 227.126 108.296C227.893 107.963 228.36 107.396 228.526 106.596C228.593 106.229 228.576 105.846 228.476 105.446C228.376 104.746 227.926 104.229 227.126 103.896C226.36 103.563 225.193 103.363 223.626 103.296C222.06 103.263 220.926 103.413 220.226 103.746C219.56 104.113 219.193 104.729 219.126 105.596C219.093 105.929 219.093 106.296 219.126 106.696C219.193 107.496 219.576 108.046 220.276 108.346C220.976 108.679 222.093 108.846 223.626 108.846Z" fill="#D6D6D6"/>
<path d="M236.332 103.546V73.5459H240.382V76.5459H241.232C241.532 75.3792 242.032 74.5792 242.732 74.1459C243.465 73.6792 244.448 73.4459 245.682 73.4459C245.982 73.4459 246.282 73.4626 246.582 73.4959C246.915 73.4959 247.248 73.5126 247.582 73.5459V76.6459H245.732C244.198 76.6459 242.998 76.8959 242.132 77.3959C241.298 77.8626 240.715 78.7126 240.382 79.9459V103.546H236.332Z" fill="#D6D6D6"/>
<path d="M255.05 103.846C251.417 103.846 249.467 101.896 249.2 97.9959C249.167 97.5626 249.133 97.1459 249.1 96.7459C249.1 96.3126 249.117 95.8792 249.15 95.4459C249.25 93.6792 249.717 92.1792 250.55 90.9459C251.383 89.6792 252.883 88.5126 255.05 87.4459C255.85 87.0792 256.7 86.7126 257.6 86.3459C258.5 85.9459 259.4 85.5959 260.3 85.2959V79.3459C260.3 78.2792 260.033 77.5126 259.5 77.0459C259 76.5459 258.167 76.2959 257 76.2959C256 76.2959 255.2 76.4959 254.6 76.8959C254 77.2959 253.683 78.0292 253.65 79.0959C253.617 79.8292 253.6 80.7126 253.6 81.7459C253.6 82.7459 253.617 83.4959 253.65 83.9959H249.85C249.783 83.2959 249.75 82.5626 249.75 81.7959C249.75 81.0292 249.767 80.3126 249.8 79.6459C249.867 77.4126 250.433 75.7792 251.5 74.7459C252.6 73.6792 254.483 73.1459 257.15 73.1459C259.85 73.1459 261.7 73.6959 262.7 74.7959C263.7 75.8959 264.2 77.6792 264.2 80.1459L264.15 103.546H260.2V100.796H259.65C259.217 101.763 258.667 102.513 258 103.046C257.333 103.579 256.35 103.846 255.05 103.846ZM256.25 100.896C258.15 100.896 259.483 99.9626 260.25 98.0959V88.4959C259.55 88.7292 258.85 88.9959 258.15 89.2959C257.483 89.5959 256.717 90.0126 255.85 90.5459C254.75 91.1792 254.017 91.9126 253.65 92.7459C253.317 93.5459 253.15 94.4626 253.15 95.4959C253.15 95.9626 253.15 96.3626 253.15 96.6959C253.15 97.0292 253.167 97.3626 253.2 97.6959C253.267 98.6959 253.567 99.4792 254.1 100.046C254.633 100.613 255.35 100.896 256.25 100.896Z" fill="#D6D6D6"/>
<path d="M396.353 104.547H393.423L401.089 69H404.019L396.353 104.547Z" fill="#D6D6D6"/>
<path d="M408.486 97.1006V93.9023L419.404 86.8223L408.486 79.7422V76.5439L423.604 85.5771V88.0674L408.486 97.1006Z" fill="#D6D6D6"/>
<path d="M269.535 104V74H273.485V76.75H274.285C274.818 75.75 275.418 74.9833 276.085 74.45C276.785 73.9167 277.801 73.65 279.135 73.65C281.768 73.65 283.418 74.7667 284.085 77H284.785C285.318 75.9667 285.985 75.15 286.785 74.55C287.585 73.95 288.651 73.65 289.985 73.65C291.718 73.65 293.018 74.15 293.885 75.15C294.751 76.1167 295.201 77.7167 295.235 79.95V104H291.235V79.65C291.235 78.5833 291.001 77.8167 290.535 77.35C290.068 76.8833 289.385 76.65 288.485 76.65C286.585 76.65 285.235 77.6 284.435 79.5V104H280.435V79.65C280.435 78.5833 280.201 77.8167 279.735 77.35C279.301 76.8833 278.618 76.65 277.685 76.65C275.618 76.65 274.218 77.6333 273.485 79.6V104H269.535Z" fill="#754DE5"/>
<path d="M307.948 104.35C305.248 104.35 303.331 103.817 302.198 102.75C301.098 101.65 300.498 99.85 300.398 97.35C300.331 95.9833 300.281 94.3167 300.248 92.35C300.214 90.3833 300.198 88.3667 300.198 86.3C300.231 84.2 300.298 82.3167 300.398 80.65C300.498 78.1167 301.098 76.3167 302.198 75.25C303.331 74.1833 305.248 73.65 307.948 73.65C310.681 73.65 312.598 74.2 313.698 75.3C314.798 76.3667 315.398 78.15 315.498 80.65C315.564 82.1833 315.614 83.9333 315.648 85.9C315.681 87.8333 315.681 89.8 315.648 91.8C315.648 93.8 315.598 95.65 315.498 97.35C315.398 99.85 314.798 101.65 313.698 102.75C312.598 103.817 310.681 104.35 307.948 104.35ZM307.948 101.3C309.281 101.3 310.198 101.05 310.698 100.55C311.231 100.05 311.514 99.2667 311.548 98.2C311.648 95.1667 311.698 92.1333 311.698 89.1C311.731 86.0667 311.681 82.9667 311.548 79.8C311.514 78.7 311.231 77.9167 310.698 77.45C310.164 76.95 309.248 76.7 307.948 76.7C306.681 76.7 305.764 76.95 305.198 77.45C304.664 77.95 304.381 78.7667 304.348 79.9C304.214 82.5667 304.148 85.5 304.148 88.7C304.148 91.9 304.214 95.0333 304.348 98.1C304.381 99.2333 304.664 100.05 305.198 100.55C305.764 101.05 306.681 101.3 307.948 101.3Z" fill="#754DE5"/>
<path d="M331.41 64H335.46V104H331.41V101.25H330.71C330.143 102.283 329.477 103.067 328.71 103.6C327.943 104.1 326.91 104.35 325.61 104.35C323.777 104.35 322.427 103.867 321.56 102.9C320.693 101.9 320.21 100.283 320.11 98.05C320.077 96.2167 320.043 94.2333 320.01 92.1C320.01 89.9333 320.01 87.8 320.01 85.7C320.043 83.5667 320.077 81.65 320.11 79.95C320.177 77.65 320.693 76.0333 321.66 75.1C322.627 74.1333 323.977 73.65 325.71 73.65C327.01 73.65 328.027 73.9167 328.76 74.45C329.527 74.95 330.193 75.7167 330.76 76.75H331.41V64ZM327.01 101.35C328.043 101.35 328.943 101.117 329.71 100.65C330.477 100.183 331.043 99.4333 331.41 98.4V79.6C331.043 78.5667 330.477 77.8167 329.71 77.35C328.943 76.8833 328.06 76.65 327.06 76.65C326.06 76.65 325.327 76.8833 324.86 77.35C324.427 77.8167 324.193 78.5667 324.16 79.6C324.093 81.6667 324.043 83.8167 324.01 86.05C324.01 88.2833 324.01 90.45 324.01 92.55C324.043 94.65 324.077 96.5333 324.11 98.2C324.177 99.3667 324.443 100.183 324.91 100.65C325.377 101.117 326.077 101.35 327.01 101.35Z" fill="#754DE5"/>
<path d="M348.475 104.35C345.775 104.35 343.858 103.817 342.725 102.75C341.625 101.65 341.025 99.85 340.925 97.35C340.858 95.9833 340.808 94.3167 340.775 92.35C340.742 90.3833 340.725 88.3667 340.725 86.3C340.758 84.2 340.825 82.3167 340.925 80.65C341.025 78.1167 341.625 76.3167 342.725 75.25C343.858 74.1833 345.775 73.65 348.475 73.65C351.208 73.65 353.125 74.2 354.225 75.3C355.325 76.3667 355.925 78.15 356.025 80.65C356.092 82.1833 356.142 83.9333 356.175 85.9C356.208 87.8333 356.208 89.8 356.175 91.8C356.175 93.8 356.125 95.65 356.025 97.35C355.925 99.85 355.325 101.65 354.225 102.75C353.125 103.817 351.208 104.35 348.475 104.35ZM348.475 101.3C349.808 101.3 350.725 101.05 351.225 100.55C351.758 100.05 352.042 99.2667 352.075 98.2C352.175 95.1667 352.225 92.1333 352.225 89.1C352.258 86.0667 352.208 82.9667 352.075 79.8C352.042 78.7 351.758 77.9167 351.225 77.45C350.692 76.95 349.775 76.7 348.475 76.7C347.208 76.7 346.292 76.95 345.725 77.45C345.192 77.95 344.908 78.7667 344.875 79.9C344.742 82.5667 344.675 85.5 344.675 88.7C344.675 91.9 344.742 95.0333 344.875 98.1C344.908 99.2333 345.192 100.05 345.725 100.55C346.292 101.05 347.208 101.3 348.475 101.3Z" fill="#754DE5"/>
<path d="M360.941 104V74H364.991V77H365.841C366.141 75.8333 366.641 75.0333 367.341 74.6C368.074 74.1333 369.058 73.9 370.291 73.9C370.591 73.9 370.891 73.9167 371.191 73.95C371.524 73.95 371.858 73.9667 372.191 74V77.1H370.341C368.808 77.1 367.608 77.35 366.741 77.85C365.908 78.3167 365.324 79.1667 364.991 80.4V104H360.941Z" fill="#754DE5"/>
<path d="M382.264 104.35C379.564 104.35 377.647 103.817 376.514 102.75C375.414 101.65 374.814 99.85 374.714 97.35C374.647 95.9833 374.597 94.3167 374.564 92.35C374.531 90.3833 374.514 88.3667 374.514 86.3C374.547 84.2 374.614 82.3167 374.714 80.65C374.814 78.1167 375.414 76.3167 376.514 75.25C377.647 74.1833 379.564 73.65 382.264 73.65C384.997 73.65 386.914 74.2 388.014 75.3C389.114 76.3667 389.714 78.15 389.814 80.65C389.881 82.1833 389.931 83.9333 389.964 85.9C389.997 87.8333 389.997 89.8 389.964 91.8C389.964 93.8 389.914 95.65 389.814 97.35C389.714 99.85 389.114 101.65 388.014 102.75C386.914 103.817 384.997 104.35 382.264 104.35ZM382.264 101.3C383.597 101.3 384.514 101.05 385.014 100.55C385.547 100.05 385.831 99.2667 385.864 98.2C385.964 95.1667 386.014 92.1333 386.014 89.1C386.047 86.0667 385.997 82.9667 385.864 79.8C385.831 78.7 385.547 77.9167 385.014 77.45C384.481 76.95 383.564 76.7 382.264 76.7C380.997 76.7 380.081 76.95 379.514 77.45C378.981 77.95 378.697 78.7667 378.664 79.9C378.531 82.5667 378.464 85.5 378.464 88.7C378.464 91.9 378.531 95.0333 378.664 98.1C378.697 99.2333 378.981 100.05 379.514 100.55C380.081 101.05 380.997 101.3 382.264 101.3Z" fill="#754DE5"/>
<rect x="973" y="512" width="78" height="72" rx="17" fill="#3A3C55"/>
<path d="M1010.5 551.111C1010.5 550.559 1010.06 550.111 1009.5 550.111H1004C1003.45 550.111 1003 549.663 1003 549.111V547.667C1003 547.115 1003.45 546.667 1004 546.667H1009.5C1010.06 546.667 1010.5 546.219 1010.5 545.667V540C1010.5 539.448 1010.95 539 1011.5 539H1013.03C1013.58 539 1014.03 539.448 1014.03 540V545.667C1014.03 546.219 1014.48 546.667 1015.03 546.667H1020.61C1021.17 546.667 1021.61 547.115 1021.61 547.667V549.111C1021.61 549.663 1021.17 550.111 1020.61 550.111H1015.03C1014.48 550.111 1014.03 550.559 1014.03 551.111V556.86C1014.03 557.412 1013.58 557.86 1013.03 557.86H1011.5C1010.95 557.86 1010.5 557.412 1010.5 556.86V551.111Z" fill="#1A1D2C"/>
<rect x="388" y="512" width="78" height="72" rx="17" fill="#3A3C55"/>
<path d="M419 547C419 546.448 419.448 546 420 546H434C434.552 546 435 546.448 435 547V549C435 549.552 434.552 550 434 550H420C419.448 550 419 549.552 419 549V547Z" fill="#1A1D2C"/>
<g filter="url(#filter2_d_4_7)">
<rect x="538" y="267" width="76" height="70" rx="17" fill="#24283B"/>
</g>
<path d="M568 315C568 315 567 315 567 314C567 313 568 313 568 313H575.062V307.5H572.25C570.521 307.5 569.047 306.891 567.828 305.672C566.609 304.453 566 302.979 566 301.25C566 300 566.344 298.849 567.031 297.797C567.719 296.745 568.646 295.979 569.813 295.5C570 293.938 570.682 292.63 571.859 291.578C573.036 290.526 574.417 290 576 290C577.583 290 578.964 290.526 580.141 291.578C581.318 292.63 582 293.938 582.188 295.5C583.354 295.979 584.281 296.745 584.969 297.797C585.656 298.849 586 300 586 301.25C586 302.979 585.391 304.453 584.172 305.672C582.953 306.891 581.479 307.5 579.75 307.5H576.938V313H584C584 313 585 313 585 314C585 315 584 315 584 315H568ZM572.25 305.625H579.75C580.958 305.625 581.99 305.198 582.844 304.344C583.698 303.49 584.125 302.458 584.125 301.25C584.125 300.375 583.875 299.578 583.375 298.859C582.875 298.141 582.229 297.604 581.438 297.25L580.438 296.812L580.312 295.719C580.167 294.615 579.688 293.698 578.875 292.969C578.062 292.24 577.104 291.875 576 291.875C574.896 291.875 573.938 292.24 573.125 292.969C572.312 293.698 571.833 294.615 571.688 295.719L571.562 296.812L570.562 297.25C569.771 297.604 569.125 298.141 568.625 298.859C568.125 299.578 567.875 300.375 567.875 301.25C567.875 302.458 568.302 303.49 569.156 304.344C570.01 305.198 571.042 305.625 572.25 305.625Z" fill="white"/>
<g filter="url(#filter3_d_4_7)">
<rect x="634" y="267" width="76" height="70" rx="17" fill="#754DE5"/>
</g>
<path d="M664.8 310.238C664.52 310.238 664.275 310.134 664.065 309.926C663.855 309.717 663.75 309.474 663.75 309.196C663.75 308.919 663.855 308.676 664.065 308.467C664.275 308.259 664.52 308.155 664.8 308.155C665.08 308.155 665.325 308.259 665.535 308.467C665.745 308.676 665.85 308.919 665.85 309.196C665.85 309.474 665.745 309.717 665.535 309.926C665.325 310.134 665.08 310.238 664.8 310.238ZM679.2 310.238C678.92 310.238 678.675 310.134 678.465 309.926C678.255 309.717 678.15 309.474 678.15 309.196C678.15 308.919 678.255 308.676 678.465 308.467C678.675 308.259 678.92 308.155 679.2 308.155C679.48 308.155 679.725 308.259 679.935 308.467C680.145 308.676 680.25 308.919 680.25 309.196C680.25 309.474 680.145 309.717 679.935 309.926C679.725 310.134 679.48 310.238 679.2 310.238ZM668.4 315C668.12 315 667.875 314.896 667.665 314.688C667.455 314.479 667.35 314.236 667.35 313.958C667.35 313.681 667.455 313.438 667.665 313.229C667.875 313.021 668.12 312.917 668.4 312.917C668.68 312.917 668.925 313.021 669.135 313.229C669.345 313.438 669.45 313.681 669.45 313.958C669.45 314.236 669.345 314.479 669.135 314.688C668.925 314.896 668.68 315 668.4 315ZM672 310.238C671.72 310.238 671.475 310.134 671.265 309.926C671.055 309.717 670.95 309.474 670.95 309.196C670.95 308.919 671.055 308.676 671.265 308.467C671.475 308.259 671.72 308.155 672 308.155C672.28 308.155 672.525 308.259 672.735 308.467C672.945 308.676 673.05 308.919 673.05 309.196C673.05 309.474 672.945 309.717 672.735 309.926C672.525 310.134 672.28 310.238 672 310.238ZM675.6 315C675.32 315 675.075 314.896 674.865 314.688C674.655 314.479 674.55 314.236 674.55 313.958C674.55 313.681 674.655 313.438 674.865 313.229C675.075 313.021 675.32 312.917 675.6 312.917C675.88 312.917 676.125 313.021 676.335 313.229C676.545 313.438 676.65 313.681 676.65 313.958C676.65 314.236 676.545 314.479 676.335 314.688C676.125 314.896 675.88 315 675.6 315ZM666.3 306.071C664.56 306.071 663.075 305.461 661.845 304.241C660.615 303.021 660 301.548 660 299.821C660 298.254 660.565 296.855 661.695 295.625C662.825 294.395 664.23 293.72 665.91 293.601C666.55 292.49 667.395 291.612 668.445 290.967C669.495 290.322 670.68 290 672 290C673.82 290 675.345 290.57 676.575 291.711C677.805 292.852 678.56 294.266 678.84 295.952C680.42 296.032 681.675 296.562 682.605 297.545C683.535 298.527 684 299.683 684 301.012C684 302.401 683.505 303.591 682.515 304.583C681.525 305.575 680.32 306.071 678.9 306.071H666.3ZM666.3 304.286H678.9C679.82 304.286 680.6 303.963 681.24 303.318C681.88 302.674 682.2 301.895 682.2 300.982C682.2 300.089 681.88 299.325 681.24 298.69C680.6 298.056 679.82 297.738 678.9 297.738H677.1V296.845C677.1 295.437 676.605 294.241 675.615 293.259C674.625 292.277 673.42 291.786 672 291.786C670.98 291.786 670.045 292.059 669.195 292.604C668.345 293.15 667.72 293.889 667.32 294.821L667.08 295.357H666.24C665 295.397 663.95 295.848 663.09 296.711C662.23 297.574 661.8 298.611 661.8 299.821C661.8 301.052 662.24 302.103 663.12 302.976C664 303.849 665.06 304.286 666.3 304.286Z" fill="white"/>
<g filter="url(#filter4_d_4_7)">
<rect x="730" y="267" width="76" height="70" rx="17" fill="#24283B"/>
</g>
<path d="M758.969 304.474C758.969 305.855 759.28 307.155 759.904 308.372C760.527 309.589 761.397 310.603 762.512 311.414C762.425 311.151 762.359 310.883 762.316 310.609C762.272 310.334 762.25 310.066 762.25 309.803C762.25 309.101 762.381 308.443 762.644 307.829C762.906 307.215 763.289 306.656 763.792 306.151C763.792 306.151 766.5 303 767.5 303C768.5 303 771.208 306.151 771.208 306.151C771.711 306.656 772.094 307.215 772.356 307.829C772.619 308.443 772.75 309.101 772.75 309.803C772.75 310.066 772.728 310.334 772.684 310.609C772.641 310.883 772.575 311.151 772.488 311.414C773.603 310.603 774.473 309.589 775.096 308.372C775.72 307.155 776.031 305.855 776.031 304.474C776.031 303.289 775.78 302.133 775.277 301.003C774.773 299.874 774.052 298.838 773.111 297.895C772.652 298.224 772.17 298.481 771.667 298.668C771.164 298.854 770.661 298.947 770.158 298.947C768.823 298.947 767.719 298.492 766.844 297.582C765.969 296.672 765.531 295.526 765.531 294.145V293.487C764.525 294.211 763.617 295.011 762.808 295.888C761.998 296.765 761.309 297.681 760.741 298.635C760.172 299.589 759.734 300.565 759.428 301.562C759.122 302.56 758.969 303.531 758.969 304.474ZM767.5 305.263L765.17 307.566C764.864 307.873 764.629 308.213 764.465 308.586C764.301 308.958 764.219 309.364 764.219 309.803C764.219 310.702 764.536 311.464 765.17 312.089C765.805 312.714 766.581 313.026 767.5 313.026C768.419 313.026 769.195 312.714 769.83 312.089C770.464 311.464 770.781 310.702 770.781 309.803C770.781 309.364 770.699 308.958 770.535 308.586C770.371 308.213 770.136 307.873 769.83 307.566L767.5 305.263ZM767.5 290V294.342C767.5 295.088 767.757 295.713 768.271 296.217C768.785 296.721 769.414 296.974 770.158 296.974C770.552 296.974 770.918 296.891 771.257 296.727C771.596 296.563 771.897 296.316 772.159 295.987L772.75 295.263C774.369 296.184 775.648 297.467 776.589 299.112C777.53 300.757 778 302.544 778 304.474C778 307.412 776.983 309.901 774.948 311.941C772.914 313.98 770.431 315 767.5 315C764.569 315 762.086 313.98 760.052 311.941C758.017 309.901 757 307.412 757 304.474C757 301.667 757.941 298.964 759.822 296.365C761.703 293.766 764.262 291.645 767.5 290Z" fill="white"/>
<g filter="url(#filter5_d_4_7)">
<rect x="826" y="267" width="76" height="70" rx="17" fill="#24283B"/>
</g>
<path d="M874.697 301.146V312.917C874.697 313.472 874.51 313.958 874.137 314.375C873.764 314.792 873.329 315 872.831 315H854.142C853.645 315 853.209 314.792 852.836 314.375C852.463 313.958 852.277 313.472 852.277 312.917V301.146C851.696 300.59 851.313 299.907 851.126 299.097C850.939 298.287 850.96 297.477 851.188 296.667L852.525 291.979C852.691 291.354 852.981 290.868 853.396 290.521C853.811 290.174 854.287 290 854.826 290H872.023C872.603 290 873.111 290.179 873.546 290.538C873.982 290.897 874.282 291.377 874.448 291.979L875.816 296.667C876.044 297.477 876.06 298.287 875.863 299.097C875.666 299.907 875.277 300.59 874.697 301.146ZM866.301 300.069C866.902 300.069 867.41 299.85 867.825 299.41C868.239 298.97 868.405 298.438 868.322 297.812L867.545 292.083H864.435V297.812C864.435 298.414 864.611 298.941 864.964 299.392C865.316 299.844 865.762 300.069 866.301 300.069ZM860.486 300.069C861.066 300.069 861.559 299.85 861.963 299.41C862.367 298.97 862.569 298.438 862.569 297.812V292.083H859.46L858.682 297.812C858.599 298.414 858.745 298.941 859.118 299.392C859.491 299.844 859.947 300.069 860.486 300.069ZM854.826 300.069C855.324 300.069 855.754 299.878 856.117 299.497C856.48 299.115 856.692 298.646 856.754 298.09L857.563 292.083H854.453L853.023 297.153C852.816 297.87 852.898 298.536 853.272 299.149C853.645 299.763 854.163 300.069 854.826 300.069ZM872.147 300.069C872.81 300.069 873.334 299.769 873.717 299.167C874.101 298.565 874.189 297.894 873.982 297.153L872.551 292.083H869.442L870.25 298.09C870.312 298.646 870.525 299.115 870.888 299.497C871.25 299.878 871.67 300.069 872.147 300.069ZM854.142 312.917H872.831V302.118C872.852 302.141 872.785 302.153 872.629 302.153C872.474 302.153 872.313 302.153 872.147 302.153C871.629 302.153 871.136 302.031 870.67 301.788C870.204 301.545 869.742 301.169 869.286 300.66C868.955 301.123 868.54 301.487 868.042 301.753C867.545 302.02 866.995 302.153 866.394 302.153C865.772 302.153 865.239 302.054 864.793 301.858C864.347 301.661 863.917 301.331 863.502 300.868C863.191 301.285 862.797 301.603 862.321 301.823C861.844 302.043 861.305 302.153 860.704 302.153C860.061 302.153 859.491 302.025 858.993 301.771C858.496 301.516 858.071 301.146 857.718 300.66C857.221 301.146 856.734 301.516 856.257 301.771C855.78 302.025 855.303 302.153 854.826 302.153C854.681 302.153 854.541 302.153 854.407 302.153C854.272 302.153 854.184 302.141 854.142 302.118V312.917ZM872.831 312.917H854.142C854.184 312.917 854.272 312.917 854.407 312.917C854.541 312.917 854.681 312.917 854.826 312.917C855.179 312.917 855.599 312.917 856.086 312.917C856.573 312.917 857.117 312.917 857.718 312.917C857.905 312.917 858.112 312.917 858.34 312.917C858.568 312.917 858.812 312.917 859.071 312.917C859.33 312.917 859.595 312.917 859.864 312.917C860.134 312.917 860.413 312.917 860.704 312.917C860.932 312.917 861.17 312.917 861.419 312.917C861.668 312.917 861.916 312.917 862.165 312.917C862.414 312.917 862.652 312.917 862.88 312.917C863.108 312.917 863.316 312.917 863.502 312.917C863.958 312.917 864.414 312.917 864.871 312.917C865.327 312.917 865.835 312.917 866.394 312.917C866.684 312.917 866.97 312.917 867.249 312.917C867.529 312.917 867.794 312.917 868.042 312.917C868.291 312.917 868.519 312.917 868.726 312.917C868.934 312.917 869.12 312.917 869.286 312.917C869.763 312.917 870.24 312.917 870.717 312.917C871.193 312.917 871.67 312.917 872.147 312.917C872.313 312.917 872.474 312.917 872.629 312.917C872.785 312.917 872.852 312.917 872.831 312.917Z" fill="white"/>
<rect x="629" y="763" width="76" height="70" rx="35" fill="#754DE5"/>
<path d="M677.55 799.253L677.55 799.253C677.69 799.175 677.804 799.063 677.882 798.931C677.96 798.799 678 798.651 678 798.501C678 798.35 677.96 798.202 677.882 798.07C677.804 797.938 677.69 797.826 677.55 797.748L677.544 797.744L677.544 797.744L662.433 789.131L662.433 789.131C661.759 788.746 661 789.247 661 789.886V807.113C661 807.753 661.76 808.253 662.433 807.87L677.55 799.253ZM677.55 799.253L677.544 799.257L662.433 807.87L677.55 799.253Z" stroke="white" stroke-width="2"/>
<rect x="735" y="763" width="76" height="70" rx="35" fill="#3A3C55"/>
<path d="M765.667 789H780.333C781.055 789 781.739 789.274 782.236 789.748C782.731 790.221 783 790.852 783 791.5V805.5C783 806.148 782.731 806.779 782.236 807.252C781.739 807.726 781.055 808 780.333 808H765.667C764.945 808 764.261 807.726 763.764 807.252C763.269 806.779 763 806.148 763 805.5V791.5C763 790.852 763.269 790.221 763.764 789.748C764.261 789.274 764.945 789 765.667 789Z" stroke="white" stroke-width="2"/>
<g filter="url(#filter6_d_4_7)">
<rect x="1283" y="66" width="71" height="45" rx="22.5" fill="#3A3C55"/>
</g>
<circle cx="1300.5" cy="88.5" r="23.5" fill="#754DE5"/>
<path d="M1298.4 74.4853C1298.57 74.6929 1298.67 74.947 1298.7 75.2146C1298.72 75.4823 1298.67 75.7513 1298.54 75.9869C1297.54 77.8446 1297.01 79.9268 1297.02 82.0421C1297.02 89.0792 1302.7 94.7774 1309.7 94.7774C1310.62 94.7774 1311.5 94.6812 1312.36 94.4974C1312.62 94.4401 1312.89 94.4621 1313.14 94.5604C1313.39 94.6588 1313.61 94.8292 1313.76 95.0504C1313.93 95.2805 1314.01 95.5584 1314 95.8411C1313.99 96.1237 1313.89 96.3952 1313.71 96.6133C1312.35 98.2993 1310.63 99.6579 1308.69 100.59C1306.74 101.522 1304.62 102.003 1302.46 102C1294.47 102 1288 95.5002 1288 87.4919C1288 81.4646 1291.66 76.2949 1296.88 74.1038C1297.14 73.9929 1297.43 73.9702 1297.7 74.039C1297.98 74.1077 1298.22 74.2644 1298.4 74.4853Z" fill="white"/>
<path d="M666.72 527.98V568H657.904V539.638C657.904 538.903 657.923 538.188 657.962 537.492C658.001 536.757 658.097 536.023 658.252 535.288L648.74 537.724L647.696 531.982L657.904 527.98H666.72ZM700.455 527.98L700.165 534.65H683.519L683.055 542.19L688.913 542.828C691.349 543.06 693.379 543.524 695.003 544.22C696.666 544.916 697.98 545.825 698.947 546.946C699.914 548.067 700.61 549.363 701.035 550.832C701.46 552.301 701.673 553.945 701.673 555.762C701.673 557.502 701.46 559.165 701.035 560.75C700.61 562.297 699.875 563.669 698.831 564.868C697.826 566.067 696.414 567.014 694.597 567.71C692.78 568.367 690.46 568.696 687.637 568.696C685.781 568.696 683.674 568.58 681.315 568.348C678.995 568.155 676.636 567.865 674.239 567.478L675.051 560.692C676.946 560.885 678.782 561.059 680.561 561.214C682.378 561.33 683.983 561.388 685.375 561.388C687.424 561.388 688.971 561.175 690.015 560.75C691.059 560.325 691.774 559.687 692.161 558.836C692.586 557.947 692.838 556.845 692.915 555.53C692.954 554.254 692.799 553.249 692.451 552.514C692.142 551.741 691.6 551.141 690.827 550.716C690.092 550.291 689.106 550.001 687.869 549.846C686.67 549.653 685.182 549.498 683.403 549.382L678.415 548.802C677.603 548.686 676.946 548.357 676.443 547.816C675.94 547.236 675.708 546.54 675.747 545.728L676.733 527.98H700.455ZM712.273 541.842C713.394 541.842 714.168 542.074 714.593 542.538C715.057 542.963 715.289 543.737 715.289 544.858V547.642C715.289 548.763 715.057 549.556 714.593 550.02C714.168 550.445 713.394 550.658 712.273 550.658H710.069C708.948 550.658 708.155 550.445 707.691 550.02C707.266 549.556 707.053 548.763 707.053 547.642V544.858C707.053 543.737 707.266 542.963 707.691 542.538C708.155 542.074 708.948 541.842 710.069 541.842H712.273ZM712.273 559.126C713.394 559.126 714.168 559.358 714.593 559.822C715.057 560.247 715.289 561.021 715.289 562.142V564.926C715.289 566.047 715.057 566.84 714.593 567.304C714.168 567.729 713.394 567.942 712.273 567.942H710.069C708.948 567.942 708.155 567.729 707.691 567.304C707.266 566.84 707.053 566.047 707.053 564.926V562.142C707.053 561.021 707.266 560.247 707.691 559.822C708.155 559.358 708.948 559.126 710.069 559.126H712.273ZM737.204 527.168C741.032 527.168 744.067 527.845 746.31 529.198C748.591 530.551 750.215 532.755 751.182 535.81C752.187 538.826 752.69 542.886 752.69 547.99C752.69 553.094 752.187 557.173 751.182 560.228C750.215 563.244 748.591 565.429 746.31 566.782C744.067 568.135 741.032 568.812 737.204 568.812C733.376 568.812 730.321 568.135 728.04 566.782C725.797 565.429 724.192 563.244 723.226 560.228C722.259 557.173 721.776 553.094 721.776 547.99C721.776 542.886 722.259 538.826 723.226 535.81C724.192 532.755 725.797 530.551 728.04 529.198C730.321 527.845 733.376 527.168 737.204 527.168ZM737.146 534.128C735.87 534.128 734.806 534.341 733.956 534.766C733.105 535.191 732.428 535.907 731.926 536.912C731.423 537.917 731.056 539.329 730.824 541.146C730.63 542.925 730.534 545.206 730.534 547.99C730.534 550.735 730.63 553.017 730.824 554.834C731.056 556.651 731.423 558.063 731.926 559.068C732.428 560.073 733.105 560.789 733.956 561.214C734.806 561.639 735.87 561.852 737.146 561.852C738.46 561.852 739.543 561.639 740.394 561.214C741.283 560.789 741.979 560.073 742.482 559.068C743.023 558.063 743.39 556.651 743.584 554.834C743.816 553.017 743.932 550.735 743.932 547.99C743.932 545.206 743.816 542.925 743.584 541.146C743.39 539.329 743.023 537.917 742.482 536.912C741.979 535.907 741.283 535.191 740.394 534.766C739.543 534.341 738.46 534.128 737.146 534.128ZM773.793 527.168C777.621 527.168 780.657 527.845 782.899 529.198C785.181 530.551 786.805 532.755 787.771 535.81C788.777 538.826 789.279 542.886 789.279 547.99C789.279 553.094 788.777 557.173 787.771 560.228C786.805 563.244 785.181 565.429 782.899 566.782C780.657 568.135 777.621 568.812 773.793 568.812C769.965 568.812 766.911 568.135 764.629 566.782C762.387 565.429 760.782 563.244 759.815 560.228C758.849 557.173 758.365 553.094 758.365 547.99C758.365 542.886 758.849 538.826 759.815 535.81C760.782 532.755 762.387 530.551 764.629 529.198C766.911 527.845 769.965 527.168 773.793 527.168ZM773.735 534.128C772.459 534.128 771.396 534.341 770.545 534.766C769.695 535.191 769.018 535.907 768.515 536.912C768.013 537.917 767.645 539.329 767.413 541.146C767.22 542.925 767.123 545.206 767.123 547.99C767.123 550.735 767.22 553.017 767.413 554.834C767.645 556.651 768.013 558.063 768.515 559.068C769.018 560.073 769.695 560.789 770.545 561.214C771.396 561.639 772.459 561.852 773.735 561.852C775.05 561.852 776.133 561.639 776.983 561.214C777.873 560.789 778.569 560.073 779.071 559.068C779.613 558.063 779.98 556.651 780.173 554.834C780.405 553.017 780.521 550.735 780.521 547.99C780.521 545.206 780.405 542.925 780.173 541.146C779.98 539.329 779.613 537.917 779.071 536.912C778.569 535.907 777.873 535.191 776.983 534.766C776.133 534.341 775.05 534.128 773.735 534.128Z" fill="white"/>
<path d="M1335 927C1324.5 927 1316 935.488 1316 945.968C1316 954.361 1321.44 961.451 1328.99 963.964C1329.94 964.13 1330.3 963.561 1330.3 963.063C1330.3 962.612 1330.27 961.119 1330.27 959.53C1325.5 960.407 1324.26 958.368 1323.88 957.301C1323.67 956.756 1322.74 955.073 1321.94 954.622C1321.27 954.266 1320.32 953.389 1321.91 953.365C1323.41 953.342 1324.48 954.741 1324.84 955.31C1326.55 958.179 1329.28 957.372 1330.37 956.875C1330.54 955.642 1331.03 954.812 1331.58 954.338C1327.35 953.863 1322.94 952.227 1322.94 944.972C1322.94 942.909 1323.67 941.202 1324.88 939.874C1324.69 939.4 1324.03 937.456 1325.07 934.848C1325.07 934.848 1326.66 934.35 1330.3 936.792C1331.82 936.365 1333.43 936.152 1335.05 936.152C1336.66 936.152 1338.28 936.365 1339.8 936.792C1343.43 934.326 1345.02 934.848 1345.02 934.848C1346.07 937.456 1345.4 939.4 1345.21 939.874C1346.42 941.202 1347.16 942.886 1347.16 944.972C1347.16 952.251 1342.72 953.863 1338.49 954.338C1339.18 954.93 1339.77 956.068 1339.77 957.847C1339.77 960.384 1339.75 962.423 1339.75 963.063C1339.75 963.561 1340.11 964.153 1341.06 963.964C1344.83 962.693 1348.11 960.273 1350.43 957.045C1352.75 953.816 1354 949.942 1354 945.968C1354 935.488 1345.5 927 1335 927Z" fill="#FBFBFB"/>
<defs>
<filter id="filter0_d_4_7" x="526" y="356" width="396" height="396" filterUnits="userSpaceOnUse" color-interpolation-filters="sRGB">
<feFlood flood-opacity="0" result="BackgroundImageFix"/>
<feColorMatrix in="SourceAlpha" type="matrix" values="0 0 0 0 0 0 0 0 0 0 0 0 0 0 0 0 0 0 127 0" result="hardAlpha"/>
<feOffset dx="4" dy="5"/>
<feGaussianBlur stdDeviation="10"/>
<feComposite in2="hardAlpha" operator="out"/>
<feColorMatrix type="matrix" values="0 0 0 0 0 0 0 0 0 0 0 0 0 0 0 0 0 0 0.46 0"/>
<feBlend mode="normal" in2="BackgroundImageFix" result="effect1_dropShadow_4_7"/>
<feBlend mode="normal" in="SourceGraphic" in2="effect1_dropShadow_4_7" result="shape"/>
</filter>
<filter id="filter1_d_4_7" x="565" y="394" width="318" height="318" filterUnits="userSpaceOnUse" color-interpolation-filters="sRGB">
<feFlood flood-opacity="0" result="BackgroundImageFix"/>
<feColorMatrix in="SourceAlpha" type="matrix" values="0 0 0 0 0 0 0 0 0 0 0 0 0 0 0 0 0 0 127 0" result="hardAlpha"/>
<feOffset dx="4" dy="5"/>
<feGaussianBlur stdDeviation="10"/>
<feComposite in2="hardAlpha" operator="out"/>
<feColorMatrix type="matrix" values="0 0 0 0 0 0 0 0 0 0 0 0 0 0 0 0 0 0 0.75 0"/>
<feBlend mode="normal" in2="BackgroundImageFix" result="effect1_dropShadow_4_7"/>
<feBlend mode="normal" in="SourceGraphic" in2="effect1_dropShadow_4_7" result="shape"/>
</filter>
<filter id="filter2_d_4_7" x="534" y="267" width="84" height="78" filterUnits="userSpaceOnUse" color-interpolation-filters="sRGB">
<feFlood flood-opacity="0" result="BackgroundImageFix"/>
<feColorMatrix in="SourceAlpha" type="matrix" values="0 0 0 0 0 0 0 0 0 0 0 0 0 0 0 0 0 0 127 0" result="hardAlpha"/>
<feOffset dy="4"/>
<feGaussianBlur stdDeviation="2"/>
<feComposite in2="hardAlpha" operator="out"/>
<feColorMatrix type="matrix" values="0 0 0 0 0 0 0 0 0 0 0 0 0 0 0 0 0 0 0.25 0"/>
<feBlend mode="normal" in2="BackgroundImageFix" result="effect1_dropShadow_4_7"/>
<feBlend mode="normal" in="SourceGraphic" in2="effect1_dropShadow_4_7" result="shape"/>
</filter>
<filter id="filter3_d_4_7" x="630" y="267" width="84" height="78" filterUnits="userSpaceOnUse" color-interpolation-filters="sRGB">
<feFlood flood-opacity="0" result="BackgroundImageFix"/>
<feColorMatrix in="SourceAlpha" type="matrix" values="0 0 0 0 0 0 0 0 0 0 0 0 0 0 0 0 0 0 127 0" result="hardAlpha"/>
<feOffset dy="4"/>
<feGaussianBlur stdDeviation="2"/>
<feComposite in2="hardAlpha" operator="out"/>
<feColorMatrix type="matrix" values="0 0 0 0 0 0 0 0 0 0 0 0 0 0 0 0 0 0 0.25 0"/>
<feBlend mode="normal" in2="BackgroundImageFix" result="effect1_dropShadow_4_7"/>
<feBlend mode="normal" in="SourceGraphic" in2="effect1_dropShadow_4_7" result="shape"/>
</filter>
<filter id="filter4_d_4_7" x="726" y="267" width="84" height="78" filterUnits="userSpaceOnUse" color-interpolation-filters="sRGB">
<feFlood flood-opacity="0" result="BackgroundImageFix"/>
<feColorMatrix in="SourceAlpha" type="matrix" values="0 0 0 0 0 0 0 0 0 0 0 0 0 0 0 0 0 0 127 0" result="hardAlpha"/>
<feOffset dy="4"/>
<feGaussianBlur stdDeviation="2"/>
<feComposite in2="hardAlpha" operator="out"/>
<feColorMatrix type="matrix" values="0 0 0 0 0 0 0 0 0 0 0 0 0 0 0 0 0 0 0.25 0"/>
<feBlend mode="normal" in2="BackgroundImageFix" result="effect1_dropShadow_4_7"/>
<feBlend mode="normal" in="SourceGraphic" in2="effect1_dropShadow_4_7" result="shape"/>
</filter>
<filter id="filter5_d_4_7" x="822" y="267" width="84" height="78" filterUnits="userSpaceOnUse" color-interpolation-filters="sRGB">
<feFlood flood-opacity="0" result="BackgroundImageFix"/>
<feColorMatrix in="SourceAlpha" type="matrix" values="0 0 0 0 0 0 0 0 0 0 0 0 0 0 0 0 0 0 127 0" result="hardAlpha"/>
<feOffset dy="4"/>
<feGaussianBlur stdDeviation="2"/>
<feComposite in2="hardAlpha" operator="out"/>
<feColorMatrix type="matrix" values="0 0 0 0 0 0 0 0 0 0 0 0 0 0 0 0 0 0 0.25 0"/>
<feBlend mode="normal" in2="BackgroundImageFix" result="effect1_dropShadow_4_7"/>
<feBlend mode="normal" in="SourceGraphic" in2="effect1_dropShadow_4_7" result="shape"/>
</filter>
<filter id="filter6_d_4_7" x="1279" y="66" width="79" height="53" filterUnits="userSpaceOnUse" color-interpolation-filters="sRGB">
<feFlood flood-opacity="0" result="BackgroundImageFix"/>
<feColorMatrix in="SourceAlpha" type="matrix" values="0 0 0 0 0 0 0 0 0 0 0 0 0 0 0 0 0 0 127 0" result="hardAlpha"/>
<feOffset dy="4"/>
<feGaussianBlur stdDeviation="2"/>
<feComposite in2="hardAlpha" operator="out"/>
<feColorMatrix type="matrix" values="0 0 0 0 0 0 0 0 0 0 0 0 0 0 0 0 0 0 0.25 0"/>
<feBlend mode="normal" in2="BackgroundImageFix" result="effect1_dropShadow_4_7"/>
<feBlend mode="normal" in="SourceGraphic" in2="effect1_dropShadow_4_7" result="shape"/>
</filter>
</defs>
</svg>
