<svg xmlns="http://www.w3.org/2000/svg" width="99" height="45" fill="none"><path fill="#D6D6D6" d="M0 19.521v-2.49l15.117-9.033v3.198L4.2 18.276l10.918 7.08v3.199L0 19.52ZM21.43 45V5h4.05v2.75h.7c.566-1.033 1.2-1.8 1.9-2.3.733-.533 1.783-.8 3.15-.8 1.8 0 3.15.5 4.05 1.5.9.967 1.4 2.567 1.5 4.8.033 1.033.05 2.35.05 3.95.033 1.6.05 3.3.05 5.1 0 1.767-.017 3.467-.05 5.1 0 1.6-.017 2.917-.05 3.95-.1 2.233-.634 3.85-1.6 4.85-.967.967-2.35 1.45-4.15 1.45-1.134 0-2.084-.233-2.85-.7-.734-.5-1.4-1.3-2-2.4h-.7V45h-4.05Zm8.25-12.65c1 0 1.75-.233 2.25-.7.5-.467.766-1.233.8-2.3.1-2.767.15-5.15.15-7.15.033-2.033.033-3.95 0-5.75-.034-1.8-.084-3.75-.15-5.85-.034-1.033-.267-1.783-.7-2.25-.434-.467-1.15-.7-2.15-.7-2.234 0-3.7.983-4.4 2.95v18.8c.4 1.1.933 1.867 1.6 2.3.666.433 1.533.65 2.6.65ZM71.353 36.001h-2.93L76.089.454h2.93l-7.666 35.547ZM83.486 28.555v-3.199l10.918-7.08-10.918-7.08V7.998l15.117 9.033v2.49l-15.117 9.034Z"/><path fill="#754DE5" d="M40 35V5h3.95v2.75h.8c.533-1 1.133-1.767 1.8-2.3.7-.533 1.717-.8 3.05-.8 2.633 0 4.283 1.117 4.95 3.35h.7c.533-1.033 1.2-1.85 2-2.45.8-.6 1.867-.9 3.2-.9 1.733 0 3.033.5 3.9 1.5.867.967 1.317 2.567 1.35 4.8V35h-4V10.65c0-1.067-.233-1.833-.7-2.3-.467-.467-1.15-.7-2.05-.7-1.9 0-3.25.95-4.05 2.85V35h-4V10.65c0-1.067-.233-1.833-.7-2.3-.433-.467-1.117-.7-2.05-.7-2.067 0-3.467.983-4.2 2.95V35H40Z"/></svg>