<svg xmlns="http://www.w3.org/2000/svg">
    <path fill="#fff" d="M1.969 14.474c0 1.381.311 2.68.935 3.898a8.516 8.516 0 0 0 2.609 3.043 5.097 5.097 0 0 1-.263-1.612c0-.702.131-1.36.394-1.974a5.337 5.337 0 0 1 1.148-1.678S9.5 13 10.5 13s3.708 3.151 3.708 3.151a5.337 5.337 0 0 1 1.148 1.678 5.116 5.116 0 0 1 .131 3.586 8.516 8.516 0 0 0 2.61-3.043 8.43 8.43 0 0 0 .934-3.898 8.448 8.448 0 0 0-.754-3.47c-.504-1.13-1.225-2.166-2.166-3.11-.46.33-.94.587-1.444.774a4.319 4.319 0 0 1-1.51.28c-1.334 0-2.438-.456-3.313-1.366-.875-.91-1.313-2.056-1.313-3.437v-.658a17.956 17.956 0 0 0-2.723 2.401A16.562 16.562 0 0 0 3.74 8.635a13.372 13.372 0 0 0-1.313 2.928 9.898 9.898 0 0 0-.46 2.91Zm8.531.79-2.33 2.302a3.348 3.348 0 0 0-.705 1.02 2.988 2.988 0 0 0-.246 1.217c0 .899.317 1.66.951 2.286.635.625 1.411.937 2.33.937s1.695-.312 2.33-.937c.634-.625.951-1.387.951-2.286 0-.439-.082-.845-.246-1.218a3.35 3.35 0 0 0-.705-1.02l-2.33-2.302ZM10.5 0v4.342c0 .746.257 1.37.771 1.875.514.504 1.143.757 1.887.757.394 0 .76-.083 1.099-.247.34-.165.64-.411.902-.74l.591-.724c1.619.921 2.898 2.204 3.84 3.849.94 1.645 1.41 3.432 1.41 5.362 0 2.938-1.017 5.427-3.052 7.467C15.914 23.98 13.431 25 10.5 25s-5.414-1.02-7.448-3.06C1.017 19.902 0 17.413 0 14.475c0-2.807.94-5.51 2.822-8.109C4.703 3.766 7.262 1.645 10.5 0Z"/>
</svg>