<svg xmlns="http://www.w3.org/2000/svg" width="20" height="21" fill="none"><path stroke="#fff" stroke-width="2" d="M3.75 1c.75 0 1.458.279 1.97.756.508.475.78 1.104.78 1.744v14c0 .64-.272 1.269-.78 1.744l.682.73-.683-.73A2.89 2.89 0 0 1 3.75 20a2.89 2.89 0 0 1-1.97-.756l-.675.723.676-.723A2.386 2.386 0 0 1 1 17.5v-14c0-.64.272-1.269.78-1.744A2.89 2.89 0 0 1 3.75 1Zm14.47.756.682-.73-.683.73C18.73 2.231 19 2.86 19 3.5v14c0 .64-.272 1.269-.78 1.744a2.89 2.89 0 0 1-1.97.756 2.89 2.89 0 0 1-1.97-.756 2.386 2.386 0 0 1-.78-1.744v-14c0-.64.272-1.269.78-1.744A2.89 2.89 0 0 1 16.25 1c.75 0 1.458.279 1.97.756Z"/></svg>