<svg xmlns="http://www.w3.org/2000/svg" fill="none"><path fill="#fff" d="M4.8 20.238c-.28 0-.525-.104-.735-.312a.996.996 0 0 1-.315-.73c0-.277.105-.52.315-.729.21-.208.455-.312.735-.312.28 0 .525.104.735.312.21.209.315.452.315.73 0 .277-.105.52-.315.729-.21.208-.455.312-.735.312Zm14.4 0c-.28 0-.525-.104-.735-.312a.996.996 0 0 1-.315-.73c0-.277.105-.52.315-.729.21-.208.455-.312.735-.312.28 0 .525.104.735.312.21.209.315.452.315.73 0 .277-.105.52-.315.729-.21.208-.455.312-.735.312ZM8.4 25c-.28 0-.525-.104-.735-.313a.996.996 0 0 1-.315-.729c0-.277.105-.52.315-.729.21-.208.455-.312.735-.312.28 0 .525.104.735.312.21.209.315.452.315.73 0 .277-.105.52-.315.729-.21.208-.455.312-.735.312Zm3.6-4.762c-.28 0-.525-.104-.735-.312a.996.996 0 0 1-.315-.73c0-.277.105-.52.315-.729.21-.208.455-.312.735-.312.28 0 .525.104.735.312.21.209.315.452.315.73 0 .277-.105.52-.315.729-.21.208-.455.312-.735.312ZM15.6 25c-.28 0-.525-.104-.735-.313a.996.996 0 0 1-.315-.729c0-.277.105-.52.315-.729.21-.208.455-.312.735-.312.28 0 .525.104.735.312.21.209.315.452.315.73 0 .277-.105.52-.315.729-.21.208-.455.312-.735.312Zm-9.3-8.929c-1.74 0-3.225-.61-4.455-1.83C.615 13.021 0 11.548 0 9.821c0-1.567.565-2.966 1.695-4.196C2.825 4.395 4.23 3.72 5.91 3.601c.64-1.11 1.485-1.989 2.535-2.634C9.495.322 10.68 0 12 0c1.82 0 3.345.57 4.575 1.711s1.985 2.555 2.265 4.241c1.58.08 2.835.61 3.765 1.593.93.982 1.395 2.138 1.395 3.467 0 1.389-.495 2.58-1.485 3.571-.99.992-2.195 1.488-3.615 1.488H6.3Zm0-1.785h12.6c.92 0 1.7-.323 2.34-.967.64-.645.96-1.424.96-2.337 0-.893-.32-1.657-.96-2.292-.64-.634-1.42-.952-2.34-.952h-1.8v-.893c0-1.408-.495-2.604-1.485-3.586-.99-.982-2.195-1.473-3.615-1.473-1.02 0-1.955.273-2.805.818A4.847 4.847 0 0 0 7.32 4.821l-.24.536h-.84c-1.24.04-2.29.491-3.15 1.354-.86.863-1.29 1.9-1.29 3.11 0 1.23.44 2.282 1.32 3.155.88.873 1.94 1.31 3.18 1.31Z"/></svg>