<svg xmlns="http://www.w3.org/2000/svg" >
    <path fill="#fff" d="M23.697 11.146v11.77c0 .556-.187 1.042-.56 1.459-.373.417-.808.625-1.306.625H3.142c-.497 0-.933-.208-1.306-.625a2.118 2.118 0 0 1-.56-1.458V11.146a4.018 4.018 0 0 1-1.15-2.049 4.832 4.832 0 0 1 .062-2.43l1.337-4.688c.166-.625.456-1.11.871-1.458C2.811.174 3.287 0 3.826 0h17.197c.58 0 1.088.18 1.523.538.436.359.736.84.902 1.441l1.369 4.688c.227.81.243 1.62.046 2.43a4.118 4.118 0 0 1-1.166 2.049Zm-8.396-1.077c.601 0 1.11-.22 1.524-.66.414-.44.58-.972.497-1.597l-.777-5.729h-3.11v5.73c0 .601.176 1.128.529 1.58.352.45.798.676 1.337.676Zm-5.815 0c.58 0 1.073-.22 1.477-.66.404-.44.606-.972.606-1.597V2.083H8.46l-.777 5.73c-.083.601.063 1.128.436 1.58.373.45.829.676 1.368.676Zm-5.66 0c.498 0 .928-.19 1.29-.572.364-.382.576-.851.638-1.407l.809-6.007h-3.11l-1.43 5.07c-.207.717-.125 1.383.249 1.996.373.614.891.92 1.554.92Zm17.321 0c.664 0 1.187-.3 1.57-.902.384-.602.472-1.273.265-2.014l-1.43-5.07h-3.11l.808 6.007c.062.556.275 1.025.638 1.407.362.381.782.572 1.26.572ZM3.142 22.917h18.69V12.118c.02.023-.047.035-.203.035h-.482c-.518 0-1.01-.122-1.477-.365-.466-.243-.928-.619-1.384-1.128a3.603 3.603 0 0 1-1.244 1.094c-.497.266-1.047.399-1.648.399-.622 0-1.155-.099-1.601-.295-.446-.197-.876-.527-1.29-.99a3.04 3.04 0 0 1-1.182.955c-.477.22-1.016.33-1.617.33-.643 0-1.213-.128-1.71-.382a3.582 3.582 0 0 1-1.276-1.111c-.497.486-.984.856-1.461 1.11-.477.255-.954.383-1.43.383h-.42c-.135 0-.223-.012-.265-.035v10.799Zm18.69 0H3.141h18.689Z"/>
</svg>