<svg xmlns="http://www.w3.org/2000/svg" fill="none"><path fill="#fff" d="M2 25s-1 0-1-1 1-1 1-1h7.063v-5.5H6.25c-1.73 0-3.203-.61-4.422-1.828C.61 14.453 0 12.979 0 11.25 0 10 .344 8.849 1.031 7.797A5.947 5.947 0 0 1 3.813 5.5c.187-1.563.87-2.87 2.046-3.922C7.036.526 8.417 0 10 0c1.583 0 2.963.526 4.14 1.578C15.319 2.63 16 3.938 16.188 5.5a5.947 5.947 0 0 1 2.782 2.297A6.186 6.186 0 0 1 20 11.25c0 1.73-.61 3.203-1.828 4.422-1.219 1.219-2.693 1.828-4.422 1.828h-2.813V23H18s1 0 1 1-1 1-1 1H2Zm4.25-9.375h7.5c1.208 0 2.24-.427 3.094-1.281.854-.854 1.281-1.886 1.281-3.094 0-.875-.25-1.672-.75-2.39a4.617 4.617 0 0 0-1.938-1.61l-1-.438-.124-1.093c-.146-1.104-.626-2.021-1.438-2.75-.813-.73-1.77-1.094-2.875-1.094-1.104 0-2.063.365-2.875 1.094-.813.729-1.292 1.646-1.438 2.75l-.125 1.093-1 .438a4.617 4.617 0 0 0-1.937 1.61c-.5.718-.75 1.515-.75 2.39 0 1.208.427 2.24 1.281 3.094.854.854 1.886 1.281 3.094 1.281Z"/></svg>